G04 start of page 3 for group 1 idx 1 *
G04 Title: (unknown), solder *
G04 Creator: pcb 20110918 *
G04 CreationDate: Sat 02 Feb 2013 09:04:15 PM GMT UTC *
G04 For: petersen *
G04 Format: Gerber/RS-274X *
G04 PCB-Dimensions: 210000 270000 *
G04 PCB-Coordinate-Origin: lower left *
%MOIN*%
%FSLAX25Y25*%
%LNBOTTOM*%
%ADD44C,0.1280*%
%ADD43C,0.0300*%
%ADD42C,0.0240*%
%ADD41C,0.0480*%
%ADD40C,0.0380*%
%ADD39C,0.1285*%
%ADD38C,0.0200*%
%ADD37C,0.0700*%
%ADD36C,0.0400*%
%ADD35C,0.0800*%
%ADD34C,0.0600*%
%ADD33C,0.1500*%
%ADD32C,0.0100*%
%ADD31C,0.0001*%
G54D31*G36*
X13613Y179175D02*X13872Y178872D01*
X14231Y178565D01*
X14338Y178500D01*
X14231Y178435D01*
X13872Y178128D01*
X13613Y177825D01*
Y179175D01*
G37*
G36*
Y184175D02*X13872Y183872D01*
X14231Y183565D01*
X14338Y183500D01*
X14231Y183435D01*
X13872Y183128D01*
X13613Y182825D01*
Y184175D01*
G37*
G36*
X50000Y86000D02*X41750D01*
Y171502D01*
X47235Y171514D01*
X47465Y171569D01*
X47683Y171659D01*
X47884Y171783D01*
X48064Y171936D01*
X48217Y172116D01*
X48341Y172317D01*
X48431Y172535D01*
X48486Y172765D01*
X48500Y173000D01*
X48486Y179235D01*
X48431Y179465D01*
X48341Y179683D01*
X48217Y179884D01*
X48064Y180064D01*
X47884Y180217D01*
X47683Y180341D01*
X47465Y180431D01*
X47235Y180486D01*
X47000Y180500D01*
X41750Y180488D01*
Y182101D01*
X41951Y181978D01*
X42605Y181707D01*
X43294Y181542D01*
X44000Y181486D01*
X44706Y181542D01*
X45395Y181707D01*
X46049Y181978D01*
X46653Y182348D01*
X47192Y182808D01*
X47652Y183347D01*
X48022Y183951D01*
X48293Y184605D01*
X48458Y185294D01*
X48500Y186000D01*
X48458Y186706D01*
X48293Y187395D01*
X48022Y188049D01*
X47652Y188653D01*
X47192Y189192D01*
X46653Y189652D01*
X46049Y190022D01*
X45395Y190293D01*
X44706Y190458D01*
X44000Y190514D01*
X43294Y190458D01*
X42605Y190293D01*
X41951Y190022D01*
X41750Y189899D01*
Y192101D01*
X41951Y191978D01*
X42605Y191707D01*
X43294Y191542D01*
X44000Y191486D01*
X44706Y191542D01*
X45395Y191707D01*
X46049Y191978D01*
X46653Y192348D01*
X47192Y192808D01*
X47652Y193347D01*
X48022Y193951D01*
X48293Y194605D01*
X48458Y195294D01*
X48500Y196000D01*
X48458Y196706D01*
X48293Y197395D01*
X48022Y198049D01*
X47652Y198653D01*
X47192Y199192D01*
X46653Y199652D01*
X46049Y200022D01*
X45395Y200293D01*
X44706Y200458D01*
X44000Y200514D01*
X43294Y200458D01*
X42605Y200293D01*
X41951Y200022D01*
X41750Y199899D01*
Y243248D01*
X41868Y243257D01*
X41982Y243285D01*
X42092Y243330D01*
X42192Y243391D01*
X42282Y243468D01*
X42359Y243558D01*
X42420Y243658D01*
X42465Y243768D01*
X42493Y243882D01*
X42500Y244000D01*
Y249000D01*
X42493Y249118D01*
X42465Y249232D01*
X42420Y249342D01*
X42359Y249442D01*
X42282Y249532D01*
X42192Y249609D01*
X42092Y249670D01*
X41982Y249715D01*
X41868Y249743D01*
X41750Y249752D01*
Y263000D01*
X50000D01*
Y86000D01*
G37*
G36*
X41750D02*X37000D01*
Y241000D01*
X39500D01*
X39618Y241007D01*
X39732Y241035D01*
X39842Y241080D01*
X39942Y241141D01*
X40032Y241218D01*
X40109Y241308D01*
X40170Y241408D01*
X40215Y241518D01*
X40243Y241632D01*
X40252Y241750D01*
X40243Y241868D01*
X40215Y241982D01*
X40170Y242092D01*
X40109Y242192D01*
X40032Y242282D01*
X39942Y242359D01*
X39842Y242420D01*
X39732Y242465D01*
X39618Y242493D01*
X39500Y242500D01*
X37000D01*
Y250500D01*
X39500D01*
X39618Y250507D01*
X39732Y250535D01*
X39842Y250580D01*
X39942Y250641D01*
X40032Y250718D01*
X40109Y250808D01*
X40170Y250908D01*
X40215Y251018D01*
X40243Y251132D01*
X40252Y251250D01*
X40243Y251368D01*
X40215Y251482D01*
X40170Y251592D01*
X40109Y251692D01*
X40032Y251782D01*
X39942Y251859D01*
X39842Y251920D01*
X39732Y251965D01*
X39618Y251993D01*
X39500Y252000D01*
X37000D01*
Y263000D01*
X41750D01*
Y249752D01*
X41632Y249743D01*
X41518Y249715D01*
X41408Y249670D01*
X41308Y249609D01*
X41218Y249532D01*
X41141Y249442D01*
X41080Y249342D01*
X41035Y249232D01*
X41007Y249118D01*
X41000Y249000D01*
Y244000D01*
X41007Y243882D01*
X41035Y243768D01*
X41080Y243658D01*
X41141Y243558D01*
X41218Y243468D01*
X41308Y243391D01*
X41408Y243330D01*
X41518Y243285D01*
X41632Y243257D01*
X41750Y243248D01*
Y199899D01*
X41347Y199652D01*
X40808Y199192D01*
X40348Y198653D01*
X39978Y198049D01*
X39707Y197395D01*
X39542Y196706D01*
X39486Y196000D01*
X39542Y195294D01*
X39707Y194605D01*
X39978Y193951D01*
X40348Y193347D01*
X40808Y192808D01*
X41347Y192348D01*
X41750Y192101D01*
Y189899D01*
X41347Y189652D01*
X40808Y189192D01*
X40348Y188653D01*
X39978Y188049D01*
X39707Y187395D01*
X39542Y186706D01*
X39486Y186000D01*
X39542Y185294D01*
X39707Y184605D01*
X39978Y183951D01*
X40348Y183347D01*
X40808Y182808D01*
X41347Y182348D01*
X41750Y182101D01*
Y180488D01*
X40765Y180486D01*
X40535Y180431D01*
X40317Y180341D01*
X40116Y180217D01*
X39936Y180064D01*
X39783Y179884D01*
X39659Y179683D01*
X39569Y179465D01*
X39514Y179235D01*
X39500Y179000D01*
X39514Y172765D01*
X39569Y172535D01*
X39659Y172317D01*
X39783Y172116D01*
X39936Y171936D01*
X40116Y171783D01*
X40317Y171659D01*
X40535Y171569D01*
X40765Y171514D01*
X41000Y171500D01*
X41750Y171502D01*
Y86000D01*
G37*
G36*
X37000D02*X32250D01*
Y243248D01*
X32368Y243257D01*
X32482Y243285D01*
X32592Y243330D01*
X32692Y243391D01*
X32782Y243468D01*
X32859Y243558D01*
X32920Y243658D01*
X32965Y243768D01*
X32993Y243882D01*
X33000Y244000D01*
Y249000D01*
X32993Y249118D01*
X32965Y249232D01*
X32920Y249342D01*
X32859Y249442D01*
X32782Y249532D01*
X32692Y249609D01*
X32592Y249670D01*
X32482Y249715D01*
X32368Y249743D01*
X32250Y249752D01*
Y263000D01*
X37000D01*
Y252000D01*
X34500D01*
X34382Y251993D01*
X34268Y251965D01*
X34158Y251920D01*
X34058Y251859D01*
X33968Y251782D01*
X33891Y251692D01*
X33830Y251592D01*
X33785Y251482D01*
X33757Y251368D01*
X33748Y251250D01*
X33757Y251132D01*
X33785Y251018D01*
X33830Y250908D01*
X33891Y250808D01*
X33968Y250718D01*
X34058Y250641D01*
X34158Y250580D01*
X34268Y250535D01*
X34382Y250507D01*
X34500Y250500D01*
X37000D01*
Y242500D01*
X34500D01*
X34382Y242493D01*
X34268Y242465D01*
X34158Y242420D01*
X34058Y242359D01*
X33968Y242282D01*
X33891Y242192D01*
X33830Y242092D01*
X33785Y241982D01*
X33757Y241868D01*
X33748Y241750D01*
X33757Y241632D01*
X33785Y241518D01*
X33830Y241408D01*
X33891Y241308D01*
X33968Y241218D01*
X34058Y241141D01*
X34158Y241080D01*
X34268Y241035D01*
X34382Y241007D01*
X34500Y241000D01*
X37000D01*
Y86000D01*
G37*
G36*
X32250D02*X21493D01*
Y243645D01*
X21578Y243681D01*
X21679Y243743D01*
X21769Y243819D01*
X21845Y243909D01*
X21905Y244011D01*
X22122Y244480D01*
X22289Y244969D01*
X22409Y245472D01*
X22482Y245984D01*
X22506Y246500D01*
X22482Y247016D01*
X22409Y247528D01*
X22289Y248031D01*
X22122Y248520D01*
X21910Y248992D01*
X21849Y249093D01*
X21772Y249184D01*
X21682Y249261D01*
X21580Y249323D01*
X21493Y249360D01*
Y263000D01*
X32250D01*
Y249752D01*
X32132Y249743D01*
X32018Y249715D01*
X31908Y249670D01*
X31808Y249609D01*
X31718Y249532D01*
X31641Y249442D01*
X31580Y249342D01*
X31535Y249232D01*
X31507Y249118D01*
X31500Y249000D01*
Y244000D01*
X31507Y243882D01*
X31535Y243768D01*
X31580Y243658D01*
X31641Y243558D01*
X31718Y243468D01*
X31808Y243391D01*
X31908Y243330D01*
X32018Y243285D01*
X32132Y243257D01*
X32250Y243248D01*
Y86000D01*
G37*
G36*
X21493D02*X18409D01*
Y174201D01*
X18435Y174231D01*
X18681Y174634D01*
X18862Y175070D01*
X18972Y175529D01*
X19000Y176000D01*
X18972Y176471D01*
X18862Y176930D01*
X18681Y177366D01*
X18435Y177769D01*
X18409Y177799D01*
Y179201D01*
X18435Y179231D01*
X18681Y179634D01*
X18862Y180070D01*
X18972Y180529D01*
X19000Y181000D01*
X18972Y181471D01*
X18862Y181930D01*
X18681Y182366D01*
X18435Y182769D01*
X18409Y182799D01*
Y184201D01*
X18435Y184231D01*
X18681Y184634D01*
X18862Y185070D01*
X18972Y185529D01*
X19000Y186000D01*
X18972Y186471D01*
X18862Y186930D01*
X18681Y187366D01*
X18435Y187769D01*
X18409Y187799D01*
Y189569D01*
X18437Y189573D01*
X18512Y189598D01*
X18582Y189634D01*
X18645Y189681D01*
X18700Y189737D01*
X18746Y189801D01*
X18780Y189872D01*
X18879Y190144D01*
X18948Y190425D01*
X18990Y190711D01*
X19003Y191000D01*
X18990Y191289D01*
X18948Y191575D01*
X18879Y191856D01*
X18783Y192129D01*
X18748Y192200D01*
X18702Y192264D01*
X18647Y192321D01*
X18583Y192368D01*
X18513Y192404D01*
X18438Y192429D01*
X18409Y192434D01*
Y194201D01*
X18435Y194231D01*
X18681Y194634D01*
X18862Y195070D01*
X18972Y195529D01*
X19000Y196000D01*
X18972Y196471D01*
X18862Y196930D01*
X18681Y197366D01*
X18435Y197769D01*
X18409Y197799D01*
Y213614D01*
X18421Y213666D01*
X18500Y215000D01*
X18421Y216334D01*
X18409Y216386D01*
Y241182D01*
X18531Y241211D01*
X19020Y241378D01*
X19492Y241590D01*
X19593Y241651D01*
X19684Y241728D01*
X19761Y241818D01*
X19823Y241920D01*
X19869Y242029D01*
X19897Y242145D01*
X19906Y242263D01*
X19897Y242381D01*
X19870Y242497D01*
X19824Y242607D01*
X19762Y242708D01*
X19686Y242798D01*
X19595Y242876D01*
X19494Y242938D01*
X19385Y242984D01*
X19269Y243011D01*
X19151Y243021D01*
X19032Y243012D01*
X18917Y242984D01*
X18808Y242937D01*
X18468Y242779D01*
X18409Y242759D01*
Y250241D01*
X18468Y250221D01*
X18810Y250067D01*
X18918Y250020D01*
X19033Y249993D01*
X19151Y249983D01*
X19268Y249993D01*
X19383Y250021D01*
X19492Y250066D01*
X19593Y250128D01*
X19682Y250205D01*
X19759Y250295D01*
X19820Y250395D01*
X19865Y250504D01*
X19893Y250619D01*
X19902Y250737D01*
X19892Y250855D01*
X19865Y250969D01*
X19819Y251078D01*
X19757Y251179D01*
X19681Y251269D01*
X19591Y251345D01*
X19489Y251405D01*
X19020Y251622D01*
X18531Y251789D01*
X18409Y251818D01*
Y263000D01*
X21493D01*
Y249360D01*
X21471Y249369D01*
X21355Y249397D01*
X21237Y249406D01*
X21119Y249397D01*
X21003Y249370D01*
X20893Y249324D01*
X20792Y249262D01*
X20702Y249186D01*
X20624Y249095D01*
X20562Y248994D01*
X20516Y248885D01*
X20489Y248769D01*
X20479Y248651D01*
X20488Y248532D01*
X20516Y248417D01*
X20563Y248308D01*
X20721Y247968D01*
X20842Y247612D01*
X20930Y247247D01*
X20982Y246875D01*
X21000Y246500D01*
X20982Y246125D01*
X20930Y245753D01*
X20842Y245388D01*
X20721Y245032D01*
X20567Y244690D01*
X20520Y244582D01*
X20493Y244467D01*
X20483Y244349D01*
X20493Y244232D01*
X20521Y244117D01*
X20566Y244008D01*
X20628Y243907D01*
X20705Y243818D01*
X20795Y243741D01*
X20895Y243680D01*
X21004Y243635D01*
X21119Y243607D01*
X21237Y243598D01*
X21355Y243608D01*
X21469Y243635D01*
X21493Y243645D01*
Y86000D01*
G37*
G36*
X18409Y216386D02*X18109Y217635D01*
X17597Y218871D01*
X16898Y220012D01*
X16029Y221029D01*
X15012Y221898D01*
X13871Y222597D01*
X13613Y222704D01*
Y263000D01*
X18409D01*
Y251818D01*
X18028Y251909D01*
X17516Y251982D01*
X17000Y252006D01*
X16484Y251982D01*
X15972Y251909D01*
X15469Y251789D01*
X14980Y251622D01*
X14508Y251410D01*
X14407Y251349D01*
X14316Y251272D01*
X14239Y251182D01*
X14177Y251080D01*
X14131Y250971D01*
X14103Y250855D01*
X14094Y250737D01*
X14103Y250619D01*
X14130Y250503D01*
X14176Y250393D01*
X14238Y250292D01*
X14314Y250202D01*
X14405Y250124D01*
X14506Y250062D01*
X14615Y250016D01*
X14731Y249989D01*
X14849Y249979D01*
X14968Y249988D01*
X15083Y250016D01*
X15192Y250063D01*
X15532Y250221D01*
X15888Y250342D01*
X16253Y250430D01*
X16625Y250482D01*
X17000Y250500D01*
X17375Y250482D01*
X17747Y250430D01*
X18112Y250342D01*
X18409Y250241D01*
Y242759D01*
X18112Y242658D01*
X17747Y242570D01*
X17375Y242518D01*
X17000Y242500D01*
X16625Y242518D01*
X16253Y242570D01*
X15888Y242658D01*
X15532Y242779D01*
X15190Y242933D01*
X15082Y242980D01*
X14967Y243007D01*
X14849Y243017D01*
X14732Y243007D01*
X14617Y242979D01*
X14508Y242934D01*
X14407Y242872D01*
X14318Y242795D01*
X14241Y242705D01*
X14180Y242605D01*
X14135Y242496D01*
X14107Y242381D01*
X14098Y242263D01*
X14108Y242145D01*
X14135Y242031D01*
X14181Y241922D01*
X14243Y241821D01*
X14319Y241731D01*
X14409Y241655D01*
X14511Y241595D01*
X14980Y241378D01*
X15469Y241211D01*
X15972Y241091D01*
X16484Y241018D01*
X17000Y240994D01*
X17516Y241018D01*
X18028Y241091D01*
X18409Y241182D01*
Y216386D01*
G37*
G36*
Y197799D02*X18128Y198128D01*
X17769Y198435D01*
X17366Y198681D01*
X16930Y198862D01*
X16471Y198972D01*
X16000Y199009D01*
X15529Y198972D01*
X15070Y198862D01*
X14634Y198681D01*
X14231Y198435D01*
X13872Y198128D01*
X13613Y197825D01*
Y207296D01*
X13871Y207403D01*
X15012Y208102D01*
X16029Y208971D01*
X16898Y209988D01*
X17597Y211129D01*
X18109Y212365D01*
X18409Y213614D01*
Y197799D01*
G37*
G36*
Y187799D02*X18128Y188128D01*
X17769Y188435D01*
X17441Y188635D01*
X17442Y188640D01*
X17442Y188719D01*
X17431Y188797D01*
X17407Y188873D01*
X17371Y188944D01*
X17325Y189008D01*
X17270Y189064D01*
X17206Y189111D01*
X17136Y189147D01*
X17061Y189172D01*
X16983Y189185D01*
X16904Y189186D01*
X16826Y189174D01*
X16751Y189149D01*
X16570Y189083D01*
X16383Y189037D01*
X16192Y189009D01*
X16073Y189004D01*
X16000Y189009D01*
X15927Y189004D01*
X15808Y189009D01*
X15617Y189037D01*
X15430Y189083D01*
X15248Y189147D01*
X15174Y189172D01*
X15096Y189184D01*
X15017Y189183D01*
X14940Y189170D01*
X14865Y189145D01*
X14795Y189109D01*
X14732Y189062D01*
X14676Y189006D01*
X14631Y188942D01*
X14595Y188872D01*
X14572Y188797D01*
X14560Y188719D01*
X14560Y188640D01*
X14561Y188637D01*
X14231Y188435D01*
X13872Y188128D01*
X13613Y187825D01*
Y189563D01*
X13640Y189558D01*
X13719Y189558D01*
X13797Y189569D01*
X13873Y189593D01*
X13944Y189629D01*
X14008Y189675D01*
X14064Y189730D01*
X14111Y189794D01*
X14147Y189864D01*
X14172Y189939D01*
X14185Y190017D01*
X14186Y190096D01*
X14174Y190174D01*
X14149Y190249D01*
X14083Y190430D01*
X14037Y190617D01*
X14009Y190808D01*
X14000Y191000D01*
X14009Y191192D01*
X14037Y191383D01*
X14083Y191570D01*
X14147Y191752D01*
X14172Y191826D01*
X14184Y191904D01*
X14183Y191983D01*
X14170Y192060D01*
X14145Y192135D01*
X14109Y192205D01*
X14062Y192268D01*
X14006Y192324D01*
X13942Y192369D01*
X13872Y192405D01*
X13797Y192428D01*
X13719Y192440D01*
X13640Y192440D01*
X13613Y192435D01*
Y194175D01*
X13872Y193872D01*
X14231Y193565D01*
X14559Y193365D01*
X14558Y193360D01*
X14558Y193281D01*
X14569Y193203D01*
X14593Y193127D01*
X14629Y193056D01*
X14675Y192992D01*
X14730Y192936D01*
X14794Y192889D01*
X14864Y192853D01*
X14939Y192828D01*
X15017Y192815D01*
X15096Y192814D01*
X15174Y192826D01*
X15249Y192851D01*
X15430Y192917D01*
X15617Y192963D01*
X15808Y192991D01*
X15927Y192996D01*
X16000Y192991D01*
X16073Y192996D01*
X16192Y192991D01*
X16383Y192963D01*
X16570Y192917D01*
X16752Y192853D01*
X16826Y192828D01*
X16904Y192816D01*
X16983Y192817D01*
X17060Y192830D01*
X17135Y192855D01*
X17205Y192891D01*
X17268Y192938D01*
X17324Y192994D01*
X17369Y193058D01*
X17405Y193128D01*
X17428Y193203D01*
X17440Y193281D01*
X17440Y193360D01*
X17439Y193363D01*
X17769Y193565D01*
X18128Y193872D01*
X18409Y194201D01*
Y192434D01*
X18360Y192442D01*
X18281Y192442D01*
X18203Y192431D01*
X18127Y192407D01*
X18056Y192371D01*
X17992Y192325D01*
X17936Y192270D01*
X17889Y192206D01*
X17853Y192136D01*
X17828Y192061D01*
X17815Y191983D01*
X17814Y191904D01*
X17826Y191826D01*
X17851Y191751D01*
X17917Y191570D01*
X17963Y191383D01*
X17991Y191192D01*
X18000Y191000D01*
X17991Y190808D01*
X17963Y190617D01*
X17917Y190430D01*
X17853Y190248D01*
X17828Y190174D01*
X17816Y190096D01*
X17817Y190017D01*
X17830Y189940D01*
X17855Y189865D01*
X17891Y189795D01*
X17938Y189732D01*
X17994Y189676D01*
X18058Y189631D01*
X18128Y189595D01*
X18203Y189572D01*
X18281Y189560D01*
X18360Y189560D01*
X18409Y189569D01*
Y187799D01*
G37*
G36*
Y182799D02*X18128Y183128D01*
X17769Y183435D01*
X17662Y183500D01*
X17769Y183565D01*
X18128Y183872D01*
X18409Y184201D01*
Y182799D01*
G37*
G36*
Y177799D02*X18128Y178128D01*
X17769Y178435D01*
X17662Y178500D01*
X17769Y178565D01*
X18128Y178872D01*
X18409Y179201D01*
Y177799D01*
G37*
G36*
Y86000D02*X13613D01*
Y87302D01*
X13652Y87347D01*
X14022Y87951D01*
X14293Y88605D01*
X14458Y89294D01*
X14500Y90000D01*
X14458Y90706D01*
X14293Y91395D01*
X14022Y92049D01*
X13652Y92653D01*
X13613Y92698D01*
Y97853D01*
X13656Y97860D01*
X13768Y97897D01*
X13873Y97952D01*
X13968Y98022D01*
X14051Y98106D01*
X14119Y98202D01*
X14170Y98308D01*
X14318Y98716D01*
X14422Y99137D01*
X14484Y99567D01*
X14505Y100000D01*
X14484Y100433D01*
X14422Y100863D01*
X14318Y101284D01*
X14175Y101694D01*
X14122Y101800D01*
X14053Y101896D01*
X13970Y101981D01*
X13875Y102051D01*
X13769Y102106D01*
X13657Y102143D01*
X13613Y102151D01*
Y107853D01*
X13656Y107860D01*
X13768Y107897D01*
X13873Y107952D01*
X13968Y108022D01*
X14051Y108106D01*
X14119Y108202D01*
X14170Y108308D01*
X14318Y108716D01*
X14422Y109137D01*
X14484Y109567D01*
X14505Y110000D01*
X14484Y110433D01*
X14422Y110863D01*
X14318Y111284D01*
X14175Y111694D01*
X14122Y111800D01*
X14053Y111896D01*
X13970Y111981D01*
X13875Y112051D01*
X13769Y112106D01*
X13657Y112143D01*
X13613Y112151D01*
Y117302D01*
X13652Y117347D01*
X14022Y117951D01*
X14293Y118605D01*
X14458Y119294D01*
X14500Y120000D01*
X14458Y120706D01*
X14293Y121395D01*
X14022Y122049D01*
X13652Y122653D01*
X13613Y122698D01*
Y127302D01*
X13652Y127347D01*
X14022Y127951D01*
X14293Y128605D01*
X14458Y129294D01*
X14500Y130000D01*
X14458Y130706D01*
X14293Y131395D01*
X14022Y132049D01*
X13652Y132653D01*
X13613Y132698D01*
Y137302D01*
X13652Y137347D01*
X14022Y137951D01*
X14293Y138605D01*
X14458Y139294D01*
X14500Y140000D01*
X14458Y140706D01*
X14293Y141395D01*
X14022Y142049D01*
X13652Y142653D01*
X13613Y142698D01*
Y147302D01*
X13652Y147347D01*
X14022Y147951D01*
X14293Y148605D01*
X14458Y149294D01*
X14500Y150000D01*
X14458Y150706D01*
X14293Y151395D01*
X14022Y152049D01*
X13652Y152653D01*
X13613Y152698D01*
Y155630D01*
X13683Y155659D01*
X13884Y155783D01*
X14064Y155936D01*
X14217Y156116D01*
X14341Y156317D01*
X14431Y156535D01*
X14486Y156765D01*
X14500Y157000D01*
X14486Y163235D01*
X14431Y163465D01*
X14341Y163683D01*
X14217Y163884D01*
X14064Y164064D01*
X13884Y164217D01*
X13683Y164341D01*
X13613Y164370D01*
Y174175D01*
X13872Y173872D01*
X14231Y173565D01*
X14634Y173319D01*
X15070Y173138D01*
X15529Y173028D01*
X16000Y172991D01*
X16471Y173028D01*
X16930Y173138D01*
X17366Y173319D01*
X17769Y173565D01*
X18128Y173872D01*
X18409Y174201D01*
Y86000D01*
G37*
G36*
X13613Y222704D02*X12635Y223109D01*
X12507Y223139D01*
Y243640D01*
X12529Y243631D01*
X12645Y243603D01*
X12763Y243594D01*
X12881Y243603D01*
X12997Y243630D01*
X13107Y243676D01*
X13208Y243738D01*
X13298Y243814D01*
X13376Y243905D01*
X13438Y244006D01*
X13484Y244115D01*
X13511Y244231D01*
X13521Y244349D01*
X13512Y244468D01*
X13484Y244583D01*
X13437Y244692D01*
X13279Y245032D01*
X13158Y245388D01*
X13070Y245753D01*
X13018Y246125D01*
X13000Y246500D01*
X13018Y246875D01*
X13070Y247247D01*
X13158Y247612D01*
X13279Y247968D01*
X13433Y248310D01*
X13480Y248418D01*
X13507Y248533D01*
X13517Y248651D01*
X13507Y248768D01*
X13479Y248883D01*
X13434Y248992D01*
X13372Y249093D01*
X13295Y249182D01*
X13205Y249259D01*
X13105Y249320D01*
X12996Y249365D01*
X12881Y249393D01*
X12763Y249402D01*
X12645Y249392D01*
X12531Y249365D01*
X12507Y249355D01*
Y263000D01*
X13613D01*
Y222704D01*
G37*
G36*
X12507Y223139D02*X11334Y223421D01*
X10002Y223526D01*
Y263000D01*
X12507D01*
Y249355D01*
X12422Y249319D01*
X12321Y249257D01*
X12231Y249181D01*
X12155Y249091D01*
X12095Y248989D01*
X11878Y248520D01*
X11711Y248031D01*
X11591Y247528D01*
X11518Y247016D01*
X11494Y246500D01*
X11518Y245984D01*
X11591Y245472D01*
X11711Y244969D01*
X11878Y244480D01*
X12090Y244008D01*
X12151Y243907D01*
X12228Y243816D01*
X12318Y243739D01*
X12420Y243677D01*
X12507Y243640D01*
Y223139D01*
G37*
G36*
X13613Y164370D02*X13465Y164431D01*
X13235Y164486D01*
X13000Y164500D01*
X10002Y164493D01*
Y206474D01*
X11334Y206579D01*
X12635Y206891D01*
X13613Y207296D01*
Y197825D01*
X13565Y197769D01*
X13319Y197366D01*
X13138Y196930D01*
X13028Y196471D01*
X12991Y196000D01*
X13028Y195529D01*
X13138Y195070D01*
X13319Y194634D01*
X13565Y194231D01*
X13613Y194175D01*
Y192435D01*
X13563Y192427D01*
X13488Y192402D01*
X13418Y192366D01*
X13355Y192319D01*
X13300Y192263D01*
X13254Y192199D01*
X13220Y192128D01*
X13121Y191856D01*
X13052Y191575D01*
X13010Y191289D01*
X12997Y191000D01*
X13010Y190711D01*
X13052Y190425D01*
X13121Y190144D01*
X13217Y189871D01*
X13252Y189800D01*
X13298Y189736D01*
X13353Y189679D01*
X13417Y189632D01*
X13487Y189596D01*
X13562Y189571D01*
X13613Y189563D01*
Y187825D01*
X13565Y187769D01*
X13319Y187366D01*
X13138Y186930D01*
X13028Y186471D01*
X12991Y186000D01*
X13028Y185529D01*
X13138Y185070D01*
X13319Y184634D01*
X13565Y184231D01*
X13613Y184175D01*
Y182825D01*
X13565Y182769D01*
X13319Y182366D01*
X13138Y181930D01*
X13028Y181471D01*
X12991Y181000D01*
X13028Y180529D01*
X13138Y180070D01*
X13319Y179634D01*
X13565Y179231D01*
X13613Y179175D01*
Y177825D01*
X13565Y177769D01*
X13319Y177366D01*
X13138Y176930D01*
X13028Y176471D01*
X12991Y176000D01*
X13028Y175529D01*
X13138Y175070D01*
X13319Y174634D01*
X13565Y174231D01*
X13613Y174175D01*
Y164370D01*
G37*
G36*
Y152698D02*X13192Y153192D01*
X12653Y153652D01*
X12049Y154022D01*
X11395Y154293D01*
X10706Y154458D01*
X10002Y154514D01*
Y155507D01*
X13235Y155514D01*
X13465Y155569D01*
X13613Y155630D01*
Y152698D01*
G37*
G36*
Y142698D02*X13192Y143192D01*
X12653Y143652D01*
X12049Y144022D01*
X11395Y144293D01*
X10706Y144458D01*
X10002Y144514D01*
Y145486D01*
X10706Y145542D01*
X11395Y145707D01*
X12049Y145978D01*
X12653Y146348D01*
X13192Y146808D01*
X13613Y147302D01*
Y142698D01*
G37*
G36*
Y132698D02*X13192Y133192D01*
X12653Y133652D01*
X12049Y134022D01*
X11395Y134293D01*
X10706Y134458D01*
X10002Y134514D01*
Y135486D01*
X10706Y135542D01*
X11395Y135707D01*
X12049Y135978D01*
X12653Y136348D01*
X13192Y136808D01*
X13613Y137302D01*
Y132698D01*
G37*
G36*
Y122698D02*X13192Y123192D01*
X12653Y123652D01*
X12049Y124022D01*
X11395Y124293D01*
X10706Y124458D01*
X10002Y124514D01*
Y125486D01*
X10706Y125542D01*
X11395Y125707D01*
X12049Y125978D01*
X12653Y126348D01*
X13192Y126808D01*
X13613Y127302D01*
Y122698D01*
G37*
G36*
Y92698D02*X13192Y93192D01*
X12653Y93652D01*
X12049Y94022D01*
X11395Y94293D01*
X10706Y94458D01*
X10002Y94514D01*
Y95495D01*
X10433Y95516D01*
X10863Y95578D01*
X11284Y95682D01*
X11694Y95825D01*
X11800Y95878D01*
X11896Y95947D01*
X11981Y96030D01*
X12051Y96125D01*
X12106Y96231D01*
X12143Y96343D01*
X12163Y96460D01*
X12164Y96579D01*
X12146Y96696D01*
X12110Y96809D01*
X12057Y96915D01*
X11988Y97012D01*
X11905Y97096D01*
X11809Y97167D01*
X11704Y97221D01*
X11592Y97259D01*
X11475Y97278D01*
X11356Y97279D01*
X11239Y97261D01*
X11126Y97223D01*
X10855Y97124D01*
X10575Y97056D01*
X10289Y97014D01*
X10002Y97000D01*
Y103000D01*
X10289Y102986D01*
X10575Y102944D01*
X10855Y102876D01*
X11128Y102780D01*
X11239Y102742D01*
X11356Y102725D01*
X11474Y102725D01*
X11591Y102745D01*
X11703Y102782D01*
X11807Y102836D01*
X11902Y102906D01*
X11985Y102991D01*
X12054Y103087D01*
X12107Y103192D01*
X12143Y103305D01*
X12160Y103421D01*
X12159Y103539D01*
X12140Y103656D01*
X12103Y103768D01*
X12048Y103873D01*
X11978Y103968D01*
X11894Y104051D01*
X11798Y104119D01*
X11692Y104170D01*
X11284Y104318D01*
X10863Y104422D01*
X10433Y104484D01*
X10002Y104505D01*
Y105495D01*
X10433Y105516D01*
X10863Y105578D01*
X11284Y105682D01*
X11694Y105825D01*
X11800Y105878D01*
X11896Y105947D01*
X11981Y106030D01*
X12051Y106125D01*
X12106Y106231D01*
X12143Y106343D01*
X12163Y106460D01*
X12164Y106579D01*
X12146Y106696D01*
X12110Y106809D01*
X12057Y106915D01*
X11988Y107012D01*
X11905Y107096D01*
X11809Y107167D01*
X11704Y107221D01*
X11592Y107259D01*
X11475Y107278D01*
X11356Y107279D01*
X11239Y107261D01*
X11126Y107223D01*
X10855Y107124D01*
X10575Y107056D01*
X10289Y107014D01*
X10002Y107000D01*
Y113000D01*
X10289Y112986D01*
X10575Y112944D01*
X10855Y112876D01*
X11128Y112780D01*
X11239Y112742D01*
X11356Y112725D01*
X11474Y112725D01*
X11591Y112745D01*
X11703Y112782D01*
X11807Y112836D01*
X11902Y112906D01*
X11985Y112991D01*
X12054Y113087D01*
X12107Y113192D01*
X12143Y113305D01*
X12160Y113421D01*
X12159Y113539D01*
X12140Y113656D01*
X12103Y113768D01*
X12048Y113873D01*
X11978Y113968D01*
X11894Y114051D01*
X11798Y114119D01*
X11692Y114170D01*
X11284Y114318D01*
X10863Y114422D01*
X10433Y114484D01*
X10002Y114505D01*
Y115486D01*
X10706Y115542D01*
X11395Y115707D01*
X12049Y115978D01*
X12653Y116348D01*
X13192Y116808D01*
X13613Y117302D01*
Y112151D01*
X13540Y112163D01*
X13421Y112164D01*
X13304Y112146D01*
X13191Y112110D01*
X13085Y112057D01*
X12988Y111988D01*
X12904Y111905D01*
X12833Y111809D01*
X12779Y111704D01*
X12741Y111592D01*
X12722Y111475D01*
X12721Y111356D01*
X12739Y111239D01*
X12777Y111126D01*
X12876Y110855D01*
X12944Y110575D01*
X12986Y110289D01*
X13000Y110000D01*
X12986Y109711D01*
X12944Y109425D01*
X12876Y109145D01*
X12780Y108872D01*
X12742Y108761D01*
X12725Y108644D01*
X12725Y108526D01*
X12745Y108409D01*
X12782Y108297D01*
X12836Y108193D01*
X12906Y108098D01*
X12991Y108015D01*
X13087Y107946D01*
X13192Y107893D01*
X13305Y107857D01*
X13421Y107840D01*
X13539Y107841D01*
X13613Y107853D01*
Y102151D01*
X13540Y102163D01*
X13421Y102164D01*
X13304Y102146D01*
X13191Y102110D01*
X13085Y102057D01*
X12988Y101988D01*
X12904Y101905D01*
X12833Y101809D01*
X12779Y101704D01*
X12741Y101592D01*
X12722Y101475D01*
X12721Y101356D01*
X12739Y101239D01*
X12777Y101126D01*
X12876Y100855D01*
X12944Y100575D01*
X12986Y100289D01*
X13000Y100000D01*
X12986Y99711D01*
X12944Y99425D01*
X12876Y99145D01*
X12780Y98872D01*
X12742Y98761D01*
X12725Y98644D01*
X12725Y98526D01*
X12745Y98409D01*
X12782Y98297D01*
X12836Y98193D01*
X12906Y98098D01*
X12991Y98015D01*
X13087Y97946D01*
X13192Y97893D01*
X13305Y97857D01*
X13421Y97840D01*
X13539Y97841D01*
X13613Y97853D01*
Y92698D01*
G37*
G36*
Y86000D02*X12085D01*
X12653Y86348D01*
X13192Y86808D01*
X13613Y87302D01*
Y86000D01*
G37*
G36*
X10002Y223526D02*X10000Y223526D01*
X8666Y223421D01*
X7365Y223109D01*
X6129Y222597D01*
X4988Y221898D01*
X4000Y221054D01*
Y263000D01*
X10002D01*
Y223526D01*
G37*
G36*
X6387Y127302D02*X6808Y126808D01*
X7347Y126348D01*
X7951Y125978D01*
X8605Y125707D01*
X9294Y125542D01*
X10000Y125486D01*
X10002Y125486D01*
Y124514D01*
X10000Y124514D01*
X9294Y124458D01*
X8605Y124293D01*
X7951Y124022D01*
X7347Y123652D01*
X6808Y123192D01*
X6387Y122698D01*
Y127302D01*
G37*
G36*
Y137302D02*X6808Y136808D01*
X7347Y136348D01*
X7951Y135978D01*
X8605Y135707D01*
X9294Y135542D01*
X10000Y135486D01*
X10002Y135486D01*
Y134514D01*
X10000Y134514D01*
X9294Y134458D01*
X8605Y134293D01*
X7951Y134022D01*
X7347Y133652D01*
X6808Y133192D01*
X6387Y132698D01*
Y137302D01*
G37*
G36*
Y147302D02*X6808Y146808D01*
X7347Y146348D01*
X7951Y145978D01*
X8605Y145707D01*
X9294Y145542D01*
X10000Y145486D01*
X10002Y145486D01*
Y144514D01*
X10000Y144514D01*
X9294Y144458D01*
X8605Y144293D01*
X7951Y144022D01*
X7347Y143652D01*
X6808Y143192D01*
X6387Y142698D01*
Y147302D01*
G37*
G36*
Y155630D02*X6535Y155569D01*
X6765Y155514D01*
X7000Y155500D01*
X10002Y155507D01*
Y154514D01*
X10000Y154514D01*
X9294Y154458D01*
X8605Y154293D01*
X7951Y154022D01*
X7347Y153652D01*
X6808Y153192D01*
X6387Y152698D01*
Y155630D01*
G37*
G36*
Y207296D02*X7365Y206891D01*
X8666Y206579D01*
X10000Y206474D01*
X10002Y206474D01*
Y164493D01*
X6765Y164486D01*
X6535Y164431D01*
X6387Y164370D01*
Y207296D01*
G37*
G36*
Y87302D02*X6808Y86808D01*
X7347Y86348D01*
X7915Y86000D01*
X6387D01*
Y87302D01*
G37*
G36*
X10002Y94514D02*X10000Y94514D01*
X9294Y94458D01*
X8605Y94293D01*
X7951Y94022D01*
X7347Y93652D01*
X6808Y93192D01*
X6387Y92698D01*
Y97849D01*
X6460Y97837D01*
X6579Y97836D01*
X6696Y97854D01*
X6809Y97890D01*
X6915Y97943D01*
X7012Y98012D01*
X7096Y98095D01*
X7167Y98191D01*
X7221Y98296D01*
X7259Y98408D01*
X7278Y98525D01*
X7279Y98644D01*
X7261Y98761D01*
X7223Y98874D01*
X7124Y99145D01*
X7056Y99425D01*
X7014Y99711D01*
X7000Y100000D01*
X7014Y100289D01*
X7056Y100575D01*
X7124Y100855D01*
X7220Y101128D01*
X7258Y101239D01*
X7275Y101356D01*
X7275Y101474D01*
X7255Y101591D01*
X7218Y101703D01*
X7164Y101807D01*
X7094Y101902D01*
X7009Y101985D01*
X6913Y102054D01*
X6808Y102107D01*
X6695Y102143D01*
X6579Y102160D01*
X6461Y102159D01*
X6387Y102147D01*
Y107849D01*
X6460Y107837D01*
X6579Y107836D01*
X6696Y107854D01*
X6809Y107890D01*
X6915Y107943D01*
X7012Y108012D01*
X7096Y108095D01*
X7167Y108191D01*
X7221Y108296D01*
X7259Y108408D01*
X7278Y108525D01*
X7279Y108644D01*
X7261Y108761D01*
X7223Y108874D01*
X7124Y109145D01*
X7056Y109425D01*
X7014Y109711D01*
X7000Y110000D01*
X7014Y110289D01*
X7056Y110575D01*
X7124Y110855D01*
X7220Y111128D01*
X7258Y111239D01*
X7275Y111356D01*
X7275Y111474D01*
X7255Y111591D01*
X7218Y111703D01*
X7164Y111807D01*
X7094Y111902D01*
X7009Y111985D01*
X6913Y112054D01*
X6808Y112107D01*
X6695Y112143D01*
X6579Y112160D01*
X6461Y112159D01*
X6387Y112147D01*
Y117302D01*
X6808Y116808D01*
X7347Y116348D01*
X7951Y115978D01*
X8605Y115707D01*
X9294Y115542D01*
X10000Y115486D01*
X10002Y115486D01*
Y114505D01*
X10000Y114505D01*
X9567Y114484D01*
X9137Y114422D01*
X8716Y114318D01*
X8306Y114175D01*
X8200Y114122D01*
X8104Y114053D01*
X8019Y113970D01*
X7949Y113875D01*
X7894Y113769D01*
X7857Y113657D01*
X7837Y113540D01*
X7836Y113421D01*
X7854Y113304D01*
X7890Y113191D01*
X7943Y113085D01*
X8012Y112988D01*
X8095Y112904D01*
X8191Y112833D01*
X8296Y112779D01*
X8408Y112741D01*
X8525Y112722D01*
X8644Y112721D01*
X8761Y112739D01*
X8874Y112777D01*
X9145Y112876D01*
X9425Y112944D01*
X9711Y112986D01*
X10000Y113000D01*
X10002Y113000D01*
Y107000D01*
X10000Y107000D01*
X9711Y107014D01*
X9425Y107056D01*
X9145Y107124D01*
X8872Y107220D01*
X8761Y107258D01*
X8644Y107275D01*
X8526Y107275D01*
X8409Y107255D01*
X8297Y107218D01*
X8193Y107164D01*
X8098Y107094D01*
X8015Y107009D01*
X7946Y106913D01*
X7893Y106808D01*
X7857Y106695D01*
X7840Y106579D01*
X7841Y106461D01*
X7860Y106344D01*
X7897Y106232D01*
X7952Y106127D01*
X8022Y106032D01*
X8106Y105949D01*
X8202Y105881D01*
X8308Y105830D01*
X8716Y105682D01*
X9137Y105578D01*
X9567Y105516D01*
X10000Y105495D01*
X10002Y105495D01*
Y104505D01*
X10000Y104505D01*
X9567Y104484D01*
X9137Y104422D01*
X8716Y104318D01*
X8306Y104175D01*
X8200Y104122D01*
X8104Y104053D01*
X8019Y103970D01*
X7949Y103875D01*
X7894Y103769D01*
X7857Y103657D01*
X7837Y103540D01*
X7836Y103421D01*
X7854Y103304D01*
X7890Y103191D01*
X7943Y103085D01*
X8012Y102988D01*
X8095Y102904D01*
X8191Y102833D01*
X8296Y102779D01*
X8408Y102741D01*
X8525Y102722D01*
X8644Y102721D01*
X8761Y102739D01*
X8874Y102777D01*
X9145Y102876D01*
X9425Y102944D01*
X9711Y102986D01*
X10000Y103000D01*
X10002Y103000D01*
Y97000D01*
X10000Y97000D01*
X9711Y97014D01*
X9425Y97056D01*
X9145Y97124D01*
X8872Y97220D01*
X8761Y97258D01*
X8644Y97275D01*
X8526Y97275D01*
X8409Y97255D01*
X8297Y97218D01*
X8193Y97164D01*
X8098Y97094D01*
X8015Y97009D01*
X7946Y96913D01*
X7893Y96808D01*
X7857Y96695D01*
X7840Y96579D01*
X7841Y96461D01*
X7860Y96344D01*
X7897Y96232D01*
X7952Y96127D01*
X8022Y96032D01*
X8106Y95949D01*
X8202Y95881D01*
X8308Y95830D01*
X8716Y95682D01*
X9137Y95578D01*
X9567Y95516D01*
X10000Y95495D01*
X10002Y95495D01*
Y94514D01*
G37*
G36*
X6387Y92698D02*X6348Y92653D01*
X5978Y92049D01*
X5707Y91395D01*
X5542Y90706D01*
X5486Y90000D01*
X5542Y89294D01*
X5707Y88605D01*
X5978Y87951D01*
X6348Y87347D01*
X6387Y87302D01*
Y86000D01*
X4000D01*
Y208946D01*
X4988Y208102D01*
X6129Y207403D01*
X6387Y207296D01*
Y164370D01*
X6317Y164341D01*
X6116Y164217D01*
X5936Y164064D01*
X5783Y163884D01*
X5659Y163683D01*
X5569Y163465D01*
X5514Y163235D01*
X5500Y163000D01*
X5514Y156765D01*
X5569Y156535D01*
X5659Y156317D01*
X5783Y156116D01*
X5936Y155936D01*
X6116Y155783D01*
X6317Y155659D01*
X6387Y155630D01*
Y152698D01*
X6348Y152653D01*
X5978Y152049D01*
X5707Y151395D01*
X5542Y150706D01*
X5486Y150000D01*
X5542Y149294D01*
X5707Y148605D01*
X5978Y147951D01*
X6348Y147347D01*
X6387Y147302D01*
Y142698D01*
X6348Y142653D01*
X5978Y142049D01*
X5707Y141395D01*
X5542Y140706D01*
X5486Y140000D01*
X5542Y139294D01*
X5707Y138605D01*
X5978Y137951D01*
X6348Y137347D01*
X6387Y137302D01*
Y132698D01*
X6348Y132653D01*
X5978Y132049D01*
X5707Y131395D01*
X5542Y130706D01*
X5486Y130000D01*
X5542Y129294D01*
X5707Y128605D01*
X5978Y127951D01*
X6348Y127347D01*
X6387Y127302D01*
Y122698D01*
X6348Y122653D01*
X5978Y122049D01*
X5707Y121395D01*
X5542Y120706D01*
X5486Y120000D01*
X5542Y119294D01*
X5707Y118605D01*
X5978Y117951D01*
X6348Y117347D01*
X6387Y117302D01*
Y112147D01*
X6344Y112140D01*
X6232Y112103D01*
X6127Y112048D01*
X6032Y111978D01*
X5949Y111894D01*
X5881Y111798D01*
X5830Y111692D01*
X5682Y111284D01*
X5578Y110863D01*
X5516Y110433D01*
X5495Y110000D01*
X5516Y109567D01*
X5578Y109137D01*
X5682Y108716D01*
X5825Y108306D01*
X5878Y108200D01*
X5947Y108104D01*
X6030Y108019D01*
X6125Y107949D01*
X6231Y107894D01*
X6343Y107857D01*
X6387Y107849D01*
Y102147D01*
X6344Y102140D01*
X6232Y102103D01*
X6127Y102048D01*
X6032Y101978D01*
X5949Y101894D01*
X5881Y101798D01*
X5830Y101692D01*
X5682Y101284D01*
X5578Y100863D01*
X5516Y100433D01*
X5495Y100000D01*
X5516Y99567D01*
X5578Y99137D01*
X5682Y98716D01*
X5825Y98306D01*
X5878Y98200D01*
X5947Y98104D01*
X6030Y98019D01*
X6125Y97949D01*
X6231Y97894D01*
X6343Y97857D01*
X6387Y97849D01*
Y92698D01*
G37*
G36*
X200000Y45486D02*X200706Y45542D01*
X201395Y45707D01*
X202049Y45978D01*
X202653Y46348D01*
X203192Y46808D01*
X203652Y47347D01*
X204022Y47951D01*
X204293Y48605D01*
X204458Y49294D01*
X204500Y50000D01*
X204458Y50706D01*
X204293Y51395D01*
X204022Y52049D01*
X203652Y52653D01*
X203192Y53192D01*
X202653Y53652D01*
X202049Y54022D01*
X201395Y54293D01*
X200706Y54458D01*
X200000Y54514D01*
Y55486D01*
X200706Y55542D01*
X201395Y55707D01*
X202049Y55978D01*
X202653Y56348D01*
X203192Y56808D01*
X203652Y57347D01*
X204022Y57951D01*
X204293Y58605D01*
X204458Y59294D01*
X204500Y60000D01*
X204458Y60706D01*
X204293Y61395D01*
X204022Y62049D01*
X203652Y62653D01*
X203192Y63192D01*
X202653Y63652D01*
X202049Y64022D01*
X201395Y64293D01*
X200706Y64458D01*
X200000Y64514D01*
Y65486D01*
X200706Y65542D01*
X201395Y65707D01*
X202049Y65978D01*
X202653Y66348D01*
X203192Y66808D01*
X203652Y67347D01*
X204022Y67951D01*
X204293Y68605D01*
X204458Y69294D01*
X204500Y70000D01*
X204458Y70706D01*
X204293Y71395D01*
X204022Y72049D01*
X203652Y72653D01*
X203192Y73192D01*
X202653Y73652D01*
X202049Y74022D01*
X201395Y74293D01*
X200706Y74458D01*
X200000Y74514D01*
Y75486D01*
X200706Y75542D01*
X201395Y75707D01*
X202049Y75978D01*
X202653Y76348D01*
X203192Y76808D01*
X203652Y77347D01*
X204022Y77951D01*
X204293Y78605D01*
X204458Y79294D01*
X204500Y80000D01*
X204458Y80706D01*
X204293Y81395D01*
X204022Y82049D01*
X203652Y82653D01*
X203192Y83192D01*
X202653Y83652D01*
X202049Y84022D01*
X201395Y84293D01*
X200706Y84458D01*
X200000Y84514D01*
Y85486D01*
X200706Y85542D01*
X201395Y85707D01*
X202049Y85978D01*
X202653Y86348D01*
X203192Y86808D01*
X203652Y87347D01*
X204022Y87951D01*
X204293Y88605D01*
X204458Y89294D01*
X204500Y90000D01*
X204458Y90706D01*
X204293Y91395D01*
X204022Y92049D01*
X203652Y92653D01*
X203192Y93192D01*
X202653Y93652D01*
X202049Y94022D01*
X201395Y94293D01*
X200706Y94458D01*
X200000Y94514D01*
Y101486D01*
X200706Y101542D01*
X201395Y101707D01*
X202049Y101978D01*
X202653Y102348D01*
X203192Y102808D01*
X203652Y103347D01*
X204022Y103951D01*
X204293Y104605D01*
X204458Y105294D01*
X204500Y106000D01*
X204458Y106706D01*
X204293Y107395D01*
X204022Y108049D01*
X203652Y108653D01*
X203192Y109192D01*
X202653Y109652D01*
X202049Y110022D01*
X201395Y110293D01*
X200706Y110458D01*
X200000Y110514D01*
Y111486D01*
X200706Y111542D01*
X201395Y111707D01*
X202049Y111978D01*
X202653Y112348D01*
X203192Y112808D01*
X203652Y113347D01*
X204022Y113951D01*
X204042Y114000D01*
X207000D01*
Y14000D01*
X200000D01*
Y15507D01*
X203235Y15514D01*
X203465Y15569D01*
X203683Y15659D01*
X203884Y15783D01*
X204064Y15936D01*
X204217Y16116D01*
X204341Y16317D01*
X204431Y16535D01*
X204486Y16765D01*
X204500Y17000D01*
X204486Y23235D01*
X204431Y23465D01*
X204341Y23683D01*
X204217Y23884D01*
X204064Y24064D01*
X203884Y24217D01*
X203683Y24341D01*
X203465Y24431D01*
X203235Y24486D01*
X203000Y24500D01*
X200000Y24493D01*
Y25486D01*
X200706Y25542D01*
X201395Y25707D01*
X202049Y25978D01*
X202653Y26348D01*
X203192Y26808D01*
X203652Y27347D01*
X204022Y27951D01*
X204293Y28605D01*
X204458Y29294D01*
X204500Y30000D01*
X204458Y30706D01*
X204293Y31395D01*
X204022Y32049D01*
X203652Y32653D01*
X203192Y33192D01*
X202653Y33652D01*
X202049Y34022D01*
X201395Y34293D01*
X200706Y34458D01*
X200000Y34514D01*
Y35486D01*
X200706Y35542D01*
X201395Y35707D01*
X202049Y35978D01*
X202653Y36348D01*
X203192Y36808D01*
X203652Y37347D01*
X204022Y37951D01*
X204293Y38605D01*
X204458Y39294D01*
X204500Y40000D01*
X204458Y40706D01*
X204293Y41395D01*
X204022Y42049D01*
X203652Y42653D01*
X203192Y43192D01*
X202653Y43652D01*
X202049Y44022D01*
X201395Y44293D01*
X200706Y44458D01*
X200000Y44514D01*
Y45486D01*
G37*
G36*
Y110514D02*X199294Y110458D01*
X198605Y110293D01*
X197951Y110022D01*
X197347Y109652D01*
X196808Y109192D01*
X196348Y108653D01*
X195978Y108049D01*
X195707Y107395D01*
X195542Y106706D01*
X195500Y106176D01*
Y114000D01*
X195958D01*
X195978Y113951D01*
X196348Y113347D01*
X196808Y112808D01*
X197347Y112348D01*
X197951Y111978D01*
X198605Y111707D01*
X199294Y111542D01*
X200000Y111486D01*
Y110514D01*
G37*
G36*
Y94514D02*X199294Y94458D01*
X198605Y94293D01*
X197951Y94022D01*
X197347Y93652D01*
X196808Y93192D01*
X196348Y92653D01*
X195978Y92049D01*
X195707Y91395D01*
X195542Y90706D01*
X195500Y90176D01*
Y105824D01*
X195542Y105294D01*
X195707Y104605D01*
X195978Y103951D01*
X196348Y103347D01*
X196808Y102808D01*
X197347Y102348D01*
X197951Y101978D01*
X198605Y101707D01*
X199294Y101542D01*
X200000Y101486D01*
Y94514D01*
G37*
G36*
Y84514D02*X199294Y84458D01*
X198605Y84293D01*
X197951Y84022D01*
X197347Y83652D01*
X196808Y83192D01*
X196348Y82653D01*
X195978Y82049D01*
X195707Y81395D01*
X195542Y80706D01*
X195500Y80176D01*
Y89824D01*
X195542Y89294D01*
X195707Y88605D01*
X195978Y87951D01*
X196348Y87347D01*
X196808Y86808D01*
X197347Y86348D01*
X197951Y85978D01*
X198605Y85707D01*
X199294Y85542D01*
X200000Y85486D01*
Y84514D01*
G37*
G36*
Y74514D02*X199294Y74458D01*
X198605Y74293D01*
X197951Y74022D01*
X197347Y73652D01*
X196808Y73192D01*
X196348Y72653D01*
X196014Y72108D01*
X195500Y72621D01*
Y79824D01*
X195542Y79294D01*
X195707Y78605D01*
X195978Y77951D01*
X196348Y77347D01*
X196808Y76808D01*
X197347Y76348D01*
X197951Y75978D01*
X198605Y75707D01*
X199294Y75542D01*
X200000Y75486D01*
Y74514D01*
G37*
G36*
Y64514D02*X199294Y64458D01*
X198605Y64293D01*
X197951Y64022D01*
X197347Y63652D01*
X196808Y63192D01*
X196348Y62653D01*
X195978Y62049D01*
X195751Y61500D01*
X192621D01*
X191500Y62621D01*
Y114000D01*
X192500D01*
Y72059D01*
X192495Y72000D01*
X192514Y71765D01*
X192569Y71535D01*
X192659Y71317D01*
X192783Y71116D01*
X192783Y71115D01*
X192936Y70936D01*
X192981Y70898D01*
X194898Y68981D01*
X194936Y68936D01*
X195115Y68783D01*
X195116Y68783D01*
X195317Y68659D01*
X195535Y68569D01*
X195743Y68519D01*
X195978Y67951D01*
X196348Y67347D01*
X196808Y66808D01*
X197347Y66348D01*
X197951Y65978D01*
X198605Y65707D01*
X199294Y65542D01*
X200000Y65486D01*
Y64514D01*
G37*
G36*
Y54514D02*X199294Y54458D01*
X198605Y54293D01*
X197951Y54022D01*
X197347Y53652D01*
X196808Y53192D01*
X196348Y52653D01*
X195978Y52049D01*
X195751Y51500D01*
X190621D01*
X188500Y53621D01*
Y61941D01*
X188514Y61765D01*
X188569Y61535D01*
X188659Y61317D01*
X188783Y61116D01*
X188783Y61115D01*
X188936Y60936D01*
X188981Y60898D01*
X190898Y58981D01*
X190936Y58936D01*
X191116Y58783D01*
X191317Y58659D01*
X191535Y58569D01*
X191765Y58514D01*
X192000Y58495D01*
X192059Y58500D01*
X195751D01*
X195978Y57951D01*
X196348Y57347D01*
X196808Y56808D01*
X197347Y56348D01*
X197951Y55978D01*
X198605Y55707D01*
X199294Y55542D01*
X200000Y55486D01*
Y54514D01*
G37*
G36*
X174492Y114000D02*X185500D01*
Y53059D01*
X185495Y53000D01*
X185514Y52765D01*
X185569Y52535D01*
X185659Y52317D01*
X185783Y52116D01*
X185936Y51936D01*
X185981Y51898D01*
X188898Y48981D01*
X188936Y48936D01*
X189116Y48783D01*
X189317Y48659D01*
X189535Y48569D01*
X189765Y48514D01*
X190000Y48495D01*
X190059Y48500D01*
X195751D01*
X195978Y47951D01*
X196348Y47347D01*
X196808Y46808D01*
X197347Y46348D01*
X197951Y45978D01*
X198605Y45707D01*
X199294Y45542D01*
X200000Y45486D01*
Y44514D01*
X199294Y44458D01*
X198605Y44293D01*
X197951Y44022D01*
X197347Y43652D01*
X196808Y43192D01*
X196348Y42653D01*
X195978Y42049D01*
X195707Y41395D01*
X195542Y40706D01*
X195486Y40000D01*
X195542Y39294D01*
X195707Y38605D01*
X195978Y37951D01*
X196348Y37347D01*
X196808Y36808D01*
X197347Y36348D01*
X197951Y35978D01*
X198605Y35707D01*
X199294Y35542D01*
X200000Y35486D01*
Y34514D01*
X199294Y34458D01*
X198605Y34293D01*
X197951Y34022D01*
X197347Y33652D01*
X196808Y33192D01*
X196348Y32653D01*
X195978Y32049D01*
X195707Y31395D01*
X195542Y30706D01*
X195486Y30000D01*
X195542Y29294D01*
X195707Y28605D01*
X195978Y27951D01*
X196348Y27347D01*
X196808Y26808D01*
X197347Y26348D01*
X197951Y25978D01*
X198605Y25707D01*
X199294Y25542D01*
X200000Y25486D01*
Y24493D01*
X196765Y24486D01*
X196535Y24431D01*
X196317Y24341D01*
X196116Y24217D01*
X195936Y24064D01*
X195783Y23884D01*
X195659Y23683D01*
X195569Y23465D01*
X195514Y23235D01*
X195500Y23000D01*
X195514Y16765D01*
X195569Y16535D01*
X195659Y16317D01*
X195783Y16116D01*
X195936Y15936D01*
X196116Y15783D01*
X196317Y15659D01*
X196535Y15569D01*
X196765Y15514D01*
X197000Y15500D01*
X200000Y15507D01*
Y14000D01*
X174492D01*
Y30984D01*
X174500Y30983D01*
X175363Y31051D01*
X176205Y31253D01*
X177005Y31584D01*
X177743Y32037D01*
X178401Y32599D01*
X178963Y33257D01*
X179416Y33995D01*
X179747Y34795D01*
X179949Y35637D01*
X180000Y36500D01*
X179949Y37363D01*
X179747Y38205D01*
X179416Y39005D01*
X178963Y39743D01*
X178401Y40401D01*
X177743Y40963D01*
X177005Y41416D01*
X176205Y41747D01*
X175363Y41949D01*
X174500Y42017D01*
X174492Y42016D01*
Y114000D01*
G37*
G36*
X160993D02*X172882D01*
X173000Y113991D01*
X173118Y114000D01*
X174492D01*
Y42016D01*
X173637Y41949D01*
X172795Y41747D01*
X171995Y41416D01*
X171257Y40963D01*
X170599Y40401D01*
X170037Y39743D01*
X169584Y39005D01*
X169253Y38205D01*
X169051Y37363D01*
X168983Y36500D01*
X169051Y35637D01*
X169253Y34795D01*
X169584Y33995D01*
X170037Y33257D01*
X170599Y32599D01*
X171257Y32037D01*
X171995Y31584D01*
X172795Y31253D01*
X173637Y31051D01*
X174492Y30984D01*
Y14000D01*
X160993D01*
Y57487D01*
X161000Y57486D01*
X161706Y57542D01*
X162395Y57707D01*
X163049Y57978D01*
X163653Y58348D01*
X164192Y58808D01*
X164652Y59347D01*
X165022Y59951D01*
X165293Y60605D01*
X165458Y61294D01*
X165500Y62000D01*
X165458Y62706D01*
X165293Y63395D01*
X165022Y64049D01*
X164652Y64653D01*
X164192Y65192D01*
X163653Y65652D01*
X163049Y66022D01*
X162395Y66293D01*
X161706Y66458D01*
X161000Y66514D01*
X160993Y66513D01*
Y114000D01*
G37*
G36*
X154500D02*X160993D01*
Y66513D01*
X160294Y66458D01*
X159605Y66293D01*
X158951Y66022D01*
X158347Y65652D01*
X157808Y65192D01*
X157348Y64653D01*
X156978Y64049D01*
X156707Y63395D01*
X156542Y62706D01*
X156486Y62000D01*
X156542Y61294D01*
X156707Y60605D01*
X156978Y59951D01*
X157348Y59347D01*
X157808Y58808D01*
X158347Y58348D01*
X158951Y57978D01*
X159605Y57707D01*
X160294Y57542D01*
X160993Y57487D01*
Y14000D01*
X154500D01*
Y31007D01*
X158735Y31014D01*
X158965Y31069D01*
X159183Y31159D01*
X159384Y31283D01*
X159564Y31436D01*
X159717Y31616D01*
X159841Y31817D01*
X159931Y32035D01*
X159986Y32265D01*
X160000Y32500D01*
X159986Y40735D01*
X159931Y40965D01*
X159841Y41183D01*
X159717Y41384D01*
X159564Y41564D01*
X159384Y41717D01*
X159183Y41841D01*
X158965Y41931D01*
X158735Y41986D01*
X158500Y42000D01*
X154500Y41993D01*
Y57584D01*
X154683Y57659D01*
X154884Y57783D01*
X155064Y57936D01*
X155217Y58116D01*
X155341Y58317D01*
X155431Y58535D01*
X155486Y58765D01*
X155500Y59000D01*
X155486Y65235D01*
X155431Y65465D01*
X155341Y65683D01*
X155217Y65884D01*
X155064Y66064D01*
X154884Y66217D01*
X154683Y66341D01*
X154500Y66416D01*
Y114000D01*
G37*
G36*
X134492Y110387D02*X136898Y107981D01*
X136936Y107936D01*
X137116Y107783D01*
X137317Y107659D01*
X137535Y107569D01*
X137765Y107514D01*
X138000Y107495D01*
X138059Y107500D01*
X143941D01*
X144000Y107495D01*
X144235Y107514D01*
X144235Y107514D01*
X144465Y107569D01*
X144683Y107659D01*
X144884Y107783D01*
X145064Y107936D01*
X145102Y107981D01*
X147019Y109898D01*
X147064Y109936D01*
X147217Y110115D01*
X147217Y110116D01*
X147341Y110317D01*
X147431Y110535D01*
X147486Y110765D01*
X147505Y111000D01*
X147500Y111059D01*
Y111401D01*
X147769Y111565D01*
X148128Y111872D01*
X148435Y112231D01*
X148681Y112634D01*
X148862Y113070D01*
X148972Y113529D01*
X149000Y114000D01*
X154500D01*
Y66416D01*
X154465Y66431D01*
X154235Y66486D01*
X154000Y66500D01*
X147765Y66486D01*
X147535Y66431D01*
X147317Y66341D01*
X147116Y66217D01*
X146936Y66064D01*
X146783Y65884D01*
X146659Y65683D01*
X146569Y65465D01*
X146514Y65235D01*
X146500Y65000D01*
X146514Y58765D01*
X146569Y58535D01*
X146659Y58317D01*
X146783Y58116D01*
X146936Y57936D01*
X147116Y57783D01*
X147317Y57659D01*
X147535Y57569D01*
X147765Y57514D01*
X148000Y57500D01*
X154235Y57514D01*
X154465Y57569D01*
X154500Y57584D01*
Y41993D01*
X150265Y41986D01*
X150035Y41931D01*
X149817Y41841D01*
X149616Y41717D01*
X149436Y41564D01*
X149283Y41384D01*
X149159Y41183D01*
X149069Y40965D01*
X149014Y40735D01*
X149000Y40500D01*
X149014Y32265D01*
X149069Y32035D01*
X149159Y31817D01*
X149283Y31616D01*
X149436Y31436D01*
X149616Y31283D01*
X149817Y31159D01*
X150035Y31069D01*
X150265Y31014D01*
X150500Y31000D01*
X154500Y31007D01*
Y14000D01*
X147518D01*
X146898Y15012D01*
X146029Y16029D01*
X145012Y16898D01*
X143871Y17597D01*
X142635Y18109D01*
X141334Y18421D01*
X140000Y18526D01*
X138666Y18421D01*
X137365Y18109D01*
X136129Y17597D01*
X134988Y16898D01*
X134492Y16473D01*
Y30984D01*
X134500Y30983D01*
X135363Y31051D01*
X136205Y31253D01*
X137005Y31584D01*
X137743Y32037D01*
X138401Y32599D01*
X138963Y33257D01*
X139416Y33995D01*
X139747Y34795D01*
X139949Y35637D01*
X140000Y36500D01*
X139949Y37363D01*
X139747Y38205D01*
X139416Y39005D01*
X138963Y39743D01*
X138401Y40401D01*
X137743Y40963D01*
X137005Y41416D01*
X136205Y41747D01*
X135363Y41949D01*
X134500Y42017D01*
X134492Y42016D01*
Y110387D01*
G37*
G36*
X120993Y112500D02*X132379D01*
X134492Y110387D01*
Y42016D01*
X133637Y41949D01*
X132795Y41747D01*
X131995Y41416D01*
X131257Y40963D01*
X130599Y40401D01*
X130037Y39743D01*
X129584Y39005D01*
X129253Y38205D01*
X129051Y37363D01*
X128983Y36500D01*
X129051Y35637D01*
X129253Y34795D01*
X129584Y33995D01*
X130037Y33257D01*
X130599Y32599D01*
X131257Y32037D01*
X131995Y31584D01*
X132795Y31253D01*
X133637Y31051D01*
X134492Y30984D01*
Y16473D01*
X133971Y16029D01*
X133102Y15012D01*
X132482Y14000D01*
X120993D01*
Y57487D01*
X121000Y57486D01*
X121706Y57542D01*
X122395Y57707D01*
X123049Y57978D01*
X123653Y58348D01*
X124192Y58808D01*
X124652Y59347D01*
X125022Y59951D01*
X125293Y60605D01*
X125458Y61294D01*
X125500Y62000D01*
X125458Y62706D01*
X125293Y63395D01*
X125022Y64049D01*
X124652Y64653D01*
X124192Y65192D01*
X123653Y65652D01*
X123049Y66022D01*
X122395Y66293D01*
X121706Y66458D01*
X121000Y66514D01*
X120993Y66513D01*
Y112500D01*
G37*
G36*
X114500D02*X120993D01*
Y66513D01*
X120294Y66458D01*
X119605Y66293D01*
X118951Y66022D01*
X118347Y65652D01*
X117808Y65192D01*
X117348Y64653D01*
X116978Y64049D01*
X116707Y63395D01*
X116542Y62706D01*
X116486Y62000D01*
X116542Y61294D01*
X116707Y60605D01*
X116978Y59951D01*
X117348Y59347D01*
X117808Y58808D01*
X118347Y58348D01*
X118951Y57978D01*
X119605Y57707D01*
X120294Y57542D01*
X120993Y57487D01*
Y14000D01*
X114500D01*
Y31007D01*
X118735Y31014D01*
X118965Y31069D01*
X119183Y31159D01*
X119384Y31283D01*
X119564Y31436D01*
X119717Y31616D01*
X119841Y31817D01*
X119931Y32035D01*
X119986Y32265D01*
X120000Y32500D01*
X119986Y40735D01*
X119931Y40965D01*
X119841Y41183D01*
X119717Y41384D01*
X119564Y41564D01*
X119384Y41717D01*
X119183Y41841D01*
X118965Y41931D01*
X118735Y41986D01*
X118500Y42000D01*
X114500Y41993D01*
Y57584D01*
X114683Y57659D01*
X114884Y57783D01*
X115064Y57936D01*
X115217Y58116D01*
X115341Y58317D01*
X115431Y58535D01*
X115486Y58765D01*
X115500Y59000D01*
X115486Y65235D01*
X115431Y65465D01*
X115341Y65683D01*
X115217Y65884D01*
X115064Y66064D01*
X114884Y66217D01*
X114683Y66341D01*
X114500Y66416D01*
Y112500D01*
G37*
G36*
X94492Y110500D02*X108941D01*
X109000Y110495D01*
X109235Y110514D01*
X109235Y110514D01*
X109465Y110569D01*
X109683Y110659D01*
X109884Y110783D01*
X110064Y110936D01*
X110102Y110981D01*
X111621Y112500D01*
X114500D01*
Y66416D01*
X114465Y66431D01*
X114235Y66486D01*
X114000Y66500D01*
X107765Y66486D01*
X107535Y66431D01*
X107317Y66341D01*
X107116Y66217D01*
X106936Y66064D01*
X106783Y65884D01*
X106659Y65683D01*
X106569Y65465D01*
X106514Y65235D01*
X106500Y65000D01*
X106514Y58765D01*
X106569Y58535D01*
X106659Y58317D01*
X106783Y58116D01*
X106936Y57936D01*
X107116Y57783D01*
X107317Y57659D01*
X107535Y57569D01*
X107765Y57514D01*
X108000Y57500D01*
X114235Y57514D01*
X114465Y57569D01*
X114500Y57584D01*
Y41993D01*
X110265Y41986D01*
X110035Y41931D01*
X109817Y41841D01*
X109616Y41717D01*
X109436Y41564D01*
X109283Y41384D01*
X109159Y41183D01*
X109069Y40965D01*
X109014Y40735D01*
X109000Y40500D01*
X109014Y32265D01*
X109069Y32035D01*
X109159Y31817D01*
X109283Y31616D01*
X109436Y31436D01*
X109616Y31283D01*
X109817Y31159D01*
X110035Y31069D01*
X110265Y31014D01*
X110500Y31000D01*
X114500Y31007D01*
Y14000D01*
X94492D01*
Y30984D01*
X94500Y30983D01*
X95363Y31051D01*
X96205Y31253D01*
X97005Y31584D01*
X97743Y32037D01*
X98401Y32599D01*
X98963Y33257D01*
X99416Y33995D01*
X99747Y34795D01*
X99949Y35637D01*
X100000Y36500D01*
X99949Y37363D01*
X99747Y38205D01*
X99416Y39005D01*
X98963Y39743D01*
X98401Y40401D01*
X97743Y40963D01*
X97005Y41416D01*
X96205Y41747D01*
X95363Y41949D01*
X94500Y42017D01*
X94492Y42016D01*
Y110500D01*
G37*
G36*
X89613Y33948D02*X90037Y33257D01*
X90599Y32599D01*
X91257Y32037D01*
X91995Y31584D01*
X92795Y31253D01*
X93637Y31051D01*
X94492Y30984D01*
Y14000D01*
X89613D01*
Y33948D01*
G37*
G36*
Y110500D02*X94492D01*
Y42016D01*
X93637Y41949D01*
X92795Y41747D01*
X91995Y41416D01*
X91257Y40963D01*
X90599Y40401D01*
X90037Y39743D01*
X89613Y39052D01*
Y104853D01*
X89656Y104860D01*
X89768Y104897D01*
X89873Y104952D01*
X89968Y105022D01*
X90051Y105106D01*
X90119Y105202D01*
X90170Y105308D01*
X90318Y105716D01*
X90422Y106137D01*
X90484Y106567D01*
X90505Y107000D01*
X90484Y107433D01*
X90422Y107863D01*
X90318Y108284D01*
X90175Y108694D01*
X90122Y108800D01*
X90053Y108896D01*
X89970Y108981D01*
X89875Y109051D01*
X89769Y109106D01*
X89657Y109143D01*
X89613Y109151D01*
Y110500D01*
G37*
G36*
X86002Y110000D02*X86289Y109986D01*
X86575Y109944D01*
X86855Y109876D01*
X87128Y109780D01*
X87239Y109742D01*
X87356Y109725D01*
X87474Y109725D01*
X87591Y109745D01*
X87703Y109782D01*
X87807Y109836D01*
X87902Y109906D01*
X87985Y109991D01*
X88054Y110087D01*
X88107Y110192D01*
X88143Y110305D01*
X88160Y110421D01*
X88160Y110500D01*
X89613D01*
Y109151D01*
X89540Y109163D01*
X89421Y109164D01*
X89304Y109146D01*
X89191Y109110D01*
X89085Y109057D01*
X88988Y108988D01*
X88904Y108905D01*
X88833Y108809D01*
X88779Y108704D01*
X88741Y108592D01*
X88722Y108475D01*
X88721Y108356D01*
X88739Y108239D01*
X88777Y108126D01*
X88876Y107855D01*
X88944Y107575D01*
X88986Y107289D01*
X89000Y107000D01*
X88986Y106711D01*
X88944Y106425D01*
X88876Y106145D01*
X88780Y105872D01*
X88742Y105761D01*
X88725Y105644D01*
X88725Y105526D01*
X88745Y105409D01*
X88782Y105297D01*
X88836Y105193D01*
X88906Y105098D01*
X88991Y105015D01*
X89087Y104946D01*
X89192Y104893D01*
X89305Y104857D01*
X89421Y104840D01*
X89539Y104841D01*
X89613Y104853D01*
Y39052D01*
X89584Y39005D01*
X89253Y38205D01*
X89051Y37363D01*
X88983Y36500D01*
X89051Y35637D01*
X89253Y34795D01*
X89584Y33995D01*
X89613Y33948D01*
Y14000D01*
X86002D01*
Y102495D01*
X86433Y102516D01*
X86863Y102578D01*
X87284Y102682D01*
X87694Y102825D01*
X87800Y102878D01*
X87896Y102947D01*
X87981Y103030D01*
X88051Y103125D01*
X88106Y103231D01*
X88143Y103343D01*
X88163Y103460D01*
X88164Y103579D01*
X88146Y103696D01*
X88110Y103809D01*
X88057Y103915D01*
X87988Y104012D01*
X87905Y104096D01*
X87809Y104167D01*
X87704Y104221D01*
X87592Y104259D01*
X87475Y104278D01*
X87356Y104279D01*
X87239Y104261D01*
X87126Y104223D01*
X86855Y104124D01*
X86575Y104056D01*
X86289Y104014D01*
X86002Y104000D01*
Y110000D01*
G37*
G36*
X82387Y110500D02*X83837D01*
X83836Y110421D01*
X83854Y110304D01*
X83890Y110191D01*
X83943Y110085D01*
X84012Y109988D01*
X84095Y109904D01*
X84191Y109833D01*
X84296Y109779D01*
X84408Y109741D01*
X84525Y109722D01*
X84644Y109721D01*
X84761Y109739D01*
X84874Y109777D01*
X85145Y109876D01*
X85425Y109944D01*
X85711Y109986D01*
X86000Y110000D01*
X86002Y110000D01*
Y104000D01*
X86000Y104000D01*
X85711Y104014D01*
X85425Y104056D01*
X85145Y104124D01*
X84872Y104220D01*
X84761Y104258D01*
X84644Y104275D01*
X84526Y104275D01*
X84409Y104255D01*
X84297Y104218D01*
X84193Y104164D01*
X84098Y104094D01*
X84015Y104009D01*
X83946Y103913D01*
X83893Y103808D01*
X83857Y103695D01*
X83840Y103579D01*
X83841Y103461D01*
X83860Y103344D01*
X83897Y103232D01*
X83952Y103127D01*
X84022Y103032D01*
X84106Y102949D01*
X84202Y102881D01*
X84308Y102830D01*
X84716Y102682D01*
X85137Y102578D01*
X85567Y102516D01*
X86000Y102495D01*
X86002Y102495D01*
Y14000D01*
X82387D01*
Y57705D01*
X82395Y57707D01*
X83049Y57978D01*
X83653Y58348D01*
X84192Y58808D01*
X84652Y59347D01*
X85022Y59951D01*
X85293Y60605D01*
X85458Y61294D01*
X85500Y62000D01*
X85458Y62706D01*
X85293Y63395D01*
X85022Y64049D01*
X84652Y64653D01*
X84192Y65192D01*
X83653Y65652D01*
X83049Y66022D01*
X82395Y66293D01*
X82387Y66295D01*
Y104849D01*
X82460Y104837D01*
X82579Y104836D01*
X82696Y104854D01*
X82809Y104890D01*
X82915Y104943D01*
X83012Y105012D01*
X83096Y105095D01*
X83167Y105191D01*
X83221Y105296D01*
X83259Y105408D01*
X83278Y105525D01*
X83279Y105644D01*
X83261Y105761D01*
X83223Y105874D01*
X83124Y106145D01*
X83056Y106425D01*
X83014Y106711D01*
X83000Y107000D01*
X83014Y107289D01*
X83056Y107575D01*
X83124Y107855D01*
X83220Y108128D01*
X83258Y108239D01*
X83275Y108356D01*
X83275Y108474D01*
X83255Y108591D01*
X83218Y108703D01*
X83164Y108807D01*
X83094Y108902D01*
X83009Y108985D01*
X82913Y109054D01*
X82808Y109107D01*
X82695Y109143D01*
X82579Y109160D01*
X82461Y109159D01*
X82387Y109147D01*
Y110500D01*
G37*
G36*
Y14000D02*X80993D01*
Y57487D01*
X81000Y57486D01*
X81706Y57542D01*
X82387Y57705D01*
Y14000D01*
G37*
G36*
X80993Y110500D02*X82387D01*
Y109147D01*
X82344Y109140D01*
X82232Y109103D01*
X82127Y109048D01*
X82032Y108978D01*
X81949Y108894D01*
X81881Y108798D01*
X81830Y108692D01*
X81682Y108284D01*
X81578Y107863D01*
X81516Y107433D01*
X81495Y107000D01*
X81516Y106567D01*
X81578Y106137D01*
X81682Y105716D01*
X81825Y105306D01*
X81878Y105200D01*
X81947Y105104D01*
X82030Y105019D01*
X82125Y104949D01*
X82231Y104894D01*
X82343Y104857D01*
X82387Y104849D01*
Y66295D01*
X81706Y66458D01*
X81000Y66514D01*
X80993Y66513D01*
Y110500D01*
G37*
G36*
X71000Y109167D02*X71366Y109319D01*
X71769Y109565D01*
X72128Y109872D01*
X72435Y110231D01*
X72599Y110500D01*
X77000D01*
X77000Y110500D01*
X80993D01*
Y66513D01*
X80294Y66458D01*
X79605Y66293D01*
X78951Y66022D01*
X78347Y65652D01*
X77808Y65192D01*
X77348Y64653D01*
X76978Y64049D01*
X76707Y63395D01*
X76542Y62706D01*
X76486Y62000D01*
X76542Y61294D01*
X76707Y60605D01*
X76978Y59951D01*
X77348Y59347D01*
X77808Y58808D01*
X78347Y58348D01*
X78951Y57978D01*
X79605Y57707D01*
X80294Y57542D01*
X80993Y57487D01*
Y14000D01*
X71000D01*
Y31001D01*
X78735Y31014D01*
X78965Y31069D01*
X79183Y31159D01*
X79384Y31283D01*
X79564Y31436D01*
X79717Y31616D01*
X79841Y31817D01*
X79931Y32035D01*
X79986Y32265D01*
X80000Y32500D01*
X79986Y40735D01*
X79931Y40965D01*
X79841Y41183D01*
X79717Y41384D01*
X79564Y41564D01*
X79384Y41717D01*
X79183Y41841D01*
X78965Y41931D01*
X78735Y41986D01*
X78500Y42000D01*
X71000Y41987D01*
Y57507D01*
X74235Y57514D01*
X74465Y57569D01*
X74683Y57659D01*
X74884Y57783D01*
X75064Y57936D01*
X75217Y58116D01*
X75341Y58317D01*
X75431Y58535D01*
X75486Y58765D01*
X75500Y59000D01*
X75486Y65235D01*
X75431Y65465D01*
X75341Y65683D01*
X75217Y65884D01*
X75064Y66064D01*
X74884Y66217D01*
X74683Y66341D01*
X74465Y66431D01*
X74235Y66486D01*
X74000Y66500D01*
X71000Y66493D01*
Y109167D01*
G37*
G36*
X54492Y114000D02*X65879D01*
X67101Y112777D01*
X67028Y112471D01*
X66991Y112000D01*
X67028Y111529D01*
X67138Y111070D01*
X67319Y110634D01*
X67565Y110231D01*
X67872Y109872D01*
X68231Y109565D01*
X68634Y109319D01*
X69070Y109138D01*
X69529Y109028D01*
X70000Y108991D01*
X70471Y109028D01*
X70930Y109138D01*
X71000Y109167D01*
Y66493D01*
X67765Y66486D01*
X67535Y66431D01*
X67317Y66341D01*
X67116Y66217D01*
X66936Y66064D01*
X66783Y65884D01*
X66659Y65683D01*
X66569Y65465D01*
X66514Y65235D01*
X66500Y65000D01*
X66514Y58765D01*
X66569Y58535D01*
X66659Y58317D01*
X66783Y58116D01*
X66936Y57936D01*
X67116Y57783D01*
X67317Y57659D01*
X67535Y57569D01*
X67765Y57514D01*
X68000Y57500D01*
X71000Y57507D01*
Y41987D01*
X70265Y41986D01*
X70035Y41931D01*
X69817Y41841D01*
X69616Y41717D01*
X69436Y41564D01*
X69283Y41384D01*
X69159Y41183D01*
X69069Y40965D01*
X69014Y40735D01*
X69000Y40500D01*
X69014Y32265D01*
X69069Y32035D01*
X69159Y31817D01*
X69283Y31616D01*
X69436Y31436D01*
X69616Y31283D01*
X69817Y31159D01*
X70035Y31069D01*
X70265Y31014D01*
X70500Y31000D01*
X71000Y31001D01*
Y14000D01*
X54492D01*
Y30984D01*
X54500Y30983D01*
X55363Y31051D01*
X56205Y31253D01*
X57005Y31584D01*
X57743Y32037D01*
X58401Y32599D01*
X58963Y33257D01*
X59416Y33995D01*
X59747Y34795D01*
X59949Y35637D01*
X60000Y36500D01*
X59949Y37363D01*
X59747Y38205D01*
X59416Y39005D01*
X58963Y39743D01*
X58401Y40401D01*
X57743Y40963D01*
X57005Y41416D01*
X56205Y41747D01*
X55363Y41949D01*
X54500Y42017D01*
X54492Y42016D01*
Y114000D01*
G37*
G36*
X40993D02*X54492D01*
Y42016D01*
X53637Y41949D01*
X52795Y41747D01*
X51995Y41416D01*
X51257Y40963D01*
X50599Y40401D01*
X50037Y39743D01*
X49584Y39005D01*
X49253Y38205D01*
X49051Y37363D01*
X48983Y36500D01*
X49051Y35637D01*
X49253Y34795D01*
X49584Y33995D01*
X50037Y33257D01*
X50599Y32599D01*
X51257Y32037D01*
X51995Y31584D01*
X52795Y31253D01*
X53637Y31051D01*
X54492Y30984D01*
Y14000D01*
X40993D01*
Y57487D01*
X41000Y57486D01*
X41706Y57542D01*
X42395Y57707D01*
X43049Y57978D01*
X43653Y58348D01*
X44192Y58808D01*
X44652Y59347D01*
X45022Y59951D01*
X45293Y60605D01*
X45458Y61294D01*
X45500Y62000D01*
X45458Y62706D01*
X45293Y63395D01*
X45022Y64049D01*
X44652Y64653D01*
X44192Y65192D01*
X43653Y65652D01*
X43049Y66022D01*
X42395Y66293D01*
X41706Y66458D01*
X41000Y66514D01*
X40993Y66513D01*
Y114000D01*
G37*
G36*
X31000D02*X40993D01*
Y66513D01*
X40294Y66458D01*
X39605Y66293D01*
X38951Y66022D01*
X38347Y65652D01*
X37808Y65192D01*
X37348Y64653D01*
X36978Y64049D01*
X36707Y63395D01*
X36542Y62706D01*
X36486Y62000D01*
X36542Y61294D01*
X36707Y60605D01*
X36978Y59951D01*
X37348Y59347D01*
X37808Y58808D01*
X38347Y58348D01*
X38951Y57978D01*
X39605Y57707D01*
X40294Y57542D01*
X40993Y57487D01*
Y14000D01*
X37518D01*
X36898Y15012D01*
X36029Y16029D01*
X35012Y16898D01*
X33871Y17597D01*
X32635Y18109D01*
X31334Y18421D01*
X31000Y18448D01*
Y31001D01*
X38735Y31014D01*
X38965Y31069D01*
X39183Y31159D01*
X39384Y31283D01*
X39564Y31436D01*
X39717Y31616D01*
X39841Y31817D01*
X39931Y32035D01*
X39986Y32265D01*
X40000Y32500D01*
X39986Y40735D01*
X39931Y40965D01*
X39841Y41183D01*
X39717Y41384D01*
X39564Y41564D01*
X39384Y41717D01*
X39183Y41841D01*
X38965Y41931D01*
X38735Y41986D01*
X38500Y42000D01*
X31000Y41987D01*
Y57507D01*
X34235Y57514D01*
X34465Y57569D01*
X34683Y57659D01*
X34884Y57783D01*
X35064Y57936D01*
X35217Y58116D01*
X35341Y58317D01*
X35431Y58535D01*
X35486Y58765D01*
X35500Y59000D01*
X35486Y65235D01*
X35431Y65465D01*
X35341Y65683D01*
X35217Y65884D01*
X35064Y66064D01*
X34884Y66217D01*
X34683Y66341D01*
X34465Y66431D01*
X34235Y66486D01*
X34000Y66500D01*
X31000Y66493D01*
Y114000D01*
G37*
G36*
X13613D02*X31000D01*
Y66493D01*
X27765Y66486D01*
X27535Y66431D01*
X27317Y66341D01*
X27116Y66217D01*
X26936Y66064D01*
X26783Y65884D01*
X26659Y65683D01*
X26569Y65465D01*
X26514Y65235D01*
X26500Y65000D01*
X26514Y58765D01*
X26569Y58535D01*
X26659Y58317D01*
X26783Y58116D01*
X26936Y57936D01*
X27116Y57783D01*
X27317Y57659D01*
X27535Y57569D01*
X27765Y57514D01*
X28000Y57500D01*
X31000Y57507D01*
Y41987D01*
X30265Y41986D01*
X30035Y41931D01*
X29817Y41841D01*
X29616Y41717D01*
X29436Y41564D01*
X29283Y41384D01*
X29159Y41183D01*
X29069Y40965D01*
X29014Y40735D01*
X29000Y40500D01*
X29014Y32265D01*
X29069Y32035D01*
X29159Y31817D01*
X29283Y31616D01*
X29436Y31436D01*
X29616Y31283D01*
X29817Y31159D01*
X30035Y31069D01*
X30265Y31014D01*
X30500Y31000D01*
X31000Y31001D01*
Y18448D01*
X30000Y18526D01*
X28666Y18421D01*
X27365Y18109D01*
X26129Y17597D01*
X24988Y16898D01*
X23971Y16029D01*
X23102Y15012D01*
X22482Y14000D01*
X13613D01*
Y17302D01*
X13652Y17347D01*
X14022Y17951D01*
X14293Y18605D01*
X14458Y19294D01*
X14500Y20000D01*
X14458Y20706D01*
X14293Y21395D01*
X14022Y22049D01*
X13652Y22653D01*
X13613Y22698D01*
Y27302D01*
X13652Y27347D01*
X14022Y27951D01*
X14293Y28605D01*
X14458Y29294D01*
X14500Y30000D01*
X14458Y30706D01*
X14293Y31395D01*
X14022Y32049D01*
X13652Y32653D01*
X13613Y32698D01*
Y37302D01*
X13652Y37347D01*
X14022Y37951D01*
X14293Y38605D01*
X14458Y39294D01*
X14500Y40000D01*
X14458Y40706D01*
X14293Y41395D01*
X14022Y42049D01*
X13652Y42653D01*
X13613Y42698D01*
Y47302D01*
X13652Y47347D01*
X14022Y47951D01*
X14293Y48605D01*
X14458Y49294D01*
X14500Y50000D01*
X14458Y50706D01*
X14293Y51395D01*
X14022Y52049D01*
X13652Y52653D01*
X13613Y52698D01*
Y57302D01*
X13652Y57347D01*
X14022Y57951D01*
X14293Y58605D01*
X14458Y59294D01*
X14500Y60000D01*
X14458Y60706D01*
X14293Y61395D01*
X14022Y62049D01*
X13652Y62653D01*
X13613Y62698D01*
Y67302D01*
X13652Y67347D01*
X14022Y67951D01*
X14293Y68605D01*
X14458Y69294D01*
X14500Y70000D01*
X14458Y70706D01*
X14293Y71395D01*
X14022Y72049D01*
X13652Y72653D01*
X13613Y72698D01*
Y87302D01*
X13652Y87347D01*
X14022Y87951D01*
X14293Y88605D01*
X14458Y89294D01*
X14500Y90000D01*
X14458Y90706D01*
X14293Y91395D01*
X14022Y92049D01*
X13652Y92653D01*
X13613Y92698D01*
Y97853D01*
X13656Y97860D01*
X13768Y97897D01*
X13873Y97952D01*
X13968Y98022D01*
X14051Y98106D01*
X14119Y98202D01*
X14170Y98308D01*
X14318Y98716D01*
X14422Y99137D01*
X14484Y99567D01*
X14505Y100000D01*
X14484Y100433D01*
X14422Y100863D01*
X14318Y101284D01*
X14175Y101694D01*
X14122Y101800D01*
X14053Y101896D01*
X13970Y101981D01*
X13875Y102051D01*
X13769Y102106D01*
X13657Y102143D01*
X13613Y102151D01*
Y107853D01*
X13656Y107860D01*
X13768Y107897D01*
X13873Y107952D01*
X13968Y108022D01*
X14051Y108106D01*
X14119Y108202D01*
X14170Y108308D01*
X14318Y108716D01*
X14422Y109137D01*
X14484Y109567D01*
X14505Y110000D01*
X14484Y110433D01*
X14422Y110863D01*
X14318Y111284D01*
X14175Y111694D01*
X14122Y111800D01*
X14053Y111896D01*
X13970Y111981D01*
X13875Y112051D01*
X13769Y112106D01*
X13657Y112143D01*
X13613Y112151D01*
Y114000D01*
G37*
G36*
Y72698D02*X13192Y73192D01*
X12653Y73652D01*
X12049Y74022D01*
X11395Y74293D01*
X10706Y74458D01*
X10000Y74514D01*
X9993Y74513D01*
Y85487D01*
X10000Y85486D01*
X10706Y85542D01*
X11395Y85707D01*
X12049Y85978D01*
X12653Y86348D01*
X13192Y86808D01*
X13613Y87302D01*
Y72698D01*
G37*
G36*
Y62698D02*X13192Y63192D01*
X12653Y63652D01*
X12049Y64022D01*
X11395Y64293D01*
X10706Y64458D01*
X10000Y64514D01*
X9993Y64513D01*
Y65487D01*
X10000Y65486D01*
X10706Y65542D01*
X11395Y65707D01*
X12049Y65978D01*
X12653Y66348D01*
X13192Y66808D01*
X13613Y67302D01*
Y62698D01*
G37*
G36*
Y52698D02*X13192Y53192D01*
X12653Y53652D01*
X12049Y54022D01*
X11395Y54293D01*
X10706Y54458D01*
X10000Y54514D01*
X9993Y54513D01*
Y55487D01*
X10000Y55486D01*
X10706Y55542D01*
X11395Y55707D01*
X12049Y55978D01*
X12653Y56348D01*
X13192Y56808D01*
X13613Y57302D01*
Y52698D01*
G37*
G36*
Y42698D02*X13192Y43192D01*
X12653Y43652D01*
X12049Y44022D01*
X11395Y44293D01*
X10706Y44458D01*
X10000Y44514D01*
X9993Y44513D01*
Y45487D01*
X10000Y45486D01*
X10706Y45542D01*
X11395Y45707D01*
X12049Y45978D01*
X12653Y46348D01*
X13192Y46808D01*
X13613Y47302D01*
Y42698D01*
G37*
G36*
Y32698D02*X13192Y33192D01*
X12653Y33652D01*
X12049Y34022D01*
X11395Y34293D01*
X10706Y34458D01*
X10000Y34514D01*
X9993Y34513D01*
Y35487D01*
X10000Y35486D01*
X10706Y35542D01*
X11395Y35707D01*
X12049Y35978D01*
X12653Y36348D01*
X13192Y36808D01*
X13613Y37302D01*
Y32698D01*
G37*
G36*
Y22698D02*X13192Y23192D01*
X12653Y23652D01*
X12049Y24022D01*
X11395Y24293D01*
X10706Y24458D01*
X10000Y24514D01*
X9993Y24513D01*
Y25487D01*
X10000Y25486D01*
X10706Y25542D01*
X11395Y25707D01*
X12049Y25978D01*
X12653Y26348D01*
X13192Y26808D01*
X13613Y27302D01*
Y22698D01*
G37*
G36*
Y14000D02*X9993D01*
Y15487D01*
X10000Y15486D01*
X10706Y15542D01*
X11395Y15707D01*
X12049Y15978D01*
X12653Y16348D01*
X13192Y16808D01*
X13613Y17302D01*
Y14000D01*
G37*
G36*
X9993Y113000D02*X10000Y113000D01*
X10289Y112986D01*
X10575Y112944D01*
X10855Y112876D01*
X11128Y112780D01*
X11239Y112742D01*
X11356Y112725D01*
X11474Y112725D01*
X11591Y112745D01*
X11703Y112782D01*
X11807Y112836D01*
X11902Y112906D01*
X11985Y112991D01*
X12054Y113087D01*
X12107Y113192D01*
X12143Y113305D01*
X12160Y113421D01*
X12159Y113539D01*
X12140Y113656D01*
X12103Y113768D01*
X12048Y113873D01*
X11978Y113968D01*
X11945Y114000D01*
X13613D01*
Y112151D01*
X13540Y112163D01*
X13421Y112164D01*
X13304Y112146D01*
X13191Y112110D01*
X13085Y112057D01*
X12988Y111988D01*
X12904Y111905D01*
X12833Y111809D01*
X12779Y111704D01*
X12741Y111592D01*
X12722Y111475D01*
X12721Y111356D01*
X12739Y111239D01*
X12777Y111126D01*
X12876Y110855D01*
X12944Y110575D01*
X12986Y110289D01*
X13000Y110000D01*
X12986Y109711D01*
X12944Y109425D01*
X12876Y109145D01*
X12780Y108872D01*
X12742Y108761D01*
X12725Y108644D01*
X12725Y108526D01*
X12745Y108409D01*
X12782Y108297D01*
X12836Y108193D01*
X12906Y108098D01*
X12991Y108015D01*
X13087Y107946D01*
X13192Y107893D01*
X13305Y107857D01*
X13421Y107840D01*
X13539Y107841D01*
X13613Y107853D01*
Y102151D01*
X13540Y102163D01*
X13421Y102164D01*
X13304Y102146D01*
X13191Y102110D01*
X13085Y102057D01*
X12988Y101988D01*
X12904Y101905D01*
X12833Y101809D01*
X12779Y101704D01*
X12741Y101592D01*
X12722Y101475D01*
X12721Y101356D01*
X12739Y101239D01*
X12777Y101126D01*
X12876Y100855D01*
X12944Y100575D01*
X12986Y100289D01*
X13000Y100000D01*
X12986Y99711D01*
X12944Y99425D01*
X12876Y99145D01*
X12780Y98872D01*
X12742Y98761D01*
X12725Y98644D01*
X12725Y98526D01*
X12745Y98409D01*
X12782Y98297D01*
X12836Y98193D01*
X12906Y98098D01*
X12991Y98015D01*
X13087Y97946D01*
X13192Y97893D01*
X13305Y97857D01*
X13421Y97840D01*
X13539Y97841D01*
X13613Y97853D01*
Y92698D01*
X13192Y93192D01*
X12653Y93652D01*
X12049Y94022D01*
X11395Y94293D01*
X10706Y94458D01*
X10000Y94514D01*
X9993Y94513D01*
Y95495D01*
X10000Y95495D01*
X10433Y95516D01*
X10863Y95578D01*
X11284Y95682D01*
X11694Y95825D01*
X11800Y95878D01*
X11896Y95947D01*
X11981Y96030D01*
X12051Y96125D01*
X12106Y96231D01*
X12143Y96343D01*
X12163Y96460D01*
X12164Y96579D01*
X12146Y96696D01*
X12110Y96809D01*
X12057Y96915D01*
X11988Y97012D01*
X11905Y97096D01*
X11809Y97167D01*
X11704Y97221D01*
X11592Y97259D01*
X11475Y97278D01*
X11356Y97279D01*
X11239Y97261D01*
X11126Y97223D01*
X10855Y97124D01*
X10575Y97056D01*
X10289Y97014D01*
X10000Y97000D01*
X9993Y97000D01*
Y103000D01*
X10000Y103000D01*
X10289Y102986D01*
X10575Y102944D01*
X10855Y102876D01*
X11128Y102780D01*
X11239Y102742D01*
X11356Y102725D01*
X11474Y102725D01*
X11591Y102745D01*
X11703Y102782D01*
X11807Y102836D01*
X11902Y102906D01*
X11985Y102991D01*
X12054Y103087D01*
X12107Y103192D01*
X12143Y103305D01*
X12160Y103421D01*
X12159Y103539D01*
X12140Y103656D01*
X12103Y103768D01*
X12048Y103873D01*
X11978Y103968D01*
X11894Y104051D01*
X11798Y104119D01*
X11692Y104170D01*
X11284Y104318D01*
X10863Y104422D01*
X10433Y104484D01*
X10000Y104505D01*
X9993Y104505D01*
Y105495D01*
X10000Y105495D01*
X10433Y105516D01*
X10863Y105578D01*
X11284Y105682D01*
X11694Y105825D01*
X11800Y105878D01*
X11896Y105947D01*
X11981Y106030D01*
X12051Y106125D01*
X12106Y106231D01*
X12143Y106343D01*
X12163Y106460D01*
X12164Y106579D01*
X12146Y106696D01*
X12110Y106809D01*
X12057Y106915D01*
X11988Y107012D01*
X11905Y107096D01*
X11809Y107167D01*
X11704Y107221D01*
X11592Y107259D01*
X11475Y107278D01*
X11356Y107279D01*
X11239Y107261D01*
X11126Y107223D01*
X10855Y107124D01*
X10575Y107056D01*
X10289Y107014D01*
X10000Y107000D01*
X9993Y107000D01*
Y113000D01*
G37*
G36*
X6387Y17302D02*X6808Y16808D01*
X7347Y16348D01*
X7951Y15978D01*
X8605Y15707D01*
X9294Y15542D01*
X9993Y15487D01*
Y14000D01*
X6387D01*
Y17302D01*
G37*
G36*
Y27302D02*X6808Y26808D01*
X7347Y26348D01*
X7951Y25978D01*
X8605Y25707D01*
X9294Y25542D01*
X9993Y25487D01*
Y24513D01*
X9294Y24458D01*
X8605Y24293D01*
X7951Y24022D01*
X7347Y23652D01*
X6808Y23192D01*
X6387Y22698D01*
Y27302D01*
G37*
G36*
Y37302D02*X6808Y36808D01*
X7347Y36348D01*
X7951Y35978D01*
X8605Y35707D01*
X9294Y35542D01*
X9993Y35487D01*
Y34513D01*
X9294Y34458D01*
X8605Y34293D01*
X7951Y34022D01*
X7347Y33652D01*
X6808Y33192D01*
X6387Y32698D01*
Y37302D01*
G37*
G36*
Y47302D02*X6808Y46808D01*
X7347Y46348D01*
X7951Y45978D01*
X8605Y45707D01*
X9294Y45542D01*
X9993Y45487D01*
Y44513D01*
X9294Y44458D01*
X8605Y44293D01*
X7951Y44022D01*
X7347Y43652D01*
X6808Y43192D01*
X6387Y42698D01*
Y47302D01*
G37*
G36*
Y57302D02*X6808Y56808D01*
X7347Y56348D01*
X7951Y55978D01*
X8605Y55707D01*
X9294Y55542D01*
X9993Y55487D01*
Y54513D01*
X9294Y54458D01*
X8605Y54293D01*
X7951Y54022D01*
X7347Y53652D01*
X6808Y53192D01*
X6387Y52698D01*
Y57302D01*
G37*
G36*
Y67302D02*X6808Y66808D01*
X7347Y66348D01*
X7951Y65978D01*
X8605Y65707D01*
X9294Y65542D01*
X9993Y65487D01*
Y64513D01*
X9294Y64458D01*
X8605Y64293D01*
X7951Y64022D01*
X7347Y63652D01*
X6808Y63192D01*
X6387Y62698D01*
Y67302D01*
G37*
G36*
Y87302D02*X6808Y86808D01*
X7347Y86348D01*
X7951Y85978D01*
X8605Y85707D01*
X9294Y85542D01*
X9993Y85487D01*
Y74513D01*
X9294Y74458D01*
X8605Y74293D01*
X7951Y74022D01*
X7347Y73652D01*
X6808Y73192D01*
X6387Y72698D01*
Y87302D01*
G37*
G36*
Y114000D02*X8050D01*
X8019Y113970D01*
X7949Y113875D01*
X7894Y113769D01*
X7857Y113657D01*
X7837Y113540D01*
X7836Y113421D01*
X7854Y113304D01*
X7890Y113191D01*
X7943Y113085D01*
X8012Y112988D01*
X8095Y112904D01*
X8191Y112833D01*
X8296Y112779D01*
X8408Y112741D01*
X8525Y112722D01*
X8644Y112721D01*
X8761Y112739D01*
X8874Y112777D01*
X9145Y112876D01*
X9425Y112944D01*
X9711Y112986D01*
X9993Y113000D01*
Y107000D01*
X9711Y107014D01*
X9425Y107056D01*
X9145Y107124D01*
X8872Y107220D01*
X8761Y107258D01*
X8644Y107275D01*
X8526Y107275D01*
X8409Y107255D01*
X8297Y107218D01*
X8193Y107164D01*
X8098Y107094D01*
X8015Y107009D01*
X7946Y106913D01*
X7893Y106808D01*
X7857Y106695D01*
X7840Y106579D01*
X7841Y106461D01*
X7860Y106344D01*
X7897Y106232D01*
X7952Y106127D01*
X8022Y106032D01*
X8106Y105949D01*
X8202Y105881D01*
X8308Y105830D01*
X8716Y105682D01*
X9137Y105578D01*
X9567Y105516D01*
X9993Y105495D01*
Y104505D01*
X9567Y104484D01*
X9137Y104422D01*
X8716Y104318D01*
X8306Y104175D01*
X8200Y104122D01*
X8104Y104053D01*
X8019Y103970D01*
X7949Y103875D01*
X7894Y103769D01*
X7857Y103657D01*
X7837Y103540D01*
X7836Y103421D01*
X7854Y103304D01*
X7890Y103191D01*
X7943Y103085D01*
X8012Y102988D01*
X8095Y102904D01*
X8191Y102833D01*
X8296Y102779D01*
X8408Y102741D01*
X8525Y102722D01*
X8644Y102721D01*
X8761Y102739D01*
X8874Y102777D01*
X9145Y102876D01*
X9425Y102944D01*
X9711Y102986D01*
X9993Y103000D01*
Y97000D01*
X9711Y97014D01*
X9425Y97056D01*
X9145Y97124D01*
X8872Y97220D01*
X8761Y97258D01*
X8644Y97275D01*
X8526Y97275D01*
X8409Y97255D01*
X8297Y97218D01*
X8193Y97164D01*
X8098Y97094D01*
X8015Y97009D01*
X7946Y96913D01*
X7893Y96808D01*
X7857Y96695D01*
X7840Y96579D01*
X7841Y96461D01*
X7860Y96344D01*
X7897Y96232D01*
X7952Y96127D01*
X8022Y96032D01*
X8106Y95949D01*
X8202Y95881D01*
X8308Y95830D01*
X8716Y95682D01*
X9137Y95578D01*
X9567Y95516D01*
X9993Y95495D01*
Y94513D01*
X9294Y94458D01*
X8605Y94293D01*
X7951Y94022D01*
X7347Y93652D01*
X6808Y93192D01*
X6387Y92698D01*
Y97849D01*
X6460Y97837D01*
X6579Y97836D01*
X6696Y97854D01*
X6809Y97890D01*
X6915Y97943D01*
X7012Y98012D01*
X7096Y98095D01*
X7167Y98191D01*
X7221Y98296D01*
X7259Y98408D01*
X7278Y98525D01*
X7279Y98644D01*
X7261Y98761D01*
X7223Y98874D01*
X7124Y99145D01*
X7056Y99425D01*
X7014Y99711D01*
X7000Y100000D01*
X7014Y100289D01*
X7056Y100575D01*
X7124Y100855D01*
X7220Y101128D01*
X7258Y101239D01*
X7275Y101356D01*
X7275Y101474D01*
X7255Y101591D01*
X7218Y101703D01*
X7164Y101807D01*
X7094Y101902D01*
X7009Y101985D01*
X6913Y102054D01*
X6808Y102107D01*
X6695Y102143D01*
X6579Y102160D01*
X6461Y102159D01*
X6387Y102147D01*
Y107849D01*
X6460Y107837D01*
X6579Y107836D01*
X6696Y107854D01*
X6809Y107890D01*
X6915Y107943D01*
X7012Y108012D01*
X7096Y108095D01*
X7167Y108191D01*
X7221Y108296D01*
X7259Y108408D01*
X7278Y108525D01*
X7279Y108644D01*
X7261Y108761D01*
X7223Y108874D01*
X7124Y109145D01*
X7056Y109425D01*
X7014Y109711D01*
X7000Y110000D01*
X7014Y110289D01*
X7056Y110575D01*
X7124Y110855D01*
X7220Y111128D01*
X7258Y111239D01*
X7275Y111356D01*
X7275Y111474D01*
X7255Y111591D01*
X7218Y111703D01*
X7164Y111807D01*
X7094Y111902D01*
X7009Y111985D01*
X6913Y112054D01*
X6808Y112107D01*
X6695Y112143D01*
X6579Y112160D01*
X6461Y112159D01*
X6387Y112147D01*
Y114000D01*
G37*
G36*
X4000D02*X6387D01*
Y112147D01*
X6344Y112140D01*
X6232Y112103D01*
X6127Y112048D01*
X6032Y111978D01*
X5949Y111894D01*
X5881Y111798D01*
X5830Y111692D01*
X5682Y111284D01*
X5578Y110863D01*
X5516Y110433D01*
X5495Y110000D01*
X5516Y109567D01*
X5578Y109137D01*
X5682Y108716D01*
X5825Y108306D01*
X5878Y108200D01*
X5947Y108104D01*
X6030Y108019D01*
X6125Y107949D01*
X6231Y107894D01*
X6343Y107857D01*
X6387Y107849D01*
Y102147D01*
X6344Y102140D01*
X6232Y102103D01*
X6127Y102048D01*
X6032Y101978D01*
X5949Y101894D01*
X5881Y101798D01*
X5830Y101692D01*
X5682Y101284D01*
X5578Y100863D01*
X5516Y100433D01*
X5495Y100000D01*
X5516Y99567D01*
X5578Y99137D01*
X5682Y98716D01*
X5825Y98306D01*
X5878Y98200D01*
X5947Y98104D01*
X6030Y98019D01*
X6125Y97949D01*
X6231Y97894D01*
X6343Y97857D01*
X6387Y97849D01*
Y92698D01*
X6348Y92653D01*
X5978Y92049D01*
X5707Y91395D01*
X5542Y90706D01*
X5486Y90000D01*
X5542Y89294D01*
X5707Y88605D01*
X5978Y87951D01*
X6348Y87347D01*
X6387Y87302D01*
Y72698D01*
X6348Y72653D01*
X5978Y72049D01*
X5707Y71395D01*
X5542Y70706D01*
X5486Y70000D01*
X5542Y69294D01*
X5707Y68605D01*
X5978Y67951D01*
X6348Y67347D01*
X6387Y67302D01*
Y62698D01*
X6348Y62653D01*
X5978Y62049D01*
X5707Y61395D01*
X5542Y60706D01*
X5486Y60000D01*
X5542Y59294D01*
X5707Y58605D01*
X5978Y57951D01*
X6348Y57347D01*
X6387Y57302D01*
Y52698D01*
X6348Y52653D01*
X5978Y52049D01*
X5707Y51395D01*
X5542Y50706D01*
X5486Y50000D01*
X5542Y49294D01*
X5707Y48605D01*
X5978Y47951D01*
X6348Y47347D01*
X6387Y47302D01*
Y42698D01*
X6348Y42653D01*
X5978Y42049D01*
X5707Y41395D01*
X5542Y40706D01*
X5486Y40000D01*
X5542Y39294D01*
X5707Y38605D01*
X5978Y37951D01*
X6348Y37347D01*
X6387Y37302D01*
Y32698D01*
X6348Y32653D01*
X5978Y32049D01*
X5707Y31395D01*
X5542Y30706D01*
X5486Y30000D01*
X5542Y29294D01*
X5707Y28605D01*
X5978Y27951D01*
X6348Y27347D01*
X6387Y27302D01*
Y22698D01*
X6348Y22653D01*
X5978Y22049D01*
X5707Y21395D01*
X5542Y20706D01*
X5486Y20000D01*
X5542Y19294D01*
X5707Y18605D01*
X5978Y17951D01*
X6348Y17347D01*
X6387Y17302D01*
Y14000D01*
X4000D01*
Y114000D01*
G37*
G54D32*X92000Y206000D02*Y203000D01*
X54000Y201000D02*X56000Y203000D01*
X83000D01*
X75000Y194000D02*X78000Y197000D01*
X84000D01*
X194000Y166000D02*Y199000D01*
X190000Y161000D02*Y195000D01*
X187000Y185000D02*X178000Y194000D01*
X187000Y160000D02*Y185000D01*
X194000Y199000D02*X179000Y214000D01*
X174000D01*
X190000Y195000D02*X181000Y204000D01*
X174000D01*
X178000Y194000D02*X174000D01*
X78000Y197000D02*X109000D01*
X111000Y199000D01*
Y211000D01*
X109000Y213000D02*X97000D01*
X78000D02*Y219000D01*
X83000Y224000D01*
X87000Y213000D02*Y216000D01*
X92000Y221000D01*
X70000Y118000D02*X80000D01*
X60000Y122000D02*X70000Y112000D01*
X77000D01*
X82000Y123000D02*X63000D01*
X57000Y129000D01*
X111000Y114000D02*X133000D01*
X57000Y129000D02*Y158000D01*
X61000Y162000D01*
X53000Y129000D02*Y162000D01*
X54000Y163000D01*
Y201000D02*Y163000D01*
X61000Y162000D02*X72000D01*
X75000Y165000D01*
Y194000D01*
X61000Y121000D02*X53000Y129000D01*
X111000Y211000D02*X109000Y213000D01*
X83000Y224000D02*X161000D01*
X92000Y221000D02*X152000D01*
X156000Y217000D01*
X122000Y215000D02*X149000D01*
X152000Y212000D01*
X161000Y224000D02*X164000Y221000D01*
Y214000D01*
X156000Y217000D02*Y207000D01*
X159000Y204000D01*
X165000D01*
X152000Y212000D02*Y198000D01*
X156000Y194000D01*
X164000D01*
X173000Y117000D02*Y130000D01*
X187000Y53000D02*Y164000D01*
X190000Y62000D02*Y167000D01*
X194000Y72000D02*Y167000D01*
X200000Y60000D02*X196000D01*
Y50000D02*X190000D01*
X187000Y53000D01*
X192000Y60000D02*X190000Y62000D01*
X192000Y60000D02*X198000D01*
X194000Y50000D02*X201000D01*
X200000Y70000D02*X196000D01*
X194000Y72000D01*
X77000Y118000D02*X139000D01*
X140000Y117000D01*
Y114000D01*
X81000Y123000D02*X114000D01*
X75000Y112000D02*X109000D01*
X111000Y114000D01*
X116000Y125000D02*Y131000D01*
X114000Y123000D02*X116000Y125000D01*
Y131000D02*X119000Y134000D01*
X143000D01*
X145000Y132000D01*
Y129000D01*
X138000Y109000D02*X144000D01*
X146000Y111000D01*
Y114000D01*
X133000D02*X138000Y109000D01*
G54D33*X200000Y210000D03*
G54D34*Y70000D03*
Y80000D03*
Y90000D03*
Y106000D03*
Y116000D03*
Y126000D03*
Y136000D03*
Y146000D03*
Y156000D03*
Y166000D03*
Y186000D03*
Y196000D03*
G54D31*G36*
X161000Y217000D02*Y211000D01*
X167000D01*
Y217000D01*
X161000D01*
G37*
G54D34*X174000Y214000D03*
G54D31*G36*
X179000Y240000D02*Y232000D01*
X187000D01*
Y240000D01*
X179000D01*
G37*
G54D35*X183000Y256000D03*
G54D34*X164000Y204000D03*
X174000D03*
X164000Y194000D03*
X174000D03*
G54D33*X140000Y10000D03*
G54D31*G36*
X110500Y40500D02*Y32500D01*
X118500D01*
Y40500D01*
X110500D01*
G37*
G54D35*X134500Y36500D03*
G54D31*G36*
X197000Y23000D02*Y17000D01*
X203000D01*
Y23000D01*
X197000D01*
G37*
G54D34*X200000Y30000D03*
Y40000D03*
Y50000D03*
Y60000D03*
G54D31*G36*
X150500Y40500D02*Y32500D01*
X158500D01*
Y40500D01*
X150500D01*
G37*
G36*
X108000Y65000D02*Y59000D01*
X114000D01*
Y65000D01*
X108000D01*
G37*
G54D34*X121000Y62000D03*
G54D31*G36*
X148000Y65000D02*Y59000D01*
X154000D01*
Y65000D01*
X148000D01*
G37*
G54D34*X161000Y62000D03*
X200000Y176000D03*
G54D35*X174500Y36500D03*
G54D31*G36*
X171000Y132000D02*Y126000D01*
X177000D01*
Y132000D01*
X171000D01*
G37*
G54D34*X174000Y139000D03*
Y149000D03*
G54D31*G36*
X132000Y142000D02*Y136000D01*
X138000D01*
Y142000D01*
X132000D01*
G37*
G54D34*X135000Y129000D03*
G54D31*G36*
X142000Y142000D02*Y136000D01*
X148000D01*
Y142000D01*
X142000D01*
G37*
G54D34*X145000Y129000D03*
X164000D03*
Y139000D03*
Y149000D03*
G54D33*X30000Y10000D03*
G54D34*X10000Y60000D03*
G54D31*G36*
X68000Y65000D02*Y59000D01*
X74000D01*
Y65000D01*
X68000D01*
G37*
G54D34*X81000Y62000D03*
G54D31*G36*
X28000Y65000D02*Y59000D01*
X34000D01*
Y65000D01*
X28000D01*
G37*
G54D34*X41000Y62000D03*
X10000Y50000D03*
Y40000D03*
Y30000D03*
Y20000D03*
G54D31*G36*
X70500Y40500D02*Y32500D01*
X78500D01*
Y40500D01*
X70500D01*
G37*
G36*
X30500D02*Y32500D01*
X38500D01*
Y40500D01*
X30500D01*
G37*
G54D35*X54500Y36500D03*
X94500D03*
G54D33*X10000Y215000D03*
G54D36*X16000Y196000D03*
G54D34*X10000Y110000D03*
Y100000D03*
Y90000D03*
G54D31*G36*
X7000Y163000D02*Y157000D01*
X13000D01*
Y163000D01*
X7000D01*
G37*
G54D34*X10000Y150000D03*
Y140000D03*
Y130000D03*
Y120000D03*
G54D36*X16000Y191000D03*
G54D31*G36*
X33000Y250500D02*Y242500D01*
X41000D01*
Y250500D01*
X33000D01*
G37*
G54D35*X17000Y246500D03*
G54D36*X16000Y186000D03*
Y181000D03*
G54D34*X10000Y70000D03*
G54D36*X16000Y176000D03*
G54D31*G36*
X41000Y179000D02*Y173000D01*
X47000D01*
Y179000D01*
X41000D01*
G37*
G36*
X83000Y120000D02*Y114000D01*
X89000D01*
Y120000D01*
X83000D01*
G37*
G54D34*X86000Y107000D03*
G54D37*X102500Y203000D03*
X97500Y213000D03*
X92500Y203000D03*
X87500Y213000D03*
X82500Y203000D03*
X77500Y213000D03*
G54D33*X70000Y238000D03*
X110000D03*
G54D34*X44000Y186000D03*
Y196000D03*
G54D36*X48000Y140000D03*
Y145000D03*
X54000Y171000D03*
X75000Y188000D03*
X23000Y207000D03*
X29000D03*
X35000D03*
X41000D03*
X122000Y215000D03*
X146000Y114000D03*
X140000D03*
X173000Y117000D03*
X116000Y125000D03*
X64000Y94000D03*
X59000D03*
X54000D03*
X70000Y112000D03*
Y118000D03*
X65000Y112000D03*
X94000Y108000D03*
X100000D03*
X77000Y123000D03*
G54D38*G54D39*G54D40*G54D41*G54D40*G54D39*G54D41*G54D40*G54D41*G54D40*G54D41*G54D40*G54D39*G54D40*G54D41*G54D39*G54D42*G54D40*G54D42*G54D41*G54D42*G54D40*G54D42*G54D40*G54D43*G54D44*G54D40*M02*
