G04 start of page 6 for group -4063 idx -4063 *
G04 Title: (unknown), componentmask *
G04 Creator: pcb 20110918 *
G04 CreationDate: Sat 02 Feb 2013 09:04:15 PM GMT UTC *
G04 For: petersen *
G04 Format: Gerber/RS-274X *
G04 PCB-Dimensions: 210000 270000 *
G04 PCB-Coordinate-Origin: lower left *
%MOIN*%
%FSLAX25Y25*%
%LNTOPMASK*%
%ADD63R,0.0300X0.0300*%
%ADD62R,0.0400X0.0400*%
%ADD61R,0.0622X0.0622*%
%ADD60R,0.0177X0.0177*%
%ADD59R,0.0572X0.0572*%
%ADD58C,0.0760*%
%ADD57C,0.0460*%
%ADD56C,0.0860*%
%ADD55C,0.0001*%
%ADD54C,0.0660*%
%ADD53C,0.1560*%
G54D53*X200000Y210000D03*
G54D54*Y70000D03*
Y80000D03*
Y90000D03*
Y106000D03*
Y116000D03*
Y126000D03*
Y136000D03*
Y146000D03*
Y156000D03*
Y166000D03*
Y186000D03*
Y196000D03*
G54D55*G36*
X160700Y217300D02*Y210700D01*
X167300D01*
Y217300D01*
X160700D01*
G37*
G54D54*X174000Y214000D03*
G54D55*G36*
X178700Y240300D02*Y231700D01*
X187300D01*
Y240300D01*
X178700D01*
G37*
G54D56*X183000Y256000D03*
G54D54*X164000Y204000D03*
X174000D03*
X164000Y194000D03*
X174000D03*
G54D53*X140000Y10000D03*
G54D55*G36*
X110200Y40800D02*Y32200D01*
X118800D01*
Y40800D01*
X110200D01*
G37*
G54D56*X134500Y36500D03*
G54D55*G36*
X196700Y23300D02*Y16700D01*
X203300D01*
Y23300D01*
X196700D01*
G37*
G54D54*X200000Y30000D03*
Y40000D03*
Y50000D03*
Y60000D03*
G54D55*G36*
X150200Y40800D02*Y32200D01*
X158800D01*
Y40800D01*
X150200D01*
G37*
G36*
X107700Y65300D02*Y58700D01*
X114300D01*
Y65300D01*
X107700D01*
G37*
G54D54*X121000Y62000D03*
G54D55*G36*
X147700Y65300D02*Y58700D01*
X154300D01*
Y65300D01*
X147700D01*
G37*
G54D54*X161000Y62000D03*
X200000Y176000D03*
G54D56*X174500Y36500D03*
G54D55*G36*
X170700Y132300D02*Y125700D01*
X177300D01*
Y132300D01*
X170700D01*
G37*
G54D54*X174000Y139000D03*
Y149000D03*
G54D55*G36*
X131700Y142300D02*Y135700D01*
X138300D01*
Y142300D01*
X131700D01*
G37*
G54D54*X135000Y129000D03*
G54D55*G36*
X141700Y142300D02*Y135700D01*
X148300D01*
Y142300D01*
X141700D01*
G37*
G54D54*X145000Y129000D03*
X164000D03*
Y139000D03*
Y149000D03*
G54D53*X30000Y10000D03*
G54D54*X10000Y60000D03*
G54D55*G36*
X67700Y65300D02*Y58700D01*
X74300D01*
Y65300D01*
X67700D01*
G37*
G54D54*X81000Y62000D03*
G54D55*G36*
X27700Y65300D02*Y58700D01*
X34300D01*
Y65300D01*
X27700D01*
G37*
G54D54*X41000Y62000D03*
X10000Y50000D03*
Y40000D03*
Y30000D03*
Y20000D03*
G54D55*G36*
X70200Y40800D02*Y32200D01*
X78800D01*
Y40800D01*
X70200D01*
G37*
G36*
X30200D02*Y32200D01*
X38800D01*
Y40800D01*
X30200D01*
G37*
G54D56*X54500Y36500D03*
X94500D03*
G54D53*X10000Y215000D03*
G54D57*X16000Y196000D03*
G54D54*X10000Y110000D03*
Y100000D03*
Y90000D03*
G54D55*G36*
X6700Y163300D02*Y156700D01*
X13300D01*
Y163300D01*
X6700D01*
G37*
G54D54*X10000Y150000D03*
Y140000D03*
Y130000D03*
Y120000D03*
G54D57*X16000Y191000D03*
G54D55*G36*
X32700Y250800D02*Y242200D01*
X41300D01*
Y250800D01*
X32700D01*
G37*
G54D56*X17000Y246500D03*
G54D57*X16000Y186000D03*
Y181000D03*
G54D54*X10000Y70000D03*
G54D57*X16000Y176000D03*
G54D55*G36*
X40700Y179300D02*Y172700D01*
X47300D01*
Y179300D01*
X40700D01*
G37*
G36*
X82700Y120300D02*Y113700D01*
X89300D01*
Y120300D01*
X82700D01*
G37*
G54D54*X86000Y107000D03*
G54D58*X102500Y203000D03*
X97500Y213000D03*
X92500Y203000D03*
X87500Y213000D03*
X82500Y203000D03*
X77500Y213000D03*
G54D53*X70000Y238000D03*
X110000D03*
G54D54*X44000Y186000D03*
Y196000D03*
G54D59*X46607Y116543D02*X47393D01*
X46607Y109457D02*X47393D01*
X34607Y100457D02*X35393D01*
X34607Y107543D02*X35393D01*
X46607Y100543D02*X47393D01*
X46607Y93457D02*X47393D01*
X40457Y151393D02*Y150607D01*
G54D60*X67940Y106395D02*Y104097D01*
X65970Y106395D02*Y104097D01*
X64000Y106395D02*Y104097D01*
X62030Y106395D02*Y104097D01*
X60060Y106395D02*Y104097D01*
G54D59*X143457Y194393D02*Y193607D01*
X150543Y194393D02*Y193607D01*
Y204393D02*Y203607D01*
X143457Y204393D02*Y203607D01*
X150543Y214393D02*Y213607D01*
X143457Y214393D02*Y213607D01*
X47543Y151393D02*Y150607D01*
X123543Y149393D02*Y148607D01*
X116457Y149393D02*Y148607D01*
X82457Y185393D02*Y184607D01*
Y167393D02*Y166607D01*
X123543Y139393D02*Y138607D01*
G54D61*X116457Y139393D02*Y138607D01*
G54D62*X66700Y184000D02*X67300D01*
X66700Y191800D02*X67300D01*
X58500Y187900D02*X59100D01*
X60700Y175000D02*X61300D01*
X60700Y167200D02*X61300D01*
X68900Y171100D02*X69500D01*
G54D59*X89543Y185393D02*Y184607D01*
Y167393D02*Y166607D01*
X92457Y62393D02*Y61607D01*
X99543Y62393D02*Y61607D01*
G54D60*X60060Y89903D02*Y87605D01*
X62030Y89903D02*Y87605D01*
X64000Y89903D02*Y87605D01*
X65970Y89903D02*Y87605D01*
X67940Y89903D02*Y87605D01*
G54D59*X52457Y62393D02*Y61607D01*
X59543Y62393D02*Y61607D01*
X172457Y62393D02*Y61607D01*
X179543Y62393D02*Y61607D01*
X132457Y62393D02*Y61607D01*
X139543Y62393D02*Y61607D01*
G54D60*X140060Y89903D02*Y87605D01*
X142030Y89903D02*Y87605D01*
X144000Y89903D02*Y87605D01*
X145970Y89903D02*Y87605D01*
X147940Y89903D02*Y87605D01*
Y106395D02*Y104097D01*
X145970Y106395D02*Y104097D01*
X144000Y106395D02*Y104097D01*
X142030Y106395D02*Y104097D01*
X140060Y106395D02*Y104097D01*
G54D63*X124000Y118800D02*Y117200D01*
X120100Y118800D02*Y117200D01*
X116200Y118800D02*Y117200D01*
Y110600D02*Y109000D01*
G54D59*X106607Y100457D02*X107393D01*
X106607Y107543D02*X107393D01*
G54D63*X120100Y110600D02*Y109000D01*
X124000Y110600D02*Y109000D01*
G54D59*X123607Y100543D02*X124393D01*
X123607Y93457D02*X124393D01*
M02*
