M48
INCH
T52C0.020
T51C0.128
T50C0.030
T49C0.024
T48C0.048
T47C0.038
T46C0.129
%
T52
X004800Y014000
X004800Y014500
X005400Y017100
X007500Y018800
X002300Y020700
X002900Y020700
X003500Y020700
X004100Y020700
X012200Y021500
X014600Y011400
X014000Y011400
X017300Y011700
X011600Y012500
X006400Y009400
X005900Y009400
X005400Y009400
X007000Y011200
X007000Y011800
X006500Y011200
X009400Y010800
X010000Y010800
X007700Y012300
T49
X001600Y019600
X001600Y019100
X001600Y018600
X001600Y018100
X001600Y017600
T50
X010250Y020300
X009750Y021300
X009250Y020300
X008750Y021300
X008250Y020300
X007750Y021300
T47
X020000Y007000
X020000Y008000
X020000Y009000
X020000Y010600
X020000Y011600
X020000Y012600
X020000Y013600
X020000Y014600
X020000Y015600
X020000Y016600
X020000Y018600
X020000Y019600
X016400Y021400
X017400Y021400
X016400Y020400
X017400Y020400
X016400Y019400
X017400Y019400
X020000Y002000
X020000Y003000
X020000Y004000
X020000Y005000
X020000Y006000
X011100Y006200
X012100Y006200
X015100Y006200
X016100Y006200
X020000Y017600
X017400Y012900
X017400Y013900
X017400Y014900
X013500Y013900
X013500Y012900
X014500Y013900
X014500Y012900
X016400Y012900
X016400Y013900
X016400Y014900
X001000Y006000
X007100Y006200
X008100Y006200
X003100Y006200
X004100Y006200
X001000Y005000
X001000Y004000
X001000Y003000
X001000Y002000
X001000Y011000
X001000Y010000
X001000Y009000
X001000Y016000
X001000Y015000
X001000Y014000
X001000Y013000
X001000Y012000
X001000Y007000
X004400Y017600
X008600Y011700
X008600Y010700
X004400Y018600
X004400Y019600
T48
X018300Y023600
X018300Y025600
X011450Y003650
X013450Y003650
X015450Y003650
X017450Y003650
X007450Y003650
X003450Y003650
X005450Y003650
X009450Y003650
X003700Y024650
X001700Y024650
T51
X007000Y023800
X011000Y023800
T46
X020000Y021000
X014000Y001000
X003000Y001000
X001000Y021500
M30
