G04 start of page 10 for group -3984 idx -3984 *
G04 Title: (unknown), fab *
G04 Creator: pcb 20110918 *
G04 CreationDate: Sat 02 Feb 2013 09:04:15 PM GMT UTC *
G04 For: petersen *
G04 Format: Gerber/RS-274X *
G04 PCB-Dimensions: 210000 270000 *
G04 PCB-Coordinate-Origin: lower left *
%MOIN*%
%FSLAX25Y25*%
%LNFAB*%
%ADD79C,0.0100*%
%ADD78C,0.0060*%
%ADD77R,0.0080X0.0080*%
G54D77*X30000Y13200D02*Y6800D01*
X26800Y10000D02*X33200D01*
X28400Y11600D02*X31600D01*
X28400D02*Y8400D01*
X31600D01*
Y11600D02*Y8400D01*
X10000Y218200D02*Y211800D01*
X6800Y215000D02*X13200D01*
X8400Y216600D02*X11600D01*
X8400D02*Y213400D01*
X11600D01*
Y216600D02*Y213400D01*
X200000Y213200D02*Y206800D01*
X196800Y210000D02*X203200D01*
X198400Y211600D02*X201600D01*
X198400D02*Y208400D01*
X201600D01*
Y211600D02*Y208400D01*
X140000Y13200D02*Y6800D01*
X136800Y10000D02*X143200D01*
X138400Y11600D02*X141600D01*
X138400D02*Y8400D01*
X141600D01*
Y11600D02*Y8400D01*
X15000Y284450D02*Y278050D01*
X11800Y281250D02*X18200D01*
X13400Y282850D02*X16600D01*
X13400D02*Y279650D01*
X16600D01*
Y282850D02*Y279650D01*
G54D78*X135000Y283500D02*Y282750D01*
X136500Y281250D01*
X138000Y282750D01*
Y283500D02*Y282750D01*
X136500Y281250D02*Y277500D01*
X139800Y280500D02*X142050D01*
X139800Y277500D02*X142800D01*
X139800Y283500D02*Y277500D01*
Y283500D02*X142800D01*
X147600D02*X148350Y282750D01*
X145350Y283500D02*X147600D01*
X144600Y282750D02*X145350Y283500D01*
X144600Y282750D02*Y281250D01*
X145350Y280500D01*
X147600D01*
X148350Y279750D01*
Y278250D01*
X147600Y277500D02*X148350Y278250D01*
X145350Y277500D02*X147600D01*
X144600Y278250D02*X145350Y277500D01*
X98000Y280500D02*X101000Y283500D01*
X98000Y280500D02*X101750D01*
X101000Y283500D02*Y277500D01*
X45000Y278250D02*X45750Y277500D01*
X45000Y282750D02*Y278250D01*
Y282750D02*X45750Y283500D01*
X47250D01*
X48000Y282750D01*
Y278250D01*
X47250Y277500D02*X48000Y278250D01*
X45750Y277500D02*X47250D01*
X45000Y279000D02*X48000Y282000D01*
X49800Y277500D02*X50550D01*
X53100D02*X54600D01*
X53850Y283500D02*Y277500D01*
X52350Y282000D02*X53850Y283500D01*
X56400Y282750D02*X57150Y283500D01*
X59400D01*
X60150Y282750D01*
Y281250D01*
X56400Y277500D02*X60150Y281250D01*
X56400Y277500D02*X60150D01*
X61950D02*X64950Y280500D01*
Y282750D02*Y280500D01*
X64200Y283500D02*X64950Y282750D01*
X62700Y283500D02*X64200D01*
X61950Y282750D02*X62700Y283500D01*
X61950Y282750D02*Y281250D01*
X62700Y280500D01*
X64950D01*
X70000Y238000D02*Y234800D01*
Y238000D02*X72773Y239600D01*
X70000Y238000D02*X67227Y239600D01*
X68400Y238000D02*G75*G03X71600Y238000I1600J0D01*G01*
G75*G03X68400Y238000I-1600J0D01*G01*
X110000D02*Y234800D01*
Y238000D02*X112773Y239600D01*
X110000Y238000D02*X107227Y239600D01*
X108400Y238000D02*G75*G03X111600Y238000I1600J0D01*G01*
G75*G03X108400Y238000I-1600J0D01*G01*
X15000Y296250D02*Y293050D01*
Y296250D02*X17773Y297850D01*
X15000Y296250D02*X12227Y297850D01*
X13400Y296250D02*G75*G03X16600Y296250I1600J0D01*G01*
G75*G03X13400Y296250I-1600J0D01*G01*
X135000Y298500D02*Y297750D01*
X136500Y296250D01*
X138000Y297750D01*
Y298500D02*Y297750D01*
X136500Y296250D02*Y292500D01*
X139800Y295500D02*X142050D01*
X139800Y292500D02*X142800D01*
X139800Y298500D02*Y292500D01*
Y298500D02*X142800D01*
X147600D02*X148350Y297750D01*
X145350Y298500D02*X147600D01*
X144600Y297750D02*X145350Y298500D01*
X144600Y297750D02*Y296250D01*
X145350Y295500D01*
X147600D01*
X148350Y294750D01*
Y293250D01*
X147600Y292500D02*X148350Y293250D01*
X145350Y292500D02*X147600D01*
X144600Y293250D02*X145350Y292500D01*
X98000Y297750D02*X98750Y298500D01*
X101000D01*
X101750Y297750D01*
Y296250D01*
X98000Y292500D02*X101750Y296250D01*
X98000Y292500D02*X101750D01*
X45000Y293250D02*X45750Y292500D01*
X45000Y297750D02*Y293250D01*
Y297750D02*X45750Y298500D01*
X47250D01*
X48000Y297750D01*
Y293250D01*
X47250Y292500D02*X48000Y293250D01*
X45750Y292500D02*X47250D01*
X45000Y294000D02*X48000Y297000D01*
X49800Y292500D02*X50550D01*
X53100D02*X54600D01*
X53850Y298500D02*Y292500D01*
X52350Y297000D02*X53850Y298500D01*
X56400Y297750D02*X57150Y298500D01*
X59400D01*
X60150Y297750D01*
Y296250D01*
X56400Y292500D02*X60150Y296250D01*
X56400Y292500D02*X60150D01*
X61950Y293250D02*X62700Y292500D01*
X61950Y294750D02*Y293250D01*
Y294750D02*X62700Y295500D01*
X64200D01*
X64950Y294750D01*
Y293250D01*
X64200Y292500D02*X64950Y293250D01*
X62700Y292500D02*X64200D01*
X61950Y296250D02*X62700Y295500D01*
X61950Y297750D02*Y296250D01*
Y297750D02*X62700Y298500D01*
X64200D01*
X64950Y297750D01*
Y296250D01*
X64200Y295500D02*X64950Y296250D01*
X35400Y248100D02*X38600D01*
X35400D02*Y244900D01*
X38600D01*
Y248100D02*Y244900D01*
X15400Y248100D02*X18600D01*
X15400D02*Y244900D01*
X18600D01*
Y248100D02*Y244900D01*
X112900Y38100D02*X116100D01*
X112900D02*Y34900D01*
X116100D01*
Y38100D02*Y34900D01*
X132900Y38100D02*X136100D01*
X132900D02*Y34900D01*
X136100D01*
Y38100D02*Y34900D01*
X152900Y38100D02*X156100D01*
X152900D02*Y34900D01*
X156100D01*
Y38100D02*Y34900D01*
X172900Y38100D02*X176100D01*
X172900D02*Y34900D01*
X176100D01*
Y38100D02*Y34900D01*
X72900Y38100D02*X76100D01*
X72900D02*Y34900D01*
X76100D01*
Y38100D02*Y34900D01*
X92900Y38100D02*X96100D01*
X92900D02*Y34900D01*
X96100D01*
Y38100D02*Y34900D01*
X32900Y38100D02*X36100D01*
X32900D02*Y34900D01*
X36100D01*
Y38100D02*Y34900D01*
X52900Y38100D02*X56100D01*
X52900D02*Y34900D01*
X56100D01*
Y38100D02*Y34900D01*
X181400Y237600D02*X184600D01*
X181400D02*Y234400D01*
X184600D01*
Y237600D02*Y234400D01*
X181400Y257600D02*X184600D01*
X181400D02*Y254400D01*
X184600D01*
Y257600D02*Y254400D01*
X13400Y312850D02*X16600D01*
X13400D02*Y309650D01*
X16600D01*
Y312850D02*Y309650D01*
X135000Y313500D02*Y312750D01*
X136500Y311250D01*
X138000Y312750D01*
Y313500D02*Y312750D01*
X136500Y311250D02*Y307500D01*
X139800Y310500D02*X142050D01*
X139800Y307500D02*X142800D01*
X139800Y313500D02*Y307500D01*
Y313500D02*X142800D01*
X147600D02*X148350Y312750D01*
X145350Y313500D02*X147600D01*
X144600Y312750D02*X145350Y313500D01*
X144600Y312750D02*Y311250D01*
X145350Y310500D01*
X147600D01*
X148350Y309750D01*
Y308250D01*
X147600Y307500D02*X148350Y308250D01*
X145350Y307500D02*X147600D01*
X144600Y308250D02*X145350Y307500D01*
X98750D02*X100250D01*
X99500Y313500D02*Y307500D01*
X98000Y312000D02*X99500Y313500D01*
X102050Y312750D02*X102800Y313500D01*
X105050D01*
X105800Y312750D01*
Y311250D01*
X102050Y307500D02*X105800Y311250D01*
X102050Y307500D02*X105800D01*
X45000Y308250D02*X45750Y307500D01*
X45000Y312750D02*Y308250D01*
Y312750D02*X45750Y313500D01*
X47250D01*
X48000Y312750D01*
Y308250D01*
X47250Y307500D02*X48000Y308250D01*
X45750Y307500D02*X47250D01*
X45000Y309000D02*X48000Y312000D01*
X49800Y307500D02*X50550D01*
X52350Y308250D02*X53100Y307500D01*
X52350Y312750D02*Y308250D01*
Y312750D02*X53100Y313500D01*
X54600D01*
X55350Y312750D01*
Y308250D01*
X54600Y307500D02*X55350Y308250D01*
X53100Y307500D02*X54600D01*
X52350Y309000D02*X55350Y312000D01*
X57150Y310500D02*X60150Y313500D01*
X57150Y310500D02*X60900D01*
X60150Y313500D02*Y307500D01*
X62700Y308250D02*X63450Y307500D01*
X62700Y309750D02*Y308250D01*
Y309750D02*X63450Y310500D01*
X64950D01*
X65700Y309750D01*
Y308250D01*
X64950Y307500D02*X65700Y308250D01*
X63450Y307500D02*X64950D01*
X62700Y311250D02*X63450Y310500D01*
X62700Y312750D02*Y311250D01*
Y312750D02*X63450Y313500D01*
X64950D01*
X65700Y312750D01*
Y311250D01*
X64950Y310500D02*X65700Y311250D01*
X199200Y20000D02*G75*G03X200800Y20000I800J0D01*G01*
G75*G03X199200Y20000I-800J0D01*G01*
Y30000D02*G75*G03X200800Y30000I800J0D01*G01*
G75*G03X199200Y30000I-800J0D01*G01*
Y40000D02*G75*G03X200800Y40000I800J0D01*G01*
G75*G03X199200Y40000I-800J0D01*G01*
Y50000D02*G75*G03X200800Y50000I800J0D01*G01*
G75*G03X199200Y50000I-800J0D01*G01*
Y60000D02*G75*G03X200800Y60000I800J0D01*G01*
G75*G03X199200Y60000I-800J0D01*G01*
Y70000D02*G75*G03X200800Y70000I800J0D01*G01*
G75*G03X199200Y70000I-800J0D01*G01*
Y80000D02*G75*G03X200800Y80000I800J0D01*G01*
G75*G03X199200Y80000I-800J0D01*G01*
Y90000D02*G75*G03X200800Y90000I800J0D01*G01*
G75*G03X199200Y90000I-800J0D01*G01*
Y106000D02*G75*G03X200800Y106000I800J0D01*G01*
G75*G03X199200Y106000I-800J0D01*G01*
Y116000D02*G75*G03X200800Y116000I800J0D01*G01*
G75*G03X199200Y116000I-800J0D01*G01*
Y126000D02*G75*G03X200800Y126000I800J0D01*G01*
G75*G03X199200Y126000I-800J0D01*G01*
Y136000D02*G75*G03X200800Y136000I800J0D01*G01*
G75*G03X199200Y136000I-800J0D01*G01*
Y146000D02*G75*G03X200800Y146000I800J0D01*G01*
G75*G03X199200Y146000I-800J0D01*G01*
Y156000D02*G75*G03X200800Y156000I800J0D01*G01*
G75*G03X199200Y156000I-800J0D01*G01*
Y166000D02*G75*G03X200800Y166000I800J0D01*G01*
G75*G03X199200Y166000I-800J0D01*G01*
Y176000D02*G75*G03X200800Y176000I800J0D01*G01*
G75*G03X199200Y176000I-800J0D01*G01*
Y186000D02*G75*G03X200800Y186000I800J0D01*G01*
G75*G03X199200Y186000I-800J0D01*G01*
Y196000D02*G75*G03X200800Y196000I800J0D01*G01*
G75*G03X199200Y196000I-800J0D01*G01*
X9200Y160000D02*G75*G03X10800Y160000I800J0D01*G01*
G75*G03X9200Y160000I-800J0D01*G01*
Y150000D02*G75*G03X10800Y150000I800J0D01*G01*
G75*G03X9200Y150000I-800J0D01*G01*
Y140000D02*G75*G03X10800Y140000I800J0D01*G01*
G75*G03X9200Y140000I-800J0D01*G01*
Y130000D02*G75*G03X10800Y130000I800J0D01*G01*
G75*G03X9200Y130000I-800J0D01*G01*
Y120000D02*G75*G03X10800Y120000I800J0D01*G01*
G75*G03X9200Y120000I-800J0D01*G01*
Y110000D02*G75*G03X10800Y110000I800J0D01*G01*
G75*G03X9200Y110000I-800J0D01*G01*
Y100000D02*G75*G03X10800Y100000I800J0D01*G01*
G75*G03X9200Y100000I-800J0D01*G01*
Y90000D02*G75*G03X10800Y90000I800J0D01*G01*
G75*G03X9200Y90000I-800J0D01*G01*
Y70000D02*G75*G03X10800Y70000I800J0D01*G01*
G75*G03X9200Y70000I-800J0D01*G01*
Y60000D02*G75*G03X10800Y60000I800J0D01*G01*
G75*G03X9200Y60000I-800J0D01*G01*
Y50000D02*G75*G03X10800Y50000I800J0D01*G01*
G75*G03X9200Y50000I-800J0D01*G01*
Y40000D02*G75*G03X10800Y40000I800J0D01*G01*
G75*G03X9200Y40000I-800J0D01*G01*
Y30000D02*G75*G03X10800Y30000I800J0D01*G01*
G75*G03X9200Y30000I-800J0D01*G01*
Y20000D02*G75*G03X10800Y20000I800J0D01*G01*
G75*G03X9200Y20000I-800J0D01*G01*
X70200Y62000D02*G75*G03X71800Y62000I800J0D01*G01*
G75*G03X70200Y62000I-800J0D01*G01*
X80200D02*G75*G03X81800Y62000I800J0D01*G01*
G75*G03X80200Y62000I-800J0D01*G01*
X110200D02*G75*G03X111800Y62000I800J0D01*G01*
G75*G03X110200Y62000I-800J0D01*G01*
X120200D02*G75*G03X121800Y62000I800J0D01*G01*
G75*G03X120200Y62000I-800J0D01*G01*
X150200D02*G75*G03X151800Y62000I800J0D01*G01*
G75*G03X150200Y62000I-800J0D01*G01*
X160200D02*G75*G03X161800Y62000I800J0D01*G01*
G75*G03X160200Y62000I-800J0D01*G01*
X30200D02*G75*G03X31800Y62000I800J0D01*G01*
G75*G03X30200Y62000I-800J0D01*G01*
X40200D02*G75*G03X41800Y62000I800J0D01*G01*
G75*G03X40200Y62000I-800J0D01*G01*
X43200Y176000D02*G75*G03X44800Y176000I800J0D01*G01*
G75*G03X43200Y176000I-800J0D01*G01*
Y186000D02*G75*G03X44800Y186000I800J0D01*G01*
G75*G03X43200Y186000I-800J0D01*G01*
Y196000D02*G75*G03X44800Y196000I800J0D01*G01*
G75*G03X43200Y196000I-800J0D01*G01*
X134200Y139000D02*G75*G03X135800Y139000I800J0D01*G01*
G75*G03X134200Y139000I-800J0D01*G01*
Y129000D02*G75*G03X135800Y129000I800J0D01*G01*
G75*G03X134200Y129000I-800J0D01*G01*
X144200Y139000D02*G75*G03X145800Y139000I800J0D01*G01*
G75*G03X144200Y139000I-800J0D01*G01*
Y129000D02*G75*G03X145800Y129000I800J0D01*G01*
G75*G03X144200Y129000I-800J0D01*G01*
X173200D02*G75*G03X174800Y129000I800J0D01*G01*
G75*G03X173200Y129000I-800J0D01*G01*
Y139000D02*G75*G03X174800Y139000I800J0D01*G01*
G75*G03X173200Y139000I-800J0D01*G01*
Y149000D02*G75*G03X174800Y149000I800J0D01*G01*
G75*G03X173200Y149000I-800J0D01*G01*
X163200Y129000D02*G75*G03X164800Y129000I800J0D01*G01*
G75*G03X163200Y129000I-800J0D01*G01*
Y139000D02*G75*G03X164800Y139000I800J0D01*G01*
G75*G03X163200Y139000I-800J0D01*G01*
Y149000D02*G75*G03X164800Y149000I800J0D01*G01*
G75*G03X163200Y149000I-800J0D01*G01*
Y214000D02*G75*G03X164800Y214000I800J0D01*G01*
G75*G03X163200Y214000I-800J0D01*G01*
Y204000D02*G75*G03X164800Y204000I800J0D01*G01*
G75*G03X163200Y204000I-800J0D01*G01*
Y194000D02*G75*G03X164800Y194000I800J0D01*G01*
G75*G03X163200Y194000I-800J0D01*G01*
X173200Y214000D02*G75*G03X174800Y214000I800J0D01*G01*
G75*G03X173200Y214000I-800J0D01*G01*
Y204000D02*G75*G03X174800Y204000I800J0D01*G01*
G75*G03X173200Y204000I-800J0D01*G01*
Y194000D02*G75*G03X174800Y194000I800J0D01*G01*
G75*G03X173200Y194000I-800J0D01*G01*
X85200Y117000D02*G75*G03X86800Y117000I800J0D01*G01*
G75*G03X85200Y117000I-800J0D01*G01*
Y107000D02*G75*G03X86800Y107000I800J0D01*G01*
G75*G03X85200Y107000I-800J0D01*G01*
X14200Y326250D02*G75*G03X15800Y326250I800J0D01*G01*
G75*G03X14200Y326250I-800J0D01*G01*
X135000Y328500D02*Y327750D01*
X136500Y326250D01*
X138000Y327750D01*
Y328500D02*Y327750D01*
X136500Y326250D02*Y322500D01*
X139800Y325500D02*X142050D01*
X139800Y322500D02*X142800D01*
X139800Y328500D02*Y322500D01*
Y328500D02*X142800D01*
X147600D02*X148350Y327750D01*
X145350Y328500D02*X147600D01*
X144600Y327750D02*X145350Y328500D01*
X144600Y327750D02*Y326250D01*
X145350Y325500D01*
X147600D01*
X148350Y324750D01*
Y323250D01*
X147600Y322500D02*X148350Y323250D01*
X145350Y322500D02*X147600D01*
X144600Y323250D02*X145350Y322500D01*
X100250Y328500D02*X101000Y327750D01*
X98750Y328500D02*X100250D01*
X98000Y327750D02*X98750Y328500D01*
X98000Y327750D02*Y323250D01*
X98750Y322500D01*
X100250Y325500D02*X101000Y324750D01*
X98000Y325500D02*X100250D01*
X98750Y322500D02*X100250D01*
X101000Y323250D01*
Y324750D02*Y323250D01*
X103550Y322500D02*X105050D01*
X104300Y328500D02*Y322500D01*
X102800Y327000D02*X104300Y328500D01*
X45000Y323250D02*X45750Y322500D01*
X45000Y327750D02*Y323250D01*
Y327750D02*X45750Y328500D01*
X47250D01*
X48000Y327750D01*
Y323250D01*
X47250Y322500D02*X48000Y323250D01*
X45750Y322500D02*X47250D01*
X45000Y324000D02*X48000Y327000D01*
X49800Y322500D02*X50550D01*
X52350Y323250D02*X53100Y322500D01*
X52350Y327750D02*Y323250D01*
Y327750D02*X53100Y328500D01*
X54600D01*
X55350Y327750D01*
Y323250D01*
X54600Y322500D02*X55350Y323250D01*
X53100Y322500D02*X54600D01*
X52350Y324000D02*X55350Y327000D01*
X57150Y327750D02*X57900Y328500D01*
X59400D01*
X60150Y327750D01*
Y323250D01*
X59400Y322500D02*X60150Y323250D01*
X57900Y322500D02*X59400D01*
X57150Y323250D02*X57900Y322500D01*
Y325500D02*X60150D01*
X61950Y323250D02*X62700Y322500D01*
X61950Y324750D02*Y323250D01*
Y324750D02*X62700Y325500D01*
X64200D01*
X64950Y324750D01*
Y323250D01*
X64200Y322500D02*X64950Y323250D01*
X62700Y322500D02*X64200D01*
X61950Y326250D02*X62700Y325500D01*
X61950Y327750D02*Y326250D01*
Y327750D02*X62700Y328500D01*
X64200D01*
X64950Y327750D01*
Y326250D01*
X64200Y325500D02*X64950Y326250D01*
X101300Y204200D02*X103700Y201800D01*
X101300D02*X103700Y204200D01*
X96300Y214200D02*X98700Y211800D01*
X96300D02*X98700Y214200D01*
X91300Y204200D02*X93700Y201800D01*
X91300D02*X93700Y204200D01*
X86300Y214200D02*X88700Y211800D01*
X86300D02*X88700Y214200D01*
X81300Y204200D02*X83700Y201800D01*
X81300D02*X83700Y204200D01*
X76300Y214200D02*X78700Y211800D01*
X76300D02*X78700Y214200D01*
X13800Y342450D02*X16200Y340050D01*
X13800D02*X16200Y342450D01*
X135000Y343500D02*Y342750D01*
X136500Y341250D01*
X138000Y342750D01*
Y343500D02*Y342750D01*
X136500Y341250D02*Y337500D01*
X139800Y340500D02*X142050D01*
X139800Y337500D02*X142800D01*
X139800Y343500D02*Y337500D01*
Y343500D02*X142800D01*
X147600D02*X148350Y342750D01*
X145350Y343500D02*X147600D01*
X144600Y342750D02*X145350Y343500D01*
X144600Y342750D02*Y341250D01*
X145350Y340500D01*
X147600D01*
X148350Y339750D01*
Y338250D01*
X147600Y337500D02*X148350Y338250D01*
X145350Y337500D02*X147600D01*
X144600Y338250D02*X145350Y337500D01*
X100250Y343500D02*X101000Y342750D01*
X98750Y343500D02*X100250D01*
X98000Y342750D02*X98750Y343500D01*
X98000Y342750D02*Y338250D01*
X98750Y337500D01*
X100250Y340500D02*X101000Y339750D01*
X98000Y340500D02*X100250D01*
X98750Y337500D02*X100250D01*
X101000Y338250D01*
Y339750D02*Y338250D01*
X45000D02*X45750Y337500D01*
X45000Y342750D02*Y338250D01*
Y342750D02*X45750Y343500D01*
X47250D01*
X48000Y342750D01*
Y338250D01*
X47250Y337500D02*X48000Y338250D01*
X45750Y337500D02*X47250D01*
X45000Y339000D02*X48000Y342000D01*
X49800Y337500D02*X50550D01*
X52350Y338250D02*X53100Y337500D01*
X52350Y342750D02*Y338250D01*
Y342750D02*X53100Y343500D01*
X54600D01*
X55350Y342750D01*
Y338250D01*
X54600Y337500D02*X55350Y338250D01*
X53100Y337500D02*X54600D01*
X52350Y339000D02*X55350Y342000D01*
X57150Y342750D02*X57900Y343500D01*
X59400D01*
X60150Y342750D01*
Y338250D01*
X59400Y337500D02*X60150Y338250D01*
X57900Y337500D02*X59400D01*
X57150Y338250D02*X57900Y337500D01*
Y340500D02*X60150D01*
X61950Y338250D02*X62700Y337500D01*
X61950Y342750D02*Y338250D01*
Y342750D02*X62700Y343500D01*
X64200D01*
X64950Y342750D01*
Y338250D01*
X64200Y337500D02*X64950Y338250D01*
X62700Y337500D02*X64200D01*
X61950Y339000D02*X64950Y342000D01*
X16000Y197600D02*Y194400D01*
X14400Y196000D02*X17600D01*
X16000Y192600D02*Y189400D01*
X14400Y191000D02*X17600D01*
X16000Y187600D02*Y184400D01*
X14400Y186000D02*X17600D01*
X16000Y182600D02*Y179400D01*
X14400Y181000D02*X17600D01*
X16000Y177600D02*Y174400D01*
X14400Y176000D02*X17600D01*
X15000Y357850D02*Y354650D01*
X13400Y356250D02*X16600D01*
X135000Y358500D02*Y357750D01*
X136500Y356250D01*
X138000Y357750D01*
Y358500D02*Y357750D01*
X136500Y356250D02*Y352500D01*
X139800Y355500D02*X142050D01*
X139800Y352500D02*X142800D01*
X139800Y358500D02*Y352500D01*
Y358500D02*X142800D01*
X147600D02*X148350Y357750D01*
X145350Y358500D02*X147600D01*
X144600Y357750D02*X145350Y358500D01*
X144600Y357750D02*Y356250D01*
X145350Y355500D01*
X147600D01*
X148350Y354750D01*
Y353250D01*
X147600Y352500D02*X148350Y353250D01*
X145350Y352500D02*X147600D01*
X144600Y353250D02*X145350Y352500D01*
X98000Y358500D02*X101000D01*
X98000D02*Y355500D01*
X98750Y356250D01*
X100250D01*
X101000Y355500D01*
Y353250D01*
X100250Y352500D02*X101000Y353250D01*
X98750Y352500D02*X100250D01*
X98000Y353250D02*X98750Y352500D01*
X45000Y353250D02*X45750Y352500D01*
X45000Y357750D02*Y353250D01*
Y357750D02*X45750Y358500D01*
X47250D01*
X48000Y357750D01*
Y353250D01*
X47250Y352500D02*X48000Y353250D01*
X45750Y352500D02*X47250D01*
X45000Y354000D02*X48000Y357000D01*
X49800Y352500D02*X50550D01*
X52350Y353250D02*X53100Y352500D01*
X52350Y357750D02*Y353250D01*
Y357750D02*X53100Y358500D01*
X54600D01*
X55350Y357750D01*
Y353250D01*
X54600Y352500D02*X55350Y353250D01*
X53100Y352500D02*X54600D01*
X52350Y354000D02*X55350Y357000D01*
X57150Y357750D02*X57900Y358500D01*
X60150D01*
X60900Y357750D01*
Y356250D01*
X57150Y352500D02*X60900Y356250D01*
X57150Y352500D02*X60900D01*
X62700Y355500D02*X65700Y358500D01*
X62700Y355500D02*X66450D01*
X65700Y358500D02*Y352500D01*
X64000Y94000D02*Y92400D01*
Y94000D02*X65387Y94800D01*
X64000Y94000D02*X62613Y94800D01*
X146000Y114000D02*Y112400D01*
Y114000D02*X147387Y114800D01*
X146000Y114000D02*X144613Y114800D01*
X59000Y94000D02*Y92400D01*
Y94000D02*X60387Y94800D01*
X59000Y94000D02*X57613Y94800D01*
X54000Y94000D02*Y92400D01*
Y94000D02*X55387Y94800D01*
X54000Y94000D02*X52613Y94800D01*
X70000Y112000D02*Y110400D01*
Y112000D02*X71387Y112800D01*
X70000Y112000D02*X68613Y112800D01*
X70000Y118000D02*Y116400D01*
Y118000D02*X71387Y118800D01*
X70000Y118000D02*X68613Y118800D01*
X140000Y114000D02*Y112400D01*
Y114000D02*X141387Y114800D01*
X140000Y114000D02*X138613Y114800D01*
X65000Y112000D02*Y110400D01*
Y112000D02*X66387Y112800D01*
X65000Y112000D02*X63613Y112800D01*
X48000Y140000D02*Y138400D01*
Y140000D02*X49387Y140800D01*
X48000Y140000D02*X46613Y140800D01*
X48000Y145000D02*Y143400D01*
Y145000D02*X49387Y145800D01*
X48000Y145000D02*X46613Y145800D01*
X54000Y171000D02*Y169400D01*
Y171000D02*X55387Y171800D01*
X54000Y171000D02*X52613Y171800D01*
X75000Y188000D02*Y186400D01*
Y188000D02*X76387Y188800D01*
X75000Y188000D02*X73613Y188800D01*
X23000Y207000D02*Y205400D01*
Y207000D02*X24387Y207800D01*
X23000Y207000D02*X21613Y207800D01*
X29000Y207000D02*Y205400D01*
Y207000D02*X30387Y207800D01*
X29000Y207000D02*X27613Y207800D01*
X35000Y207000D02*Y205400D01*
Y207000D02*X36387Y207800D01*
X35000Y207000D02*X33613Y207800D01*
X41000Y207000D02*Y205400D01*
Y207000D02*X42387Y207800D01*
X41000Y207000D02*X39613Y207800D01*
X173000Y117000D02*Y115400D01*
Y117000D02*X174387Y117800D01*
X173000Y117000D02*X171613Y117800D01*
X116000Y125000D02*Y123400D01*
Y125000D02*X117387Y125800D01*
X116000Y125000D02*X114613Y125800D01*
X94000Y108000D02*Y106400D01*
Y108000D02*X95387Y108800D01*
X94000Y108000D02*X92613Y108800D01*
X100000Y108000D02*Y106400D01*
Y108000D02*X101387Y108800D01*
X100000Y108000D02*X98613Y108800D01*
X77000Y123000D02*Y121400D01*
Y123000D02*X78387Y123800D01*
X77000Y123000D02*X75613Y123800D01*
X122000Y215000D02*Y213400D01*
Y215000D02*X123387Y215800D01*
X122000Y215000D02*X120613Y215800D01*
X15000Y371250D02*Y369650D01*
Y371250D02*X16387Y372050D01*
X15000Y371250D02*X13613Y372050D01*
X135000Y373500D02*Y372750D01*
X136500Y371250D01*
X138000Y372750D01*
Y373500D02*Y372750D01*
X136500Y371250D02*Y367500D01*
X139800Y370500D02*X142050D01*
X139800Y367500D02*X142800D01*
X139800Y373500D02*Y367500D01*
Y373500D02*X142800D01*
X147600D02*X148350Y372750D01*
X145350Y373500D02*X147600D01*
X144600Y372750D02*X145350Y373500D01*
X144600Y372750D02*Y371250D01*
X145350Y370500D01*
X147600D01*
X148350Y369750D01*
Y368250D01*
X147600Y367500D02*X148350Y368250D01*
X145350Y367500D02*X147600D01*
X144600Y368250D02*X145350Y367500D01*
X98000Y372750D02*X98750Y373500D01*
X101000D01*
X101750Y372750D01*
Y371250D01*
X98000Y367500D02*X101750Y371250D01*
X98000Y367500D02*X101750D01*
X103550Y372750D02*X104300Y373500D01*
X106550D01*
X107300Y372750D01*
Y371250D01*
X103550Y367500D02*X107300Y371250D01*
X103550Y367500D02*X107300D01*
X45000Y368250D02*X45750Y367500D01*
X45000Y372750D02*Y368250D01*
Y372750D02*X45750Y373500D01*
X47250D01*
X48000Y372750D01*
Y368250D01*
X47250Y367500D02*X48000Y368250D01*
X45750Y367500D02*X47250D01*
X45000Y369000D02*X48000Y372000D01*
X49800Y367500D02*X50550D01*
X52350Y368250D02*X53100Y367500D01*
X52350Y372750D02*Y368250D01*
Y372750D02*X53100Y373500D01*
X54600D01*
X55350Y372750D01*
Y368250D01*
X54600Y367500D02*X55350Y368250D01*
X53100Y367500D02*X54600D01*
X52350Y369000D02*X55350Y372000D01*
X57150Y372750D02*X57900Y373500D01*
X60150D01*
X60900Y372750D01*
Y371250D01*
X57150Y367500D02*X60900Y371250D01*
X57150Y367500D02*X60900D01*
X62700Y368250D02*X63450Y367500D01*
X62700Y372750D02*Y368250D01*
Y372750D02*X63450Y373500D01*
X64950D01*
X65700Y372750D01*
Y368250D01*
X64950Y367500D02*X65700Y368250D01*
X63450Y367500D02*X64950D01*
X62700Y369000D02*X65700Y372000D01*
X3000Y388500D02*X3750Y387750D01*
X750Y388500D02*X3000D01*
X0Y387750D02*X750Y388500D01*
X0Y387750D02*Y386250D01*
X750Y385500D01*
X3000D01*
X3750Y384750D01*
Y383250D01*
X3000Y382500D02*X3750Y383250D01*
X750Y382500D02*X3000D01*
X0Y383250D02*X750Y382500D01*
X5550Y385500D02*Y383250D01*
X6300Y382500D01*
X8550Y385500D02*Y381000D01*
X7800Y380250D02*X8550Y381000D01*
X6300Y380250D02*X7800D01*
X5550Y381000D02*X6300Y380250D01*
Y382500D02*X7800D01*
X8550Y383250D01*
X11100Y384750D02*Y382500D01*
Y384750D02*X11850Y385500D01*
X12600D01*
X13350Y384750D01*
Y382500D01*
Y384750D02*X14100Y385500D01*
X14850D01*
X15600Y384750D01*
Y382500D01*
X10350Y385500D02*X11100Y384750D01*
X17400Y388500D02*Y382500D01*
Y383250D02*X18150Y382500D01*
X19650D01*
X20400Y383250D01*
Y384750D02*Y383250D01*
X19650Y385500D02*X20400Y384750D01*
X18150Y385500D02*X19650D01*
X17400Y384750D02*X18150Y385500D01*
X22200Y384750D02*Y383250D01*
Y384750D02*X22950Y385500D01*
X24450D01*
X25200Y384750D01*
Y383250D01*
X24450Y382500D02*X25200Y383250D01*
X22950Y382500D02*X24450D01*
X22200Y383250D02*X22950Y382500D01*
X27000Y388500D02*Y383250D01*
X27750Y382500D01*
X0Y379250D02*X29250D01*
X41750Y388500D02*Y382500D01*
X44000Y388500D02*X44750Y387750D01*
Y383250D01*
X44000Y382500D02*X44750Y383250D01*
X41000Y382500D02*X44000D01*
X41000Y388500D02*X44000D01*
X46550Y387000D02*Y386250D01*
Y384750D02*Y382500D01*
X50300Y385500D02*X51050Y384750D01*
X48800Y385500D02*X50300D01*
X48050Y384750D02*X48800Y385500D01*
X48050Y384750D02*Y383250D01*
X48800Y382500D01*
X51050Y385500D02*Y383250D01*
X51800Y382500D01*
X48800D02*X50300D01*
X51050Y383250D01*
X54350Y384750D02*Y382500D01*
Y384750D02*X55100Y385500D01*
X55850D01*
X56600Y384750D01*
Y382500D01*
Y384750D02*X57350Y385500D01*
X58100D01*
X58850Y384750D01*
Y382500D01*
X53600Y385500D02*X54350Y384750D01*
X60650Y382500D02*X61400D01*
X65900Y383250D02*X66650Y382500D01*
X65900Y387750D02*X66650Y388500D01*
X65900Y387750D02*Y383250D01*
X68450Y388500D02*X69950D01*
X69200D02*Y382500D01*
X68450D02*X69950D01*
X72500Y384750D02*Y382500D01*
Y384750D02*X73250Y385500D01*
X74000D01*
X74750Y384750D01*
Y382500D01*
X71750Y385500D02*X72500Y384750D01*
X77300Y385500D02*X79550D01*
X76550Y384750D02*X77300Y385500D01*
X76550Y384750D02*Y383250D01*
X77300Y382500D01*
X79550D01*
X81350Y388500D02*Y382500D01*
Y384750D02*X82100Y385500D01*
X83600D01*
X84350Y384750D01*
Y382500D01*
X86150Y388500D02*X86900Y387750D01*
Y383250D01*
X86150Y382500D02*X86900Y383250D01*
X41000Y379250D02*X88700D01*
X95750Y382500D02*X98000D01*
X95000Y383250D02*X95750Y382500D01*
X95000Y387750D02*Y383250D01*
Y387750D02*X95750Y388500D01*
X98000D01*
X99800Y384750D02*Y383250D01*
Y384750D02*X100550Y385500D01*
X102050D01*
X102800Y384750D01*
Y383250D01*
X102050Y382500D02*X102800Y383250D01*
X100550Y382500D02*X102050D01*
X99800Y383250D02*X100550Y382500D01*
X104600Y385500D02*Y383250D01*
X105350Y382500D01*
X106850D01*
X107600Y383250D01*
Y385500D02*Y383250D01*
X110150Y384750D02*Y382500D01*
Y384750D02*X110900Y385500D01*
X111650D01*
X112400Y384750D01*
Y382500D01*
X109400Y385500D02*X110150Y384750D01*
X114950Y388500D02*Y383250D01*
X115700Y382500D01*
X114200Y386250D02*X115700D01*
X95000Y379250D02*X117200D01*
X130750Y388500D02*Y382500D01*
X130000Y388500D02*X133000D01*
X133750Y387750D01*
Y386250D01*
X133000Y385500D02*X133750Y386250D01*
X130750Y385500D02*X133000D01*
X135550Y388500D02*Y383250D01*
X136300Y382500D01*
X140050Y385500D02*X140800Y384750D01*
X138550Y385500D02*X140050D01*
X137800Y384750D02*X138550Y385500D01*
X137800Y384750D02*Y383250D01*
X138550Y382500D01*
X140800Y385500D02*Y383250D01*
X141550Y382500D01*
X138550D02*X140050D01*
X140800Y383250D01*
X144100Y388500D02*Y383250D01*
X144850Y382500D01*
X143350Y386250D02*X144850D01*
X147100Y382500D02*X149350D01*
X146350Y383250D02*X147100Y382500D01*
X146350Y384750D02*Y383250D01*
Y384750D02*X147100Y385500D01*
X148600D01*
X149350Y384750D01*
X146350Y384000D02*X149350D01*
Y384750D02*Y384000D01*
X154150Y388500D02*Y382500D01*
X153400D02*X154150Y383250D01*
X151900Y382500D02*X153400D01*
X151150Y383250D02*X151900Y382500D01*
X151150Y384750D02*Y383250D01*
Y384750D02*X151900Y385500D01*
X153400D01*
X154150Y384750D01*
X157450Y385500D02*Y384750D01*
Y383250D02*Y382500D01*
X155950Y387750D02*Y387000D01*
Y387750D02*X156700Y388500D01*
X158200D01*
X158950Y387750D01*
Y387000D01*
X157450Y385500D02*X158950Y387000D01*
X130000Y379250D02*X160750D01*
X0Y403500D02*X3000D01*
X1500D02*Y397500D01*
X4800Y403500D02*Y397500D01*
Y399750D02*X5550Y400500D01*
X7050D01*
X7800Y399750D01*
Y397500D01*
X10350D02*X12600D01*
X9600Y398250D02*X10350Y397500D01*
X9600Y399750D02*Y398250D01*
Y399750D02*X10350Y400500D01*
X11850D01*
X12600Y399750D01*
X9600Y399000D02*X12600D01*
Y399750D02*Y399000D01*
X15150Y399750D02*Y397500D01*
Y399750D02*X15900Y400500D01*
X17400D01*
X14400D02*X15150Y399750D01*
X19950Y397500D02*X22200D01*
X19200Y398250D02*X19950Y397500D01*
X19200Y399750D02*Y398250D01*
Y399750D02*X19950Y400500D01*
X21450D01*
X22200Y399750D01*
X19200Y399000D02*X22200D01*
Y399750D02*Y399000D01*
X28950Y400500D02*X29700Y399750D01*
X27450Y400500D02*X28950D01*
X26700Y399750D02*X27450Y400500D01*
X26700Y399750D02*Y398250D01*
X27450Y397500D01*
X29700Y400500D02*Y398250D01*
X30450Y397500D01*
X27450D02*X28950D01*
X29700Y398250D01*
X33000Y399750D02*Y397500D01*
Y399750D02*X33750Y400500D01*
X35250D01*
X32250D02*X33000Y399750D01*
X37800Y397500D02*X40050D01*
X37050Y398250D02*X37800Y397500D01*
X37050Y399750D02*Y398250D01*
Y399750D02*X37800Y400500D01*
X39300D01*
X40050Y399750D01*
X37050Y399000D02*X40050D01*
Y399750D02*Y399000D01*
X44550Y397500D02*X48300Y401250D01*
Y403500D02*Y401250D01*
X44550Y403500D02*X48300D01*
X55800D02*Y397500D01*
X55050D02*X55800Y398250D01*
X53550Y397500D02*X55050D01*
X52800Y398250D02*X53550Y397500D01*
X52800Y399750D02*Y398250D01*
Y399750D02*X53550Y400500D01*
X55050D01*
X55800Y399750D01*
X57600Y402000D02*Y401250D01*
Y399750D02*Y397500D01*
X59850Y402750D02*Y397500D01*
Y402750D02*X60600Y403500D01*
X61350D01*
X59100Y400500D02*X60600D01*
X63600Y402750D02*Y397500D01*
Y402750D02*X64350Y403500D01*
X65100D01*
X62850Y400500D02*X64350D01*
X67350Y397500D02*X69600D01*
X66600Y398250D02*X67350Y397500D01*
X66600Y399750D02*Y398250D01*
Y399750D02*X67350Y400500D01*
X68850D01*
X69600Y399750D01*
X66600Y399000D02*X69600D01*
Y399750D02*Y399000D01*
X72150Y399750D02*Y397500D01*
Y399750D02*X72900Y400500D01*
X74400D01*
X71400D02*X72150Y399750D01*
X76950Y397500D02*X79200D01*
X76200Y398250D02*X76950Y397500D01*
X76200Y399750D02*Y398250D01*
Y399750D02*X76950Y400500D01*
X78450D01*
X79200Y399750D01*
X76200Y399000D02*X79200D01*
Y399750D02*Y399000D01*
X81750Y399750D02*Y397500D01*
Y399750D02*X82500Y400500D01*
X83250D01*
X84000Y399750D01*
Y397500D01*
X81000Y400500D02*X81750Y399750D01*
X86550Y403500D02*Y398250D01*
X87300Y397500D01*
X85800Y401250D02*X87300D01*
X94500Y403500D02*Y397500D01*
X93750D02*X94500Y398250D01*
X92250Y397500D02*X93750D01*
X91500Y398250D02*X92250Y397500D01*
X91500Y399750D02*Y398250D01*
Y399750D02*X92250Y400500D01*
X93750D01*
X94500Y399750D01*
X97050D02*Y397500D01*
Y399750D02*X97800Y400500D01*
X99300D01*
X96300D02*X97050Y399750D01*
X101100Y402000D02*Y401250D01*
Y399750D02*Y397500D01*
X102600Y403500D02*Y398250D01*
X103350Y397500D01*
X104850Y403500D02*Y398250D01*
X105600Y397500D01*
X110550D02*X112800D01*
X113550Y398250D01*
X112800Y399000D02*X113550Y398250D01*
X110550Y399000D02*X112800D01*
X109800Y399750D02*X110550Y399000D01*
X109800Y399750D02*X110550Y400500D01*
X112800D01*
X113550Y399750D01*
X109800Y398250D02*X110550Y397500D01*
X115350Y402000D02*Y401250D01*
Y399750D02*Y397500D01*
X116850Y400500D02*X119850D01*
X116850Y397500D02*X119850Y400500D01*
X116850Y397500D02*X119850D01*
X122400D02*X124650D01*
X121650Y398250D02*X122400Y397500D01*
X121650Y399750D02*Y398250D01*
Y399750D02*X122400Y400500D01*
X123900D01*
X124650Y399750D01*
X121650Y399000D02*X124650D01*
Y399750D02*Y399000D01*
X127200Y397500D02*X129450D01*
X130200Y398250D01*
X129450Y399000D02*X130200Y398250D01*
X127200Y399000D02*X129450D01*
X126450Y399750D02*X127200Y399000D01*
X126450Y399750D02*X127200Y400500D01*
X129450D01*
X130200Y399750D01*
X126450Y398250D02*X127200Y397500D01*
X134700Y400500D02*Y398250D01*
X135450Y397500D01*
X136950D01*
X137700Y398250D01*
Y400500D02*Y398250D01*
X140250Y397500D02*X142500D01*
X143250Y398250D01*
X142500Y399000D02*X143250Y398250D01*
X140250Y399000D02*X142500D01*
X139500Y399750D02*X140250Y399000D01*
X139500Y399750D02*X140250Y400500D01*
X142500D01*
X143250Y399750D01*
X139500Y398250D02*X140250Y397500D01*
X145800D02*X148050D01*
X145050Y398250D02*X145800Y397500D01*
X145050Y399750D02*Y398250D01*
Y399750D02*X145800Y400500D01*
X147300D01*
X148050Y399750D01*
X145050Y399000D02*X148050D01*
Y399750D02*Y399000D01*
X152850Y403500D02*Y397500D01*
X152100D02*X152850Y398250D01*
X150600Y397500D02*X152100D01*
X149850Y398250D02*X150600Y397500D01*
X149850Y399750D02*Y398250D01*
Y399750D02*X150600Y400500D01*
X152100D01*
X152850Y399750D01*
X157350Y402000D02*Y401250D01*
Y399750D02*Y397500D01*
X159600Y399750D02*Y397500D01*
Y399750D02*X160350Y400500D01*
X161100D01*
X161850Y399750D01*
Y397500D01*
X158850Y400500D02*X159600Y399750D01*
X167100Y403500D02*Y398250D01*
X167850Y397500D01*
X166350Y401250D02*X167850D01*
X169350Y403500D02*Y397500D01*
Y399750D02*X170100Y400500D01*
X171600D01*
X172350Y399750D01*
Y397500D01*
X174150Y402000D02*Y401250D01*
Y399750D02*Y397500D01*
X176400D02*X178650D01*
X179400Y398250D01*
X178650Y399000D02*X179400Y398250D01*
X176400Y399000D02*X178650D01*
X175650Y399750D02*X176400Y399000D01*
X175650Y399750D02*X176400Y400500D01*
X178650D01*
X179400Y399750D01*
X175650Y398250D02*X176400Y397500D01*
X183900Y403500D02*Y398250D01*
X184650Y397500D01*
X188400Y400500D02*X189150Y399750D01*
X186900Y400500D02*X188400D01*
X186150Y399750D02*X186900Y400500D01*
X186150Y399750D02*Y398250D01*
X186900Y397500D01*
X189150Y400500D02*Y398250D01*
X189900Y397500D01*
X186900D02*X188400D01*
X189150Y398250D01*
X191700Y400500D02*Y398250D01*
X192450Y397500D01*
X194700Y400500D02*Y396000D01*
X193950Y395250D02*X194700Y396000D01*
X192450Y395250D02*X193950D01*
X191700Y396000D02*X192450Y395250D01*
Y397500D02*X193950D01*
X194700Y398250D01*
X196500Y399750D02*Y398250D01*
Y399750D02*X197250Y400500D01*
X198750D01*
X199500Y399750D01*
Y398250D01*
X198750Y397500D02*X199500Y398250D01*
X197250Y397500D02*X198750D01*
X196500Y398250D02*X197250Y397500D01*
X201300Y400500D02*Y398250D01*
X202050Y397500D01*
X203550D01*
X204300Y398250D01*
Y400500D02*Y398250D01*
X206850Y403500D02*Y398250D01*
X207600Y397500D01*
X206100Y401250D02*X207600D01*
X209100Y396000D02*X210600Y397500D01*
X215850D02*X217350D01*
X216600Y403500D02*Y397500D01*
X215100Y402000D02*X216600Y403500D01*
X219900Y397500D02*X221400D01*
X220650Y403500D02*Y397500D01*
X219150Y402000D02*X220650Y403500D01*
X223200Y402750D02*X223950Y403500D01*
X226200D01*
X226950Y402750D01*
Y401250D01*
X223200Y397500D02*X226950Y401250D01*
X223200Y397500D02*X226950D01*
X231450Y403500D02*Y397500D01*
Y399750D02*X232200Y400500D01*
X233700D01*
X234450Y399750D01*
Y397500D01*
X236250Y399750D02*Y398250D01*
Y399750D02*X237000Y400500D01*
X238500D01*
X239250Y399750D01*
Y398250D01*
X238500Y397500D02*X239250Y398250D01*
X237000Y397500D02*X238500D01*
X236250Y398250D02*X237000Y397500D01*
X241050Y403500D02*Y398250D01*
X241800Y397500D01*
X244050D02*X246300D01*
X243300Y398250D02*X244050Y397500D01*
X243300Y399750D02*Y398250D01*
Y399750D02*X244050Y400500D01*
X245550D01*
X246300Y399750D01*
X243300Y399000D02*X246300D01*
Y399750D02*Y399000D01*
X248850Y397500D02*X251100D01*
X251850Y398250D01*
X251100Y399000D02*X251850Y398250D01*
X248850Y399000D02*X251100D01*
X248100Y399750D02*X248850Y399000D01*
X248100Y399750D02*X248850Y400500D01*
X251100D01*
X251850Y399750D01*
X248100Y398250D02*X248850Y397500D01*
X257100Y403500D02*Y398250D01*
X257850Y397500D01*
X256350Y401250D02*X257850D01*
X259350Y399750D02*Y398250D01*
Y399750D02*X260100Y400500D01*
X261600D01*
X262350Y399750D01*
Y398250D01*
X261600Y397500D02*X262350Y398250D01*
X260100Y397500D02*X261600D01*
X259350Y398250D02*X260100Y397500D01*
X264900Y403500D02*Y398250D01*
X265650Y397500D01*
X264150Y401250D02*X265650D01*
X269400Y400500D02*X270150Y399750D01*
X267900Y400500D02*X269400D01*
X267150Y399750D02*X267900Y400500D01*
X267150Y399750D02*Y398250D01*
X267900Y397500D01*
X270150Y400500D02*Y398250D01*
X270900Y397500D01*
X267900D02*X269400D01*
X270150Y398250D01*
X272700Y403500D02*Y398250D01*
X273450Y397500D01*
G54D79*X0Y270000D02*Y10000D01*
X210000D02*Y270000D01*
X0D01*
Y10000D02*X10300D01*
X20300Y0D01*
X149700D01*
X159700Y10000D01*
X210000D01*
G54D78*X18675Y-9500D02*X21675D01*
X22425Y-8750D01*
Y-7250D02*Y-8750D01*
X21675Y-6500D02*X22425Y-7250D01*
X19425Y-6500D02*X21675D01*
X19425Y-3500D02*Y-9500D01*
X18675Y-3500D02*X21675D01*
X22425Y-4250D01*
Y-5750D01*
X21675Y-6500D02*X22425Y-5750D01*
X24225Y-7250D02*Y-8750D01*
Y-7250D02*X24975Y-6500D01*
X26475D01*
X27225Y-7250D01*
Y-8750D01*
X26475Y-9500D02*X27225Y-8750D01*
X24975Y-9500D02*X26475D01*
X24225Y-8750D02*X24975Y-9500D01*
X31275Y-6500D02*X32025Y-7250D01*
X29775Y-6500D02*X31275D01*
X29025Y-7250D02*X29775Y-6500D01*
X29025Y-7250D02*Y-8750D01*
X29775Y-9500D01*
X32025Y-6500D02*Y-8750D01*
X32775Y-9500D01*
X29775D02*X31275D01*
X32025Y-8750D01*
X35325Y-7250D02*Y-9500D01*
Y-7250D02*X36075Y-6500D01*
X37575D01*
X34575D02*X35325Y-7250D01*
X42375Y-3500D02*Y-9500D01*
X41625D02*X42375Y-8750D01*
X40125Y-9500D02*X41625D01*
X39375Y-8750D02*X40125Y-9500D01*
X39375Y-7250D02*Y-8750D01*
Y-7250D02*X40125Y-6500D01*
X41625D01*
X42375Y-7250D01*
X46875D02*Y-8750D01*
Y-7250D02*X47625Y-6500D01*
X49125D01*
X49875Y-7250D01*
Y-8750D01*
X49125Y-9500D02*X49875Y-8750D01*
X47625Y-9500D02*X49125D01*
X46875Y-8750D02*X47625Y-9500D01*
X51675Y-6500D02*Y-8750D01*
X52425Y-9500D01*
X53925D01*
X54675Y-8750D01*
Y-6500D02*Y-8750D01*
X57225Y-3500D02*Y-8750D01*
X57975Y-9500D01*
X56475Y-5750D02*X57975D01*
X59475Y-3500D02*Y-8750D01*
X60225Y-9500D01*
X61725Y-5000D02*Y-5750D01*
Y-7250D02*Y-9500D01*
X63975Y-7250D02*Y-9500D01*
Y-7250D02*X64725Y-6500D01*
X65475D01*
X66225Y-7250D01*
Y-9500D01*
X63225Y-6500D02*X63975Y-7250D01*
X68775Y-9500D02*X71025D01*
X68025Y-8750D02*X68775Y-9500D01*
X68025Y-7250D02*Y-8750D01*
Y-7250D02*X68775Y-6500D01*
X70275D01*
X71025Y-7250D01*
X68025Y-8000D02*X71025D01*
Y-7250D02*Y-8000D01*
X75525Y-5000D02*Y-5750D01*
Y-7250D02*Y-9500D01*
X77775D02*X80025D01*
X80775Y-8750D01*
X80025Y-8000D02*X80775Y-8750D01*
X77775Y-8000D02*X80025D01*
X77025Y-7250D02*X77775Y-8000D01*
X77025Y-7250D02*X77775Y-6500D01*
X80025D01*
X80775Y-7250D01*
X77025Y-8750D02*X77775Y-9500D01*
X86025Y-3500D02*Y-8750D01*
X86775Y-9500D01*
X85275Y-5750D02*X86775D01*
X88275Y-3500D02*Y-9500D01*
Y-7250D02*X89025Y-6500D01*
X90525D01*
X91275Y-7250D01*
Y-9500D01*
X93825D02*X96075D01*
X93075Y-8750D02*X93825Y-9500D01*
X93075Y-7250D02*Y-8750D01*
Y-7250D02*X93825Y-6500D01*
X95325D01*
X96075Y-7250D01*
X93075Y-8000D02*X96075D01*
Y-7250D02*Y-8000D01*
X101325Y-6500D02*X103575D01*
X100575Y-7250D02*X101325Y-6500D01*
X100575Y-7250D02*Y-8750D01*
X101325Y-9500D01*
X103575D01*
X106125D02*X108375D01*
X105375Y-8750D02*X106125Y-9500D01*
X105375Y-7250D02*Y-8750D01*
Y-7250D02*X106125Y-6500D01*
X107625D01*
X108375Y-7250D01*
X105375Y-8000D02*X108375D01*
Y-7250D02*Y-8000D01*
X110925Y-7250D02*Y-9500D01*
Y-7250D02*X111675Y-6500D01*
X112425D01*
X113175Y-7250D01*
Y-9500D01*
X110175Y-6500D02*X110925Y-7250D01*
X115725Y-3500D02*Y-8750D01*
X116475Y-9500D01*
X114975Y-5750D02*X116475D01*
X118725Y-9500D02*X120975D01*
X117975Y-8750D02*X118725Y-9500D01*
X117975Y-7250D02*Y-8750D01*
Y-7250D02*X118725Y-6500D01*
X120225D01*
X120975Y-7250D01*
X117975Y-8000D02*X120975D01*
Y-7250D02*Y-8000D01*
X123525Y-7250D02*Y-9500D01*
Y-7250D02*X124275Y-6500D01*
X125775D01*
X122775D02*X123525Y-7250D01*
X127575Y-3500D02*Y-8750D01*
X128325Y-9500D01*
X129825Y-5000D02*Y-5750D01*
Y-7250D02*Y-9500D01*
X132075Y-7250D02*Y-9500D01*
Y-7250D02*X132825Y-6500D01*
X133575D01*
X134325Y-7250D01*
Y-9500D01*
X131325Y-6500D02*X132075Y-7250D01*
X136875Y-9500D02*X139125D01*
X136125Y-8750D02*X136875Y-9500D01*
X136125Y-7250D02*Y-8750D01*
Y-7250D02*X136875Y-6500D01*
X138375D01*
X139125Y-7250D01*
X136125Y-8000D02*X139125D01*
Y-7250D02*Y-8000D01*
X143625Y-7250D02*Y-8750D01*
Y-7250D02*X144375Y-6500D01*
X145875D01*
X146625Y-7250D01*
Y-8750D01*
X145875Y-9500D02*X146625Y-8750D01*
X144375Y-9500D02*X145875D01*
X143625Y-8750D02*X144375Y-9500D01*
X149175Y-4250D02*Y-9500D01*
Y-4250D02*X149925Y-3500D01*
X150675D01*
X148425Y-6500D02*X149925D01*
X155625Y-3500D02*Y-8750D01*
X156375Y-9500D01*
X154875Y-5750D02*X156375D01*
X157875Y-3500D02*Y-9500D01*
Y-7250D02*X158625Y-6500D01*
X160125D01*
X160875Y-7250D01*
Y-9500D01*
X162675Y-5000D02*Y-5750D01*
Y-7250D02*Y-9500D01*
X164925D02*X167175D01*
X167925Y-8750D01*
X167175Y-8000D02*X167925Y-8750D01*
X164925Y-8000D02*X167175D01*
X164175Y-7250D02*X164925Y-8000D01*
X164175Y-7250D02*X164925Y-6500D01*
X167175D01*
X167925Y-7250D01*
X164175Y-8750D02*X164925Y-9500D01*
X173175Y-7250D02*Y-11750D01*
X172425Y-6500D02*X173175Y-7250D01*
X173925Y-6500D01*
X175425D01*
X176175Y-7250D01*
Y-8750D01*
X175425Y-9500D02*X176175Y-8750D01*
X173925Y-9500D02*X175425D01*
X173175Y-8750D02*X173925Y-9500D01*
X180225Y-6500D02*X180975Y-7250D01*
X178725Y-6500D02*X180225D01*
X177975Y-7250D02*X178725Y-6500D01*
X177975Y-7250D02*Y-8750D01*
X178725Y-9500D01*
X180975Y-6500D02*Y-8750D01*
X181725Y-9500D01*
X178725D02*X180225D01*
X180975Y-8750D01*
X184275Y-3500D02*Y-8750D01*
X185025Y-9500D01*
X183525Y-5750D02*X185025D01*
X186525Y-3500D02*Y-9500D01*
Y-7250D02*X187275Y-6500D01*
X188775D01*
X189525Y-7250D01*
Y-9500D01*
X200750Y298500D02*Y292500D01*
X203000Y298500D02*X203750Y297750D01*
Y293250D01*
X203000Y292500D02*X203750Y293250D01*
X200000Y292500D02*X203000D01*
X200000Y298500D02*X203000D01*
X207800Y295500D02*X208550Y294750D01*
X206300Y295500D02*X207800D01*
X205550Y294750D02*X206300Y295500D01*
X205550Y294750D02*Y293250D01*
X206300Y292500D01*
X208550Y295500D02*Y293250D01*
X209300Y292500D01*
X206300D02*X207800D01*
X208550Y293250D01*
X211850Y298500D02*Y293250D01*
X212600Y292500D01*
X211100Y296250D02*X212600D01*
X214850Y292500D02*X217100D01*
X214100Y293250D02*X214850Y292500D01*
X214100Y294750D02*Y293250D01*
Y294750D02*X214850Y295500D01*
X216350D01*
X217100Y294750D01*
X214100Y294000D02*X217100D01*
Y294750D02*Y294000D01*
X218900Y296250D02*X219650D01*
X218900Y294750D02*X219650D01*
X227150Y298500D02*X227900Y297750D01*
X224900Y298500D02*X227150D01*
X224150Y297750D02*X224900Y298500D01*
X224150Y297750D02*Y296250D01*
X224900Y295500D01*
X227150D01*
X227900Y294750D01*
Y293250D01*
X227150Y292500D02*X227900Y293250D01*
X224900Y292500D02*X227150D01*
X224150Y293250D02*X224900Y292500D01*
X231950Y295500D02*X232700Y294750D01*
X230450Y295500D02*X231950D01*
X229700Y294750D02*X230450Y295500D01*
X229700Y294750D02*Y293250D01*
X230450Y292500D01*
X232700Y295500D02*Y293250D01*
X233450Y292500D01*
X230450D02*X231950D01*
X232700Y293250D01*
X236000Y298500D02*Y293250D01*
X236750Y292500D01*
X235250Y296250D02*X236750D01*
X240950Y293250D02*X241700Y292500D01*
X240950Y297750D02*Y293250D01*
Y297750D02*X241700Y298500D01*
X243200D01*
X243950Y297750D01*
Y293250D01*
X243200Y292500D02*X243950Y293250D01*
X241700Y292500D02*X243200D01*
X240950Y294000D02*X243950Y297000D01*
X245750Y297750D02*X246500Y298500D01*
X248750D01*
X249500Y297750D01*
Y296250D01*
X245750Y292500D02*X249500Y296250D01*
X245750Y292500D02*X249500D01*
X254000Y298500D02*Y292500D01*
Y298500D02*X257000D01*
X254000Y295500D02*X256250D01*
X259550Y292500D02*X261800D01*
X258800Y293250D02*X259550Y292500D01*
X258800Y294750D02*Y293250D01*
Y294750D02*X259550Y295500D01*
X261050D01*
X261800Y294750D01*
X258800Y294000D02*X261800D01*
Y294750D02*Y294000D01*
X263600Y298500D02*Y292500D01*
Y293250D02*X264350Y292500D01*
X265850D01*
X266600Y293250D01*
Y294750D02*Y293250D01*
X265850Y295500D02*X266600Y294750D01*
X264350Y295500D02*X265850D01*
X263600Y294750D02*X264350Y295500D01*
X271100Y297750D02*X271850Y298500D01*
X274100D01*
X274850Y297750D01*
Y296250D01*
X271100Y292500D02*X274850Y296250D01*
X271100Y292500D02*X274850D01*
X276650Y293250D02*X277400Y292500D01*
X276650Y297750D02*Y293250D01*
Y297750D02*X277400Y298500D01*
X278900D01*
X279650Y297750D01*
Y293250D01*
X278900Y292500D02*X279650Y293250D01*
X277400Y292500D02*X278900D01*
X276650Y294000D02*X279650Y297000D01*
X282200Y292500D02*X283700D01*
X282950Y298500D02*Y292500D01*
X281450Y297000D02*X282950Y298500D01*
X285500Y297750D02*X286250Y298500D01*
X287750D01*
X288500Y297750D01*
Y293250D01*
X287750Y292500D02*X288500Y293250D01*
X286250Y292500D02*X287750D01*
X285500Y293250D02*X286250Y292500D01*
Y295500D02*X288500D01*
X293000Y293250D02*X293750Y292500D01*
X293000Y297750D02*Y293250D01*
Y297750D02*X293750Y298500D01*
X295250D01*
X296000Y297750D01*
Y293250D01*
X295250Y292500D02*X296000Y293250D01*
X293750Y292500D02*X295250D01*
X293000Y294000D02*X296000Y297000D01*
X297800Y292500D02*X300800Y295500D01*
Y297750D02*Y295500D01*
X300050Y298500D02*X300800Y297750D01*
X298550Y298500D02*X300050D01*
X297800Y297750D02*X298550Y298500D01*
X297800Y297750D02*Y296250D01*
X298550Y295500D01*
X300800D01*
X302600Y296250D02*X303350D01*
X302600Y294750D02*X303350D01*
X305150Y293250D02*X305900Y292500D01*
X305150Y297750D02*Y293250D01*
Y297750D02*X305900Y298500D01*
X307400D01*
X308150Y297750D01*
Y293250D01*
X307400Y292500D02*X308150Y293250D01*
X305900Y292500D02*X307400D01*
X305150Y294000D02*X308150Y297000D01*
X309950Y295500D02*X312950Y298500D01*
X309950Y295500D02*X313700D01*
X312950Y298500D02*Y292500D01*
X315500Y296250D02*X316250D01*
X315500Y294750D02*X316250D01*
X318800Y292500D02*X320300D01*
X319550Y298500D02*Y292500D01*
X318050Y297000D02*X319550Y298500D01*
X322100D02*X325100D01*
X322100D02*Y295500D01*
X322850Y296250D01*
X324350D01*
X325100Y295500D01*
Y293250D01*
X324350Y292500D02*X325100Y293250D01*
X322850Y292500D02*X324350D01*
X322100Y293250D02*X322850Y292500D01*
X330350Y298500D02*Y292500D01*
X329600Y298500D02*X332600D01*
X333350Y297750D01*
Y296250D01*
X332600Y295500D02*X333350Y296250D01*
X330350Y295500D02*X332600D01*
X335150Y298500D02*Y292500D01*
Y298500D02*X337400Y296250D01*
X339650Y298500D01*
Y292500D01*
X347150Y298500D02*X347900Y297750D01*
X344900Y298500D02*X347150D01*
X344150Y297750D02*X344900Y298500D01*
X344150Y297750D02*Y293250D01*
X344900Y292500D01*
X347150D01*
X347900Y293250D01*
Y294750D02*Y293250D01*
X347150Y295500D02*X347900Y294750D01*
X345650Y295500D02*X347150D01*
X349700Y298500D02*Y292500D01*
Y298500D02*X351950Y296250D01*
X354200Y298500D01*
Y292500D01*
X356000Y298500D02*X359000D01*
X357500D02*Y292500D01*
X363500Y298500D02*Y293250D01*
X364250Y292500D01*
X365750D01*
X366500Y293250D01*
Y298500D02*Y293250D01*
X368300Y298500D02*X371300D01*
X369800D02*Y292500D01*
X373850D02*X376100D01*
X373100Y293250D02*X373850Y292500D01*
X373100Y297750D02*Y293250D01*
Y297750D02*X373850Y298500D01*
X376100D01*
X200000Y312750D02*Y307500D01*
Y312750D02*X200750Y313500D01*
X203000D01*
X203750Y312750D01*
Y307500D01*
X200000Y310500D02*X203750D01*
X205550D02*Y308250D01*
X206300Y307500D01*
X207800D01*
X208550Y308250D01*
Y310500D02*Y308250D01*
X211100Y313500D02*Y308250D01*
X211850Y307500D01*
X210350Y311250D02*X211850D01*
X213350Y313500D02*Y307500D01*
Y309750D02*X214100Y310500D01*
X215600D01*
X216350Y309750D01*
Y307500D01*
X218150Y309750D02*Y308250D01*
Y309750D02*X218900Y310500D01*
X220400D01*
X221150Y309750D01*
Y308250D01*
X220400Y307500D02*X221150Y308250D01*
X218900Y307500D02*X220400D01*
X218150Y308250D02*X218900Y307500D01*
X223700Y309750D02*Y307500D01*
Y309750D02*X224450Y310500D01*
X225950D01*
X222950D02*X223700Y309750D01*
X227750Y311250D02*X228500D01*
X227750Y309750D02*X228500D01*
X233000Y313500D02*Y307500D01*
Y313500D02*X235250Y311250D01*
X237500Y313500D01*
Y307500D01*
X239300Y312000D02*Y311250D01*
Y309750D02*Y307500D01*
X241550Y310500D02*X243800D01*
X240800Y309750D02*X241550Y310500D01*
X240800Y309750D02*Y308250D01*
X241550Y307500D01*
X243800D01*
X245600Y313500D02*Y307500D01*
Y309750D02*X246350Y310500D01*
X247850D01*
X248600Y309750D01*
Y307500D01*
X252650Y310500D02*X253400Y309750D01*
X251150Y310500D02*X252650D01*
X250400Y309750D02*X251150Y310500D01*
X250400Y309750D02*Y308250D01*
X251150Y307500D01*
X253400Y310500D02*Y308250D01*
X254150Y307500D01*
X251150D02*X252650D01*
X253400Y308250D01*
X256700Y307500D02*X258950D01*
X255950Y308250D02*X256700Y307500D01*
X255950Y309750D02*Y308250D01*
Y309750D02*X256700Y310500D01*
X258200D01*
X258950Y309750D01*
X255950Y309000D02*X258950D01*
Y309750D02*Y309000D01*
X260750Y313500D02*Y308250D01*
X261500Y307500D01*
X266450Y313500D02*Y307500D01*
X265700Y313500D02*X268700D01*
X269450Y312750D01*
Y311250D01*
X268700Y310500D02*X269450Y311250D01*
X266450Y310500D02*X268700D01*
X272000Y307500D02*X274250D01*
X271250Y308250D02*X272000Y307500D01*
X271250Y309750D02*Y308250D01*
Y309750D02*X272000Y310500D01*
X273500D01*
X274250Y309750D01*
X271250Y309000D02*X274250D01*
Y309750D02*Y309000D01*
X276800Y313500D02*Y308250D01*
X277550Y307500D01*
X276050Y311250D02*X277550D01*
X279800Y307500D02*X282050D01*
X279050Y308250D02*X279800Y307500D01*
X279050Y309750D02*Y308250D01*
Y309750D02*X279800Y310500D01*
X281300D01*
X282050Y309750D01*
X279050Y309000D02*X282050D01*
Y309750D02*Y309000D01*
X284600Y309750D02*Y307500D01*
Y309750D02*X285350Y310500D01*
X286850D01*
X283850D02*X284600Y309750D01*
X289400Y307500D02*X291650D01*
X292400Y308250D01*
X291650Y309000D02*X292400Y308250D01*
X289400Y309000D02*X291650D01*
X288650Y309750D02*X289400Y309000D01*
X288650Y309750D02*X289400Y310500D01*
X291650D01*
X292400Y309750D01*
X288650Y308250D02*X289400Y307500D01*
X294950D02*X297200D01*
X294200Y308250D02*X294950Y307500D01*
X294200Y309750D02*Y308250D01*
Y309750D02*X294950Y310500D01*
X296450D01*
X297200Y309750D01*
X294200Y309000D02*X297200D01*
Y309750D02*Y309000D01*
X299750Y309750D02*Y307500D01*
Y309750D02*X300500Y310500D01*
X301250D01*
X302000Y309750D01*
Y307500D01*
X299000Y310500D02*X299750Y309750D01*
X200000Y328500D02*X203000D01*
X201500D02*Y322500D01*
X204800Y327000D02*Y326250D01*
Y324750D02*Y322500D01*
X207050Y328500D02*Y323250D01*
X207800Y322500D01*
X206300Y326250D02*X207800D01*
X209300Y328500D02*Y323250D01*
X210050Y322500D01*
X212300D02*X214550D01*
X211550Y323250D02*X212300Y322500D01*
X211550Y324750D02*Y323250D01*
Y324750D02*X212300Y325500D01*
X213800D01*
X214550Y324750D01*
X211550Y324000D02*X214550D01*
Y324750D02*Y324000D01*
X216350Y326250D02*X217100D01*
X216350Y324750D02*X217100D01*
X221600Y323250D02*X222350Y322500D01*
X221600Y327750D02*X222350Y328500D01*
X221600Y327750D02*Y323250D01*
X224150Y325500D02*Y323250D01*
X224900Y322500D01*
X226400D01*
X227150Y323250D01*
Y325500D02*Y323250D01*
X229700Y324750D02*Y322500D01*
Y324750D02*X230450Y325500D01*
X231200D01*
X231950Y324750D01*
Y322500D01*
X228950Y325500D02*X229700Y324750D01*
X233750Y328500D02*Y322500D01*
Y324750D02*X236000Y322500D01*
X233750Y324750D02*X235250Y326250D01*
X238550Y324750D02*Y322500D01*
Y324750D02*X239300Y325500D01*
X240050D01*
X240800Y324750D01*
Y322500D01*
X237800Y325500D02*X238550Y324750D01*
X242600D02*Y323250D01*
Y324750D02*X243350Y325500D01*
X244850D01*
X245600Y324750D01*
Y323250D01*
X244850Y322500D02*X245600Y323250D01*
X243350Y322500D02*X244850D01*
X242600Y323250D02*X243350Y322500D01*
X247400Y325500D02*Y323250D01*
X248150Y322500D01*
X248900D01*
X249650Y323250D01*
Y325500D02*Y323250D01*
X250400Y322500D01*
X251150D01*
X251900Y323250D01*
Y325500D02*Y323250D01*
X254450Y324750D02*Y322500D01*
Y324750D02*X255200Y325500D01*
X255950D01*
X256700Y324750D01*
Y322500D01*
X253700Y325500D02*X254450Y324750D01*
X258500Y328500D02*X259250Y327750D01*
Y323250D01*
X258500Y322500D02*X259250Y323250D01*
X263750Y325500D02*X266750D01*
X271250Y328500D02*Y322500D01*
Y328500D02*X274250D01*
X271250Y325500D02*X273500D01*
X278300D02*X279050Y324750D01*
X276800Y325500D02*X278300D01*
X276050Y324750D02*X276800Y325500D01*
X276050Y324750D02*Y323250D01*
X276800Y322500D01*
X279050Y325500D02*Y323250D01*
X279800Y322500D01*
X276800D02*X278300D01*
X279050Y323250D01*
X281600Y328500D02*Y322500D01*
Y323250D02*X282350Y322500D01*
X283850D01*
X284600Y323250D01*
Y324750D02*Y323250D01*
X283850Y325500D02*X284600Y324750D01*
X282350Y325500D02*X283850D01*
X281600Y324750D02*X282350Y325500D01*
X287150Y324750D02*Y322500D01*
Y324750D02*X287900Y325500D01*
X289400D01*
X286400D02*X287150Y324750D01*
X291200Y327000D02*Y326250D01*
Y324750D02*Y322500D01*
X293450Y325500D02*X295700D01*
X292700Y324750D02*X293450Y325500D01*
X292700Y324750D02*Y323250D01*
X293450Y322500D01*
X295700D01*
X299750Y325500D02*X300500Y324750D01*
X298250Y325500D02*X299750D01*
X297500Y324750D02*X298250Y325500D01*
X297500Y324750D02*Y323250D01*
X298250Y322500D01*
X300500Y325500D02*Y323250D01*
X301250Y322500D01*
X298250D02*X299750D01*
X300500Y323250D01*
X303800Y328500D02*Y323250D01*
X304550Y322500D01*
X303050Y326250D02*X304550D01*
X306050Y327000D02*Y326250D01*
Y324750D02*Y322500D01*
X307550Y324750D02*Y323250D01*
Y324750D02*X308300Y325500D01*
X309800D01*
X310550Y324750D01*
Y323250D01*
X309800Y322500D02*X310550Y323250D01*
X308300Y322500D02*X309800D01*
X307550Y323250D02*X308300Y322500D01*
X313100Y324750D02*Y322500D01*
Y324750D02*X313850Y325500D01*
X314600D01*
X315350Y324750D01*
Y322500D01*
X312350Y325500D02*X313100Y324750D01*
X320600Y328500D02*Y322500D01*
X322850Y328500D02*X323600Y327750D01*
Y323250D01*
X322850Y322500D02*X323600Y323250D01*
X319850Y322500D02*X322850D01*
X319850Y328500D02*X322850D01*
X326150Y324750D02*Y322500D01*
Y324750D02*X326900Y325500D01*
X328400D01*
X325400D02*X326150Y324750D01*
X332450Y325500D02*X333200Y324750D01*
X330950Y325500D02*X332450D01*
X330200Y324750D02*X330950Y325500D01*
X330200Y324750D02*Y323250D01*
X330950Y322500D01*
X333200Y325500D02*Y323250D01*
X333950Y322500D01*
X330950D02*X332450D01*
X333200Y323250D01*
X335750Y325500D02*Y323250D01*
X336500Y322500D01*
X337250D01*
X338000Y323250D01*
Y325500D02*Y323250D01*
X338750Y322500D01*
X339500D01*
X340250Y323250D01*
Y325500D02*Y323250D01*
X342050Y327000D02*Y326250D01*
Y324750D02*Y322500D01*
X344300Y324750D02*Y322500D01*
Y324750D02*X345050Y325500D01*
X345800D01*
X346550Y324750D01*
Y322500D01*
X343550Y325500D02*X344300Y324750D01*
X350600Y325500D02*X351350Y324750D01*
X349100Y325500D02*X350600D01*
X348350Y324750D02*X349100Y325500D01*
X348350Y324750D02*Y323250D01*
X349100Y322500D01*
X350600D01*
X351350Y323250D01*
X348350Y321000D02*X349100Y320250D01*
X350600D01*
X351350Y321000D01*
Y325500D02*Y321000D01*
M02*
