G04 start of page 12 for group -3984 idx -3984 *
G04 Title: (unknown), fab *
G04 Creator: pcb 20140316 *
G04 CreationDate: Wed 30 Mar 2016 07:58:56 PM GMT UTC *
G04 For: ndholmes *
G04 Format: Gerber/RS-274X *
G04 PCB-Dimensions (mil): 2100.00 2700.00 *
G04 PCB-Coordinate-Origin: lower left *
%MOIN*%
%FSLAX25Y25*%
%LNFAB*%
%ADD77C,0.0100*%
%ADD76C,0.0060*%
%ADD75C,0.0001*%
%ADD74R,0.0080X0.0080*%
G54D74*X30000Y10000D02*Y6800D01*
G54D75*G36*
X29454Y10147D02*X32920Y12146D01*
X33320Y11453D01*
X29853Y9454D01*
X29454Y10147D01*
G37*
G36*
X30147Y9454D02*X26680Y11453D01*
X27080Y12146D01*
X30546Y10147D01*
X30147Y9454D01*
G37*
G54D74*X28400Y10000D02*G75*G03X31600Y10000I1600J0D01*G01*
G75*G03X28400Y10000I-1600J0D01*G01*
X10000Y215000D02*Y211800D01*
G54D75*G36*
X9454Y215147D02*X12920Y217146D01*
X13320Y216453D01*
X9853Y214454D01*
X9454Y215147D01*
G37*
G36*
X10147Y214454D02*X6680Y216453D01*
X7080Y217146D01*
X10546Y215147D01*
X10147Y214454D01*
G37*
G54D74*X8400Y215000D02*G75*G03X11600Y215000I1600J0D01*G01*
G75*G03X8400Y215000I-1600J0D01*G01*
X200000Y210000D02*Y206800D01*
G54D75*G36*
X199454Y210147D02*X202920Y212146D01*
X203320Y211453D01*
X199853Y209454D01*
X199454Y210147D01*
G37*
G36*
X200147Y209454D02*X196680Y211453D01*
X197080Y212146D01*
X200546Y210147D01*
X200147Y209454D01*
G37*
G54D74*X198400Y210000D02*G75*G03X201600Y210000I1600J0D01*G01*
G75*G03X198400Y210000I-1600J0D01*G01*
X140000Y10000D02*Y6800D01*
G54D75*G36*
X139454Y10147D02*X142920Y12146D01*
X143320Y11453D01*
X139853Y9454D01*
X139454Y10147D01*
G37*
G36*
X140147Y9454D02*X136680Y11453D01*
X137080Y12146D01*
X140546Y10147D01*
X140147Y9454D01*
G37*
G54D74*X138400Y10000D02*G75*G03X141600Y10000I1600J0D01*G01*
G75*G03X138400Y10000I-1600J0D01*G01*
X15000Y281250D02*Y278050D01*
G54D75*G36*
X14454Y281397D02*X17920Y283396D01*
X18320Y282703D01*
X14853Y280704D01*
X14454Y281397D01*
G37*
G36*
X15147Y280704D02*X11680Y282703D01*
X12080Y283396D01*
X15546Y281397D01*
X15147Y280704D01*
G37*
G54D74*X13400Y281250D02*G75*G03X16600Y281250I1600J0D01*G01*
G75*G03X13400Y281250I-1600J0D01*G01*
G54D76*X135000Y283500D02*Y282750D01*
X136500Y281250D01*
X138000Y282750D01*
Y283500D02*Y282750D01*
X136500Y281250D02*Y277500D01*
X139800Y280500D02*X142050D01*
X139800Y277500D02*X142800D01*
X139800Y283500D02*Y277500D01*
Y283500D02*X142800D01*
X147600D02*X148350Y282750D01*
X145350Y283500D02*X147600D01*
X144600Y282750D02*X145350Y283500D01*
X144600Y282750D02*Y281250D01*
X145350Y280500D01*
X147600D01*
X148350Y279750D01*
Y278250D01*
X147600Y277500D02*X148350Y278250D01*
X145350Y277500D02*X147600D01*
X144600Y278250D02*X145350Y277500D01*
X98000Y280500D02*X101000Y283500D01*
X98000Y280500D02*X101750D01*
X101000Y283500D02*Y277500D01*
X45000Y278250D02*X45750Y277500D01*
X45000Y282750D02*Y278250D01*
Y282750D02*X45750Y283500D01*
X47250D01*
X48000Y282750D01*
Y278250D01*
X47250Y277500D02*X48000Y278250D01*
X45750Y277500D02*X47250D01*
X45000Y279000D02*X48000Y282000D01*
X49800Y277500D02*X50550D01*
X53100D02*X54600D01*
X53850Y283500D02*Y277500D01*
X52350Y282000D02*X53850Y283500D01*
X56400Y282750D02*X57150Y283500D01*
X59400D01*
X60150Y282750D01*
Y281250D01*
X56400Y277500D02*X60150Y281250D01*
X56400Y277500D02*X60150D01*
X61950D02*X64950Y280500D01*
Y282750D02*Y280500D01*
X64200Y283500D02*X64950Y282750D01*
X62700Y283500D02*X64200D01*
X61950Y282750D02*X62700Y283500D01*
X61950Y282750D02*Y281250D01*
X62700Y280500D01*
X64950D01*
X68400Y239600D02*X71600D01*
X68400D02*Y236400D01*
X71600D01*
Y239600D02*Y236400D01*
X108400Y239600D02*X111600D01*
X108400D02*Y236400D01*
X111600D01*
Y239600D02*Y236400D01*
X13400Y297850D02*X16600D01*
X13400D02*Y294650D01*
X16600D01*
Y297850D02*Y294650D01*
X135000Y298500D02*Y297750D01*
X136500Y296250D01*
X138000Y297750D01*
Y298500D02*Y297750D01*
X136500Y296250D02*Y292500D01*
X139800Y295500D02*X142050D01*
X139800Y292500D02*X142800D01*
X139800Y298500D02*Y292500D01*
Y298500D02*X142800D01*
X147600D02*X148350Y297750D01*
X145350Y298500D02*X147600D01*
X144600Y297750D02*X145350Y298500D01*
X144600Y297750D02*Y296250D01*
X145350Y295500D01*
X147600D01*
X148350Y294750D01*
Y293250D01*
X147600Y292500D02*X148350Y293250D01*
X145350Y292500D02*X147600D01*
X144600Y293250D02*X145350Y292500D01*
X98000Y297750D02*X98750Y298500D01*
X101000D01*
X101750Y297750D01*
Y296250D01*
X98000Y292500D02*X101750Y296250D01*
X98000Y292500D02*X101750D01*
X45000Y293250D02*X45750Y292500D01*
X45000Y297750D02*Y293250D01*
Y297750D02*X45750Y298500D01*
X47250D01*
X48000Y297750D01*
Y293250D01*
X47250Y292500D02*X48000Y293250D01*
X45750Y292500D02*X47250D01*
X45000Y294000D02*X48000Y297000D01*
X49800Y292500D02*X50550D01*
X53100D02*X54600D01*
X53850Y298500D02*Y292500D01*
X52350Y297000D02*X53850Y298500D01*
X56400Y297750D02*X57150Y298500D01*
X59400D01*
X60150Y297750D01*
Y296250D01*
X56400Y292500D02*X60150Y296250D01*
X56400Y292500D02*X60150D01*
X61950Y293250D02*X62700Y292500D01*
X61950Y294750D02*Y293250D01*
Y294750D02*X62700Y295500D01*
X64200D01*
X64950Y294750D01*
Y293250D01*
X64200Y292500D02*X64950Y293250D01*
X62700Y292500D02*X64200D01*
X61950Y296250D02*X62700Y295500D01*
X61950Y297750D02*Y296250D01*
Y297750D02*X62700Y298500D01*
X64200D01*
X64950Y297750D01*
Y296250D01*
X64200Y295500D02*X64950Y296250D01*
X113700Y36500D02*G75*G03X115300Y36500I800J0D01*G01*
G75*G03X113700Y36500I-800J0D01*G01*
X133700D02*G75*G03X135300Y36500I800J0D01*G01*
G75*G03X133700Y36500I-800J0D01*G01*
X153700D02*G75*G03X155300Y36500I800J0D01*G01*
G75*G03X153700Y36500I-800J0D01*G01*
X173700D02*G75*G03X175300Y36500I800J0D01*G01*
G75*G03X173700Y36500I-800J0D01*G01*
X73700D02*G75*G03X75300Y36500I800J0D01*G01*
G75*G03X73700Y36500I-800J0D01*G01*
X93700D02*G75*G03X95300Y36500I800J0D01*G01*
G75*G03X93700Y36500I-800J0D01*G01*
X33700D02*G75*G03X35300Y36500I800J0D01*G01*
G75*G03X33700Y36500I-800J0D01*G01*
X53700D02*G75*G03X55300Y36500I800J0D01*G01*
G75*G03X53700Y36500I-800J0D01*G01*
X191600Y248400D02*G75*G03X193200Y248400I800J0D01*G01*
G75*G03X191600Y248400I-800J0D01*G01*
X171600D02*G75*G03X173200Y248400I800J0D01*G01*
G75*G03X171600Y248400I-800J0D01*G01*
X14200Y311250D02*G75*G03X15800Y311250I800J0D01*G01*
G75*G03X14200Y311250I-800J0D01*G01*
X135000Y313500D02*Y312750D01*
X136500Y311250D01*
X138000Y312750D01*
Y313500D02*Y312750D01*
X136500Y311250D02*Y307500D01*
X139800Y310500D02*X142050D01*
X139800Y307500D02*X142800D01*
X139800Y313500D02*Y307500D01*
Y313500D02*X142800D01*
X147600D02*X148350Y312750D01*
X145350Y313500D02*X147600D01*
X144600Y312750D02*X145350Y313500D01*
X144600Y312750D02*Y311250D01*
X145350Y310500D01*
X147600D01*
X148350Y309750D01*
Y308250D01*
X147600Y307500D02*X148350Y308250D01*
X145350Y307500D02*X147600D01*
X144600Y308250D02*X145350Y307500D01*
X98750D02*X100250D01*
X99500Y313500D02*Y307500D01*
X98000Y312000D02*X99500Y313500D01*
X102050Y308250D02*X102800Y307500D01*
X102050Y312750D02*Y308250D01*
Y312750D02*X102800Y313500D01*
X104300D01*
X105050Y312750D01*
Y308250D01*
X104300Y307500D02*X105050Y308250D01*
X102800Y307500D02*X104300D01*
X102050Y309000D02*X105050Y312000D01*
X45000Y308250D02*X45750Y307500D01*
X45000Y312750D02*Y308250D01*
Y312750D02*X45750Y313500D01*
X47250D01*
X48000Y312750D01*
Y308250D01*
X47250Y307500D02*X48000Y308250D01*
X45750Y307500D02*X47250D01*
X45000Y309000D02*X48000Y312000D01*
X49800Y307500D02*X50550D01*
X52350Y308250D02*X53100Y307500D01*
X52350Y312750D02*Y308250D01*
Y312750D02*X53100Y313500D01*
X54600D01*
X55350Y312750D01*
Y308250D01*
X54600Y307500D02*X55350Y308250D01*
X53100Y307500D02*X54600D01*
X52350Y309000D02*X55350Y312000D01*
X57150Y310500D02*X60150Y313500D01*
X57150Y310500D02*X60900D01*
X60150Y313500D02*Y307500D01*
X62700Y308250D02*X63450Y307500D01*
X62700Y309750D02*Y308250D01*
Y309750D02*X63450Y310500D01*
X64950D01*
X65700Y309750D01*
Y308250D01*
X64950Y307500D02*X65700Y308250D01*
X63450Y307500D02*X64950D01*
X62700Y311250D02*X63450Y310500D01*
X62700Y312750D02*Y311250D01*
Y312750D02*X63450Y313500D01*
X64950D01*
X65700Y312750D01*
Y311250D01*
X64950Y310500D02*X65700Y311250D01*
X198800Y21200D02*X201200Y18800D01*
X198800D02*X201200Y21200D01*
X198800Y31200D02*X201200Y28800D01*
X198800D02*X201200Y31200D01*
X198800Y41200D02*X201200Y38800D01*
X198800D02*X201200Y41200D01*
X198800Y51200D02*X201200Y48800D01*
X198800D02*X201200Y51200D01*
X198800Y61200D02*X201200Y58800D01*
X198800D02*X201200Y61200D01*
X198800Y71200D02*X201200Y68800D01*
X198800D02*X201200Y71200D01*
X198800Y81200D02*X201200Y78800D01*
X198800D02*X201200Y81200D01*
X198800Y91200D02*X201200Y88800D01*
X198800D02*X201200Y91200D01*
X198800Y107200D02*X201200Y104800D01*
X198800D02*X201200Y107200D01*
X198800Y117200D02*X201200Y114800D01*
X198800D02*X201200Y117200D01*
X198800Y127200D02*X201200Y124800D01*
X198800D02*X201200Y127200D01*
X198800Y137200D02*X201200Y134800D01*
X198800D02*X201200Y137200D01*
X198800Y147200D02*X201200Y144800D01*
X198800D02*X201200Y147200D01*
X198800Y157200D02*X201200Y154800D01*
X198800D02*X201200Y157200D01*
X198800Y167200D02*X201200Y164800D01*
X198800D02*X201200Y167200D01*
X198800Y177200D02*X201200Y174800D01*
X198800D02*X201200Y177200D01*
X198800Y187200D02*X201200Y184800D01*
X198800D02*X201200Y187200D01*
X198800Y197200D02*X201200Y194800D01*
X198800D02*X201200Y197200D01*
X8800Y161200D02*X11200Y158800D01*
X8800D02*X11200Y161200D01*
X8800Y151200D02*X11200Y148800D01*
X8800D02*X11200Y151200D01*
X8800Y141200D02*X11200Y138800D01*
X8800D02*X11200Y141200D01*
X8800Y131200D02*X11200Y128800D01*
X8800D02*X11200Y131200D01*
X8800Y121200D02*X11200Y118800D01*
X8800D02*X11200Y121200D01*
X8800Y111200D02*X11200Y108800D01*
X8800D02*X11200Y111200D01*
X8800Y101200D02*X11200Y98800D01*
X8800D02*X11200Y101200D01*
X8800Y91200D02*X11200Y88800D01*
X8800D02*X11200Y91200D01*
X8800Y71200D02*X11200Y68800D01*
X8800D02*X11200Y71200D01*
X8800Y61200D02*X11200Y58800D01*
X8800D02*X11200Y61200D01*
X8800Y51200D02*X11200Y48800D01*
X8800D02*X11200Y51200D01*
X8800Y41200D02*X11200Y38800D01*
X8800D02*X11200Y41200D01*
X8800Y31200D02*X11200Y28800D01*
X8800D02*X11200Y31200D01*
X8800Y21200D02*X11200Y18800D01*
X8800D02*X11200Y21200D01*
X13800Y327450D02*X16200Y325050D01*
X13800D02*X16200Y327450D01*
X135000Y328500D02*Y327750D01*
X136500Y326250D01*
X138000Y327750D01*
Y328500D02*Y327750D01*
X136500Y326250D02*Y322500D01*
X139800Y325500D02*X142050D01*
X139800Y322500D02*X142800D01*
X139800Y328500D02*Y322500D01*
Y328500D02*X142800D01*
X147600D02*X148350Y327750D01*
X145350Y328500D02*X147600D01*
X144600Y327750D02*X145350Y328500D01*
X144600Y327750D02*Y326250D01*
X145350Y325500D01*
X147600D01*
X148350Y324750D01*
Y323250D01*
X147600Y322500D02*X148350Y323250D01*
X145350Y322500D02*X147600D01*
X144600Y323250D02*X145350Y322500D01*
X98000Y327750D02*X98750Y328500D01*
X100250D01*
X101000Y327750D01*
Y323250D01*
X100250Y322500D02*X101000Y323250D01*
X98750Y322500D02*X100250D01*
X98000Y323250D02*X98750Y322500D01*
Y325500D02*X101000D01*
X102800Y327750D02*X103550Y328500D01*
X105800D01*
X106550Y327750D01*
Y326250D01*
X102800Y322500D02*X106550Y326250D01*
X102800Y322500D02*X106550D01*
X45000Y323250D02*X45750Y322500D01*
X45000Y327750D02*Y323250D01*
Y327750D02*X45750Y328500D01*
X47250D01*
X48000Y327750D01*
Y323250D01*
X47250Y322500D02*X48000Y323250D01*
X45750Y322500D02*X47250D01*
X45000Y324000D02*X48000Y327000D01*
X49800Y322500D02*X50550D01*
X52350Y323250D02*X53100Y322500D01*
X52350Y327750D02*Y323250D01*
Y327750D02*X53100Y328500D01*
X54600D01*
X55350Y327750D01*
Y323250D01*
X54600Y322500D02*X55350Y323250D01*
X53100Y322500D02*X54600D01*
X52350Y324000D02*X55350Y327000D01*
X57150Y327750D02*X57900Y328500D01*
X59400D01*
X60150Y327750D01*
Y323250D01*
X59400Y322500D02*X60150Y323250D01*
X57900Y322500D02*X59400D01*
X57150Y323250D02*X57900Y322500D01*
Y325500D02*X60150D01*
X61950Y323250D02*X62700Y322500D01*
X61950Y324750D02*Y323250D01*
Y324750D02*X62700Y325500D01*
X64200D01*
X64950Y324750D01*
Y323250D01*
X64200Y322500D02*X64950Y323250D01*
X62700Y322500D02*X64200D01*
X61950Y326250D02*X62700Y325500D01*
X61950Y327750D02*Y326250D01*
Y327750D02*X62700Y328500D01*
X64200D01*
X64950Y327750D01*
Y326250D01*
X64200Y325500D02*X64950Y326250D01*
X102500Y204600D02*Y201400D01*
X100900Y203000D02*X104100D01*
X97500Y214600D02*Y211400D01*
X95900Y213000D02*X99100D01*
X92500Y204600D02*Y201400D01*
X90900Y203000D02*X94100D01*
X87500Y214600D02*Y211400D01*
X85900Y213000D02*X89100D01*
X82500Y204600D02*Y201400D01*
X80900Y203000D02*X84100D01*
X77500Y214600D02*Y211400D01*
X75900Y213000D02*X79100D01*
X15000Y342850D02*Y339650D01*
X13400Y341250D02*X16600D01*
X135000Y343500D02*Y342750D01*
X136500Y341250D01*
X138000Y342750D01*
Y343500D02*Y342750D01*
X136500Y341250D02*Y337500D01*
X139800Y340500D02*X142050D01*
X139800Y337500D02*X142800D01*
X139800Y343500D02*Y337500D01*
Y343500D02*X142800D01*
X147600D02*X148350Y342750D01*
X145350Y343500D02*X147600D01*
X144600Y342750D02*X145350Y343500D01*
X144600Y342750D02*Y341250D01*
X145350Y340500D01*
X147600D01*
X148350Y339750D01*
Y338250D01*
X147600Y337500D02*X148350Y338250D01*
X145350Y337500D02*X147600D01*
X144600Y338250D02*X145350Y337500D01*
X100250Y343500D02*X101000Y342750D01*
X98750Y343500D02*X100250D01*
X98000Y342750D02*X98750Y343500D01*
X98000Y342750D02*Y338250D01*
X98750Y337500D01*
X100250Y340500D02*X101000Y339750D01*
X98000Y340500D02*X100250D01*
X98750Y337500D02*X100250D01*
X101000Y338250D01*
Y339750D02*Y338250D01*
X45000D02*X45750Y337500D01*
X45000Y342750D02*Y338250D01*
Y342750D02*X45750Y343500D01*
X47250D01*
X48000Y342750D01*
Y338250D01*
X47250Y337500D02*X48000Y338250D01*
X45750Y337500D02*X47250D01*
X45000Y339000D02*X48000Y342000D01*
X49800Y337500D02*X50550D01*
X52350Y338250D02*X53100Y337500D01*
X52350Y342750D02*Y338250D01*
Y342750D02*X53100Y343500D01*
X54600D01*
X55350Y342750D01*
Y338250D01*
X54600Y337500D02*X55350Y338250D01*
X53100Y337500D02*X54600D01*
X52350Y339000D02*X55350Y342000D01*
X57150Y342750D02*X57900Y343500D01*
X59400D01*
X60150Y342750D01*
Y338250D01*
X59400Y337500D02*X60150Y338250D01*
X57900Y337500D02*X59400D01*
X57150Y338250D02*X57900Y337500D01*
Y340500D02*X60150D01*
X61950Y338250D02*X62700Y337500D01*
X61950Y342750D02*Y338250D01*
Y342750D02*X62700Y343500D01*
X64200D01*
X64950Y342750D01*
Y338250D01*
X64200Y337500D02*X64950Y338250D01*
X62700Y337500D02*X64200D01*
X61950Y339000D02*X64950Y342000D01*
X64000Y94000D02*Y92400D01*
Y94000D02*X65387Y94800D01*
X64000Y94000D02*X62613Y94800D01*
X146000Y114000D02*Y112400D01*
Y114000D02*X147387Y114800D01*
X146000Y114000D02*X144613Y114800D01*
X59000Y94000D02*Y92400D01*
Y94000D02*X60387Y94800D01*
X59000Y94000D02*X57613Y94800D01*
X54000Y94000D02*Y92400D01*
Y94000D02*X55387Y94800D01*
X54000Y94000D02*X52613Y94800D01*
X70000Y112000D02*Y110400D01*
Y112000D02*X71387Y112800D01*
X70000Y112000D02*X68613Y112800D01*
X70000Y118000D02*Y116400D01*
Y118000D02*X71387Y118800D01*
X70000Y118000D02*X68613Y118800D01*
X140000Y114000D02*Y112400D01*
Y114000D02*X141387Y114800D01*
X140000Y114000D02*X138613Y114800D01*
X65000Y112000D02*Y110400D01*
Y112000D02*X66387Y112800D01*
X65000Y112000D02*X63613Y112800D01*
X116000Y125000D02*Y123400D01*
Y125000D02*X117387Y125800D01*
X116000Y125000D02*X114613Y125800D01*
X94000Y108000D02*Y106400D01*
Y108000D02*X95387Y108800D01*
X94000Y108000D02*X92613Y108800D01*
X100000Y108000D02*Y106400D01*
Y108000D02*X101387Y108800D01*
X100000Y108000D02*X98613Y108800D01*
X70000Y123000D02*Y121400D01*
Y123000D02*X71387Y123800D01*
X70000Y123000D02*X68613Y123800D01*
X87000Y118000D02*Y116400D01*
Y118000D02*X88387Y118800D01*
X87000Y118000D02*X85613Y118800D01*
X30000Y120000D02*Y118400D01*
Y120000D02*X31387Y120800D01*
X30000Y120000D02*X28613Y120800D01*
X25000Y120000D02*Y118400D01*
Y120000D02*X26387Y120800D01*
X25000Y120000D02*X23613Y120800D01*
X40000Y120000D02*Y118400D01*
Y120000D02*X41387Y120800D01*
X40000Y120000D02*X38613Y120800D01*
X45000Y120000D02*Y118400D01*
Y120000D02*X46387Y120800D01*
X45000Y120000D02*X43613Y120800D01*
X182500Y176500D02*Y174900D01*
Y176500D02*X183887Y177300D01*
X182500Y176500D02*X181113Y177300D01*
X141000Y176500D02*Y174900D01*
Y176500D02*X142387Y177300D01*
X141000Y176500D02*X139613Y177300D01*
X182500Y166000D02*Y164400D01*
Y166000D02*X183887Y166800D01*
X182500Y166000D02*X181113Y166800D01*
X141000Y166000D02*Y164400D01*
Y166000D02*X142387Y166800D01*
X141000Y166000D02*X139613Y166800D01*
X167500Y130000D02*Y128400D01*
Y130000D02*X168887Y130800D01*
X167500Y130000D02*X166113Y130800D01*
X129500Y136000D02*Y134400D01*
Y136000D02*X130887Y136800D01*
X129500Y136000D02*X128113Y136800D01*
X129500Y145000D02*Y143400D01*
Y145000D02*X130887Y145800D01*
X129500Y145000D02*X128113Y145800D01*
X146500Y130000D02*Y128400D01*
Y130000D02*X147887Y130800D01*
X146500Y130000D02*X145113Y130800D01*
X156500Y143000D02*Y141400D01*
Y143000D02*X157887Y143800D01*
X156500Y143000D02*X155113Y143800D01*
X171500Y223000D02*Y221400D01*
Y223000D02*X172887Y223800D01*
X171500Y223000D02*X170113Y223800D01*
X171500Y213000D02*Y211400D01*
Y213000D02*X172887Y213800D01*
X171500Y213000D02*X170113Y213800D01*
X171500Y203000D02*Y201400D01*
Y203000D02*X172887Y203800D01*
X171500Y203000D02*X170113Y203800D01*
X153000Y156000D02*Y154400D01*
Y156000D02*X154387Y156800D01*
X153000Y156000D02*X151613Y156800D01*
X163000Y193000D02*Y191400D01*
Y193000D02*X164387Y193800D01*
X163000Y193000D02*X161613Y193800D01*
X122500Y209500D02*Y207900D01*
Y209500D02*X123887Y210300D01*
X122500Y209500D02*X121113Y210300D01*
X122500Y219500D02*Y217900D01*
Y219500D02*X123887Y220300D01*
X122500Y219500D02*X121113Y220300D01*
X119500Y197000D02*Y195400D01*
Y197000D02*X120887Y197800D01*
X119500Y197000D02*X118113Y197800D01*
X114500Y199000D02*Y197400D01*
Y199000D02*X115887Y199800D01*
X114500Y199000D02*X113113Y199800D01*
X121000Y149000D02*Y147400D01*
Y149000D02*X122387Y149800D01*
X121000Y149000D02*X119613Y149800D01*
X47000Y195500D02*Y193900D01*
Y195500D02*X48387Y196300D01*
X47000Y195500D02*X45613Y196300D01*
X47000Y200500D02*Y198900D01*
Y200500D02*X48387Y201300D01*
X47000Y200500D02*X45613Y201300D01*
X47000Y205500D02*Y203900D01*
Y205500D02*X48387Y206300D01*
X47000Y205500D02*X45613Y206300D01*
X47000Y190500D02*Y188900D01*
Y190500D02*X48387Y191300D01*
X47000Y190500D02*X45613Y191300D01*
X47000Y185500D02*Y183900D01*
Y185500D02*X48387Y186300D01*
X47000Y185500D02*X45613Y186300D01*
X15000Y356250D02*Y354650D01*
Y356250D02*X16387Y357050D01*
X15000Y356250D02*X13613Y357050D01*
X135000Y358500D02*Y357750D01*
X136500Y356250D01*
X138000Y357750D01*
Y358500D02*Y357750D01*
X136500Y356250D02*Y352500D01*
X139800Y355500D02*X142050D01*
X139800Y352500D02*X142800D01*
X139800Y358500D02*Y352500D01*
Y358500D02*X142800D01*
X147600D02*X148350Y357750D01*
X145350Y358500D02*X147600D01*
X144600Y357750D02*X145350Y358500D01*
X144600Y357750D02*Y356250D01*
X145350Y355500D01*
X147600D01*
X148350Y354750D01*
Y353250D01*
X147600Y352500D02*X148350Y353250D01*
X145350Y352500D02*X147600D01*
X144600Y353250D02*X145350Y352500D01*
X98000Y355500D02*X101000Y358500D01*
X98000Y355500D02*X101750D01*
X101000Y358500D02*Y352500D01*
X104300D02*X105800D01*
X105050Y358500D02*Y352500D01*
X103550Y357000D02*X105050Y358500D01*
X45000Y353250D02*X45750Y352500D01*
X45000Y357750D02*Y353250D01*
Y357750D02*X45750Y358500D01*
X47250D01*
X48000Y357750D01*
Y353250D01*
X47250Y352500D02*X48000Y353250D01*
X45750Y352500D02*X47250D01*
X45000Y354000D02*X48000Y357000D01*
X49800Y352500D02*X50550D01*
X52350Y353250D02*X53100Y352500D01*
X52350Y357750D02*Y353250D01*
Y357750D02*X53100Y358500D01*
X54600D01*
X55350Y357750D01*
Y353250D01*
X54600Y352500D02*X55350Y353250D01*
X53100Y352500D02*X54600D01*
X52350Y354000D02*X55350Y357000D01*
X57150Y357750D02*X57900Y358500D01*
X60150D01*
X60900Y357750D01*
Y356250D01*
X57150Y352500D02*X60900Y356250D01*
X57150Y352500D02*X60900D01*
X62700Y353250D02*X63450Y352500D01*
X62700Y357750D02*Y353250D01*
Y357750D02*X63450Y358500D01*
X64950D01*
X65700Y357750D01*
Y353250D01*
X64950Y352500D02*X65700Y353250D01*
X63450Y352500D02*X64950D01*
X62700Y354000D02*X65700Y357000D01*
X3000Y373500D02*X3750Y372750D01*
X750Y373500D02*X3000D01*
X0Y372750D02*X750Y373500D01*
X0Y372750D02*Y371250D01*
X750Y370500D01*
X3000D01*
X3750Y369750D01*
Y368250D01*
X3000Y367500D02*X3750Y368250D01*
X750Y367500D02*X3000D01*
X0Y368250D02*X750Y367500D01*
X5550Y370500D02*Y368250D01*
X6300Y367500D01*
X8550Y370500D02*Y366000D01*
X7800Y365250D02*X8550Y366000D01*
X6300Y365250D02*X7800D01*
X5550Y366000D02*X6300Y365250D01*
Y367500D02*X7800D01*
X8550Y368250D01*
X11100Y369750D02*Y367500D01*
Y369750D02*X11850Y370500D01*
X12600D01*
X13350Y369750D01*
Y367500D01*
Y369750D02*X14100Y370500D01*
X14850D01*
X15600Y369750D01*
Y367500D01*
X10350Y370500D02*X11100Y369750D01*
X17400Y373500D02*Y367500D01*
Y368250D02*X18150Y367500D01*
X19650D01*
X20400Y368250D01*
Y369750D02*Y368250D01*
X19650Y370500D02*X20400Y369750D01*
X18150Y370500D02*X19650D01*
X17400Y369750D02*X18150Y370500D01*
X22200Y369750D02*Y368250D01*
Y369750D02*X22950Y370500D01*
X24450D01*
X25200Y369750D01*
Y368250D01*
X24450Y367500D02*X25200Y368250D01*
X22950Y367500D02*X24450D01*
X22200Y368250D02*X22950Y367500D01*
X27000Y373500D02*Y368250D01*
X27750Y367500D01*
X0Y364250D02*X29250D01*
X41750Y373500D02*Y367500D01*
X44000Y373500D02*X44750Y372750D01*
Y368250D01*
X44000Y367500D02*X44750Y368250D01*
X41000Y367500D02*X44000D01*
X41000Y373500D02*X44000D01*
X46550Y372000D02*Y371250D01*
Y369750D02*Y367500D01*
X50300Y370500D02*X51050Y369750D01*
X48800Y370500D02*X50300D01*
X48050Y369750D02*X48800Y370500D01*
X48050Y369750D02*Y368250D01*
X48800Y367500D01*
X51050Y370500D02*Y368250D01*
X51800Y367500D01*
X48800D02*X50300D01*
X51050Y368250D01*
X54350Y369750D02*Y367500D01*
Y369750D02*X55100Y370500D01*
X55850D01*
X56600Y369750D01*
Y367500D01*
Y369750D02*X57350Y370500D01*
X58100D01*
X58850Y369750D01*
Y367500D01*
X53600Y370500D02*X54350Y369750D01*
X60650Y367500D02*X61400D01*
X65900Y368250D02*X66650Y367500D01*
X65900Y372750D02*X66650Y373500D01*
X65900Y372750D02*Y368250D01*
X68450Y373500D02*X69950D01*
X69200D02*Y367500D01*
X68450D02*X69950D01*
X72500Y369750D02*Y367500D01*
Y369750D02*X73250Y370500D01*
X74000D01*
X74750Y369750D01*
Y367500D01*
X71750Y370500D02*X72500Y369750D01*
X77300Y370500D02*X79550D01*
X76550Y369750D02*X77300Y370500D01*
X76550Y369750D02*Y368250D01*
X77300Y367500D01*
X79550D01*
X81350Y373500D02*Y367500D01*
Y369750D02*X82100Y370500D01*
X83600D01*
X84350Y369750D01*
Y367500D01*
X86150Y373500D02*X86900Y372750D01*
Y368250D01*
X86150Y367500D02*X86900Y368250D01*
X41000Y364250D02*X88700D01*
X95750Y367500D02*X98000D01*
X95000Y368250D02*X95750Y367500D01*
X95000Y372750D02*Y368250D01*
Y372750D02*X95750Y373500D01*
X98000D01*
X99800Y369750D02*Y368250D01*
Y369750D02*X100550Y370500D01*
X102050D01*
X102800Y369750D01*
Y368250D01*
X102050Y367500D02*X102800Y368250D01*
X100550Y367500D02*X102050D01*
X99800Y368250D02*X100550Y367500D01*
X104600Y370500D02*Y368250D01*
X105350Y367500D01*
X106850D01*
X107600Y368250D01*
Y370500D02*Y368250D01*
X110150Y369750D02*Y367500D01*
Y369750D02*X110900Y370500D01*
X111650D01*
X112400Y369750D01*
Y367500D01*
X109400Y370500D02*X110150Y369750D01*
X114950Y373500D02*Y368250D01*
X115700Y367500D01*
X114200Y371250D02*X115700D01*
X95000Y364250D02*X117200D01*
X130750Y373500D02*Y367500D01*
X130000Y373500D02*X133000D01*
X133750Y372750D01*
Y371250D01*
X133000Y370500D02*X133750Y371250D01*
X130750Y370500D02*X133000D01*
X135550Y373500D02*Y368250D01*
X136300Y367500D01*
X140050Y370500D02*X140800Y369750D01*
X138550Y370500D02*X140050D01*
X137800Y369750D02*X138550Y370500D01*
X137800Y369750D02*Y368250D01*
X138550Y367500D01*
X140800Y370500D02*Y368250D01*
X141550Y367500D01*
X138550D02*X140050D01*
X140800Y368250D01*
X144100Y373500D02*Y368250D01*
X144850Y367500D01*
X143350Y371250D02*X144850D01*
X147100Y367500D02*X149350D01*
X146350Y368250D02*X147100Y367500D01*
X146350Y369750D02*Y368250D01*
Y369750D02*X147100Y370500D01*
X148600D01*
X149350Y369750D01*
X146350Y369000D02*X149350D01*
Y369750D02*Y369000D01*
X154150Y373500D02*Y367500D01*
X153400D02*X154150Y368250D01*
X151900Y367500D02*X153400D01*
X151150Y368250D02*X151900Y367500D01*
X151150Y369750D02*Y368250D01*
Y369750D02*X151900Y370500D01*
X153400D01*
X154150Y369750D01*
X157450Y370500D02*Y369750D01*
Y368250D02*Y367500D01*
X155950Y372750D02*Y372000D01*
Y372750D02*X156700Y373500D01*
X158200D01*
X158950Y372750D01*
Y372000D01*
X157450Y370500D02*X158950Y372000D01*
X130000Y364250D02*X160750D01*
X0Y388500D02*X3000D01*
X1500D02*Y382500D01*
X4800Y388500D02*Y382500D01*
Y384750D02*X5550Y385500D01*
X7050D01*
X7800Y384750D01*
Y382500D01*
X10350D02*X12600D01*
X9600Y383250D02*X10350Y382500D01*
X9600Y384750D02*Y383250D01*
Y384750D02*X10350Y385500D01*
X11850D01*
X12600Y384750D01*
X9600Y384000D02*X12600D01*
Y384750D02*Y384000D01*
X15150Y384750D02*Y382500D01*
Y384750D02*X15900Y385500D01*
X17400D01*
X14400D02*X15150Y384750D01*
X19950Y382500D02*X22200D01*
X19200Y383250D02*X19950Y382500D01*
X19200Y384750D02*Y383250D01*
Y384750D02*X19950Y385500D01*
X21450D01*
X22200Y384750D01*
X19200Y384000D02*X22200D01*
Y384750D02*Y384000D01*
X28950Y385500D02*X29700Y384750D01*
X27450Y385500D02*X28950D01*
X26700Y384750D02*X27450Y385500D01*
X26700Y384750D02*Y383250D01*
X27450Y382500D01*
X29700Y385500D02*Y383250D01*
X30450Y382500D01*
X27450D02*X28950D01*
X29700Y383250D01*
X33000Y384750D02*Y382500D01*
Y384750D02*X33750Y385500D01*
X35250D01*
X32250D02*X33000Y384750D01*
X37800Y382500D02*X40050D01*
X37050Y383250D02*X37800Y382500D01*
X37050Y384750D02*Y383250D01*
Y384750D02*X37800Y385500D01*
X39300D01*
X40050Y384750D01*
X37050Y384000D02*X40050D01*
Y384750D02*Y384000D01*
X46800Y388500D02*X47550Y387750D01*
X45300Y388500D02*X46800D01*
X44550Y387750D02*X45300Y388500D01*
X44550Y387750D02*Y383250D01*
X45300Y382500D01*
X46800Y385500D02*X47550Y384750D01*
X44550Y385500D02*X46800D01*
X45300Y382500D02*X46800D01*
X47550Y383250D01*
Y384750D02*Y383250D01*
X55050Y388500D02*Y382500D01*
X54300D02*X55050Y383250D01*
X52800Y382500D02*X54300D01*
X52050Y383250D02*X52800Y382500D01*
X52050Y384750D02*Y383250D01*
Y384750D02*X52800Y385500D01*
X54300D01*
X55050Y384750D01*
X56850Y387000D02*Y386250D01*
Y384750D02*Y382500D01*
X59100Y387750D02*Y382500D01*
Y387750D02*X59850Y388500D01*
X60600D01*
X58350Y385500D02*X59850D01*
X62850Y387750D02*Y382500D01*
Y387750D02*X63600Y388500D01*
X64350D01*
X62100Y385500D02*X63600D01*
X66600Y382500D02*X68850D01*
X65850Y383250D02*X66600Y382500D01*
X65850Y384750D02*Y383250D01*
Y384750D02*X66600Y385500D01*
X68100D01*
X68850Y384750D01*
X65850Y384000D02*X68850D01*
Y384750D02*Y384000D01*
X71400Y384750D02*Y382500D01*
Y384750D02*X72150Y385500D01*
X73650D01*
X70650D02*X71400Y384750D01*
X76200Y382500D02*X78450D01*
X75450Y383250D02*X76200Y382500D01*
X75450Y384750D02*Y383250D01*
Y384750D02*X76200Y385500D01*
X77700D01*
X78450Y384750D01*
X75450Y384000D02*X78450D01*
Y384750D02*Y384000D01*
X81000Y384750D02*Y382500D01*
Y384750D02*X81750Y385500D01*
X82500D01*
X83250Y384750D01*
Y382500D01*
X80250Y385500D02*X81000Y384750D01*
X85800Y388500D02*Y383250D01*
X86550Y382500D01*
X85050Y386250D02*X86550D01*
X93750Y388500D02*Y382500D01*
X93000D02*X93750Y383250D01*
X91500Y382500D02*X93000D01*
X90750Y383250D02*X91500Y382500D01*
X90750Y384750D02*Y383250D01*
Y384750D02*X91500Y385500D01*
X93000D01*
X93750Y384750D01*
X96300D02*Y382500D01*
Y384750D02*X97050Y385500D01*
X98550D01*
X95550D02*X96300Y384750D01*
X100350Y387000D02*Y386250D01*
Y384750D02*Y382500D01*
X101850Y388500D02*Y383250D01*
X102600Y382500D01*
X104100Y388500D02*Y383250D01*
X104850Y382500D01*
X109800D02*X112050D01*
X112800Y383250D01*
X112050Y384000D02*X112800Y383250D01*
X109800Y384000D02*X112050D01*
X109050Y384750D02*X109800Y384000D01*
X109050Y384750D02*X109800Y385500D01*
X112050D01*
X112800Y384750D01*
X109050Y383250D02*X109800Y382500D01*
X114600Y387000D02*Y386250D01*
Y384750D02*Y382500D01*
X116100Y385500D02*X119100D01*
X116100Y382500D02*X119100Y385500D01*
X116100Y382500D02*X119100D01*
X121650D02*X123900D01*
X120900Y383250D02*X121650Y382500D01*
X120900Y384750D02*Y383250D01*
Y384750D02*X121650Y385500D01*
X123150D01*
X123900Y384750D01*
X120900Y384000D02*X123900D01*
Y384750D02*Y384000D01*
X126450Y382500D02*X128700D01*
X129450Y383250D01*
X128700Y384000D02*X129450Y383250D01*
X126450Y384000D02*X128700D01*
X125700Y384750D02*X126450Y384000D01*
X125700Y384750D02*X126450Y385500D01*
X128700D01*
X129450Y384750D01*
X125700Y383250D02*X126450Y382500D01*
X133950Y385500D02*Y383250D01*
X134700Y382500D01*
X136200D01*
X136950Y383250D01*
Y385500D02*Y383250D01*
X139500Y382500D02*X141750D01*
X142500Y383250D01*
X141750Y384000D02*X142500Y383250D01*
X139500Y384000D02*X141750D01*
X138750Y384750D02*X139500Y384000D01*
X138750Y384750D02*X139500Y385500D01*
X141750D01*
X142500Y384750D01*
X138750Y383250D02*X139500Y382500D01*
X145050D02*X147300D01*
X144300Y383250D02*X145050Y382500D01*
X144300Y384750D02*Y383250D01*
Y384750D02*X145050Y385500D01*
X146550D01*
X147300Y384750D01*
X144300Y384000D02*X147300D01*
Y384750D02*Y384000D01*
X152100Y388500D02*Y382500D01*
X151350D02*X152100Y383250D01*
X149850Y382500D02*X151350D01*
X149100Y383250D02*X149850Y382500D01*
X149100Y384750D02*Y383250D01*
Y384750D02*X149850Y385500D01*
X151350D01*
X152100Y384750D01*
X156600Y387000D02*Y386250D01*
Y384750D02*Y382500D01*
X158850Y384750D02*Y382500D01*
Y384750D02*X159600Y385500D01*
X160350D01*
X161100Y384750D01*
Y382500D01*
X158100Y385500D02*X158850Y384750D01*
X166350Y388500D02*Y383250D01*
X167100Y382500D01*
X165600Y386250D02*X167100D01*
X168600Y388500D02*Y382500D01*
Y384750D02*X169350Y385500D01*
X170850D01*
X171600Y384750D01*
Y382500D01*
X173400Y387000D02*Y386250D01*
Y384750D02*Y382500D01*
X175650D02*X177900D01*
X178650Y383250D01*
X177900Y384000D02*X178650Y383250D01*
X175650Y384000D02*X177900D01*
X174900Y384750D02*X175650Y384000D01*
X174900Y384750D02*X175650Y385500D01*
X177900D01*
X178650Y384750D01*
X174900Y383250D02*X175650Y382500D01*
X183150Y388500D02*Y383250D01*
X183900Y382500D01*
X187650Y385500D02*X188400Y384750D01*
X186150Y385500D02*X187650D01*
X185400Y384750D02*X186150Y385500D01*
X185400Y384750D02*Y383250D01*
X186150Y382500D01*
X188400Y385500D02*Y383250D01*
X189150Y382500D01*
X186150D02*X187650D01*
X188400Y383250D01*
X190950Y385500D02*Y383250D01*
X191700Y382500D01*
X193950Y385500D02*Y381000D01*
X193200Y380250D02*X193950Y381000D01*
X191700Y380250D02*X193200D01*
X190950Y381000D02*X191700Y380250D01*
Y382500D02*X193200D01*
X193950Y383250D01*
X195750Y384750D02*Y383250D01*
Y384750D02*X196500Y385500D01*
X198000D01*
X198750Y384750D01*
Y383250D01*
X198000Y382500D02*X198750Y383250D01*
X196500Y382500D02*X198000D01*
X195750Y383250D02*X196500Y382500D01*
X200550Y385500D02*Y383250D01*
X201300Y382500D01*
X202800D01*
X203550Y383250D01*
Y385500D02*Y383250D01*
X206100Y388500D02*Y383250D01*
X206850Y382500D01*
X205350Y386250D02*X206850D01*
X208350Y381000D02*X209850Y382500D01*
X214350D02*X217350Y385500D01*
Y387750D02*Y385500D01*
X216600Y388500D02*X217350Y387750D01*
X215100Y388500D02*X216600D01*
X214350Y387750D02*X215100Y388500D01*
X214350Y387750D02*Y386250D01*
X215100Y385500D01*
X217350D01*
X219150Y388500D02*X222150D01*
X219150D02*Y385500D01*
X219900Y386250D01*
X221400D01*
X222150Y385500D01*
Y383250D01*
X221400Y382500D02*X222150Y383250D01*
X219900Y382500D02*X221400D01*
X219150Y383250D02*X219900Y382500D01*
X226650Y388500D02*Y382500D01*
Y384750D02*X227400Y385500D01*
X228900D01*
X229650Y384750D01*
Y382500D01*
X231450Y384750D02*Y383250D01*
Y384750D02*X232200Y385500D01*
X233700D01*
X234450Y384750D01*
Y383250D01*
X233700Y382500D02*X234450Y383250D01*
X232200Y382500D02*X233700D01*
X231450Y383250D02*X232200Y382500D01*
X236250Y388500D02*Y383250D01*
X237000Y382500D01*
X239250D02*X241500D01*
X238500Y383250D02*X239250Y382500D01*
X238500Y384750D02*Y383250D01*
Y384750D02*X239250Y385500D01*
X240750D01*
X241500Y384750D01*
X238500Y384000D02*X241500D01*
Y384750D02*Y384000D01*
X244050Y382500D02*X246300D01*
X247050Y383250D01*
X246300Y384000D02*X247050Y383250D01*
X244050Y384000D02*X246300D01*
X243300Y384750D02*X244050Y384000D01*
X243300Y384750D02*X244050Y385500D01*
X246300D01*
X247050Y384750D01*
X243300Y383250D02*X244050Y382500D01*
X252300Y388500D02*Y383250D01*
X253050Y382500D01*
X251550Y386250D02*X253050D01*
X254550Y384750D02*Y383250D01*
Y384750D02*X255300Y385500D01*
X256800D01*
X257550Y384750D01*
Y383250D01*
X256800Y382500D02*X257550Y383250D01*
X255300Y382500D02*X256800D01*
X254550Y383250D02*X255300Y382500D01*
X260100Y388500D02*Y383250D01*
X260850Y382500D01*
X259350Y386250D02*X260850D01*
X264600Y385500D02*X265350Y384750D01*
X263100Y385500D02*X264600D01*
X262350Y384750D02*X263100Y385500D01*
X262350Y384750D02*Y383250D01*
X263100Y382500D01*
X265350Y385500D02*Y383250D01*
X266100Y382500D01*
X263100D02*X264600D01*
X265350Y383250D01*
X267900Y388500D02*Y383250D01*
X268650Y382500D01*
G54D77*X0Y270000D02*Y10000D01*
X210000D02*Y270000D01*
X0D01*
Y10000D02*X10300D01*
X20300Y0D01*
X149700D01*
X159700Y10000D01*
X210000D01*
G54D76*X18675Y-9500D02*X21675D01*
X22425Y-8750D01*
Y-7250D02*Y-8750D01*
X21675Y-6500D02*X22425Y-7250D01*
X19425Y-6500D02*X21675D01*
X19425Y-3500D02*Y-9500D01*
X18675Y-3500D02*X21675D01*
X22425Y-4250D01*
Y-5750D01*
X21675Y-6500D02*X22425Y-5750D01*
X24225Y-7250D02*Y-8750D01*
Y-7250D02*X24975Y-6500D01*
X26475D01*
X27225Y-7250D01*
Y-8750D01*
X26475Y-9500D02*X27225Y-8750D01*
X24975Y-9500D02*X26475D01*
X24225Y-8750D02*X24975Y-9500D01*
X31275Y-6500D02*X32025Y-7250D01*
X29775Y-6500D02*X31275D01*
X29025Y-7250D02*X29775Y-6500D01*
X29025Y-7250D02*Y-8750D01*
X29775Y-9500D01*
X32025Y-6500D02*Y-8750D01*
X32775Y-9500D01*
X29775D02*X31275D01*
X32025Y-8750D01*
X35325Y-7250D02*Y-9500D01*
Y-7250D02*X36075Y-6500D01*
X37575D01*
X34575D02*X35325Y-7250D01*
X42375Y-3500D02*Y-9500D01*
X41625D02*X42375Y-8750D01*
X40125Y-9500D02*X41625D01*
X39375Y-8750D02*X40125Y-9500D01*
X39375Y-7250D02*Y-8750D01*
Y-7250D02*X40125Y-6500D01*
X41625D01*
X42375Y-7250D01*
X46875D02*Y-8750D01*
Y-7250D02*X47625Y-6500D01*
X49125D01*
X49875Y-7250D01*
Y-8750D01*
X49125Y-9500D02*X49875Y-8750D01*
X47625Y-9500D02*X49125D01*
X46875Y-8750D02*X47625Y-9500D01*
X51675Y-6500D02*Y-8750D01*
X52425Y-9500D01*
X53925D01*
X54675Y-8750D01*
Y-6500D02*Y-8750D01*
X57225Y-3500D02*Y-8750D01*
X57975Y-9500D01*
X56475Y-5750D02*X57975D01*
X59475Y-3500D02*Y-8750D01*
X60225Y-9500D01*
X61725Y-5000D02*Y-5750D01*
Y-7250D02*Y-9500D01*
X63975Y-7250D02*Y-9500D01*
Y-7250D02*X64725Y-6500D01*
X65475D01*
X66225Y-7250D01*
Y-9500D01*
X63225Y-6500D02*X63975Y-7250D01*
X68775Y-9500D02*X71025D01*
X68025Y-8750D02*X68775Y-9500D01*
X68025Y-7250D02*Y-8750D01*
Y-7250D02*X68775Y-6500D01*
X70275D01*
X71025Y-7250D01*
X68025Y-8000D02*X71025D01*
Y-7250D02*Y-8000D01*
X75525Y-5000D02*Y-5750D01*
Y-7250D02*Y-9500D01*
X77775D02*X80025D01*
X80775Y-8750D01*
X80025Y-8000D02*X80775Y-8750D01*
X77775Y-8000D02*X80025D01*
X77025Y-7250D02*X77775Y-8000D01*
X77025Y-7250D02*X77775Y-6500D01*
X80025D01*
X80775Y-7250D01*
X77025Y-8750D02*X77775Y-9500D01*
X86025Y-3500D02*Y-8750D01*
X86775Y-9500D01*
X85275Y-5750D02*X86775D01*
X88275Y-3500D02*Y-9500D01*
Y-7250D02*X89025Y-6500D01*
X90525D01*
X91275Y-7250D01*
Y-9500D01*
X93825D02*X96075D01*
X93075Y-8750D02*X93825Y-9500D01*
X93075Y-7250D02*Y-8750D01*
Y-7250D02*X93825Y-6500D01*
X95325D01*
X96075Y-7250D01*
X93075Y-8000D02*X96075D01*
Y-7250D02*Y-8000D01*
X101325Y-6500D02*X103575D01*
X100575Y-7250D02*X101325Y-6500D01*
X100575Y-7250D02*Y-8750D01*
X101325Y-9500D01*
X103575D01*
X106125D02*X108375D01*
X105375Y-8750D02*X106125Y-9500D01*
X105375Y-7250D02*Y-8750D01*
Y-7250D02*X106125Y-6500D01*
X107625D01*
X108375Y-7250D01*
X105375Y-8000D02*X108375D01*
Y-7250D02*Y-8000D01*
X110925Y-7250D02*Y-9500D01*
Y-7250D02*X111675Y-6500D01*
X112425D01*
X113175Y-7250D01*
Y-9500D01*
X110175Y-6500D02*X110925Y-7250D01*
X115725Y-3500D02*Y-8750D01*
X116475Y-9500D01*
X114975Y-5750D02*X116475D01*
X118725Y-9500D02*X120975D01*
X117975Y-8750D02*X118725Y-9500D01*
X117975Y-7250D02*Y-8750D01*
Y-7250D02*X118725Y-6500D01*
X120225D01*
X120975Y-7250D01*
X117975Y-8000D02*X120975D01*
Y-7250D02*Y-8000D01*
X123525Y-7250D02*Y-9500D01*
Y-7250D02*X124275Y-6500D01*
X125775D01*
X122775D02*X123525Y-7250D01*
X127575Y-3500D02*Y-8750D01*
X128325Y-9500D01*
X129825Y-5000D02*Y-5750D01*
Y-7250D02*Y-9500D01*
X132075Y-7250D02*Y-9500D01*
Y-7250D02*X132825Y-6500D01*
X133575D01*
X134325Y-7250D01*
Y-9500D01*
X131325Y-6500D02*X132075Y-7250D01*
X136875Y-9500D02*X139125D01*
X136125Y-8750D02*X136875Y-9500D01*
X136125Y-7250D02*Y-8750D01*
Y-7250D02*X136875Y-6500D01*
X138375D01*
X139125Y-7250D01*
X136125Y-8000D02*X139125D01*
Y-7250D02*Y-8000D01*
X143625Y-7250D02*Y-8750D01*
Y-7250D02*X144375Y-6500D01*
X145875D01*
X146625Y-7250D01*
Y-8750D01*
X145875Y-9500D02*X146625Y-8750D01*
X144375Y-9500D02*X145875D01*
X143625Y-8750D02*X144375Y-9500D01*
X149175Y-4250D02*Y-9500D01*
Y-4250D02*X149925Y-3500D01*
X150675D01*
X148425Y-6500D02*X149925D01*
X155625Y-3500D02*Y-8750D01*
X156375Y-9500D01*
X154875Y-5750D02*X156375D01*
X157875Y-3500D02*Y-9500D01*
Y-7250D02*X158625Y-6500D01*
X160125D01*
X160875Y-7250D01*
Y-9500D01*
X162675Y-5000D02*Y-5750D01*
Y-7250D02*Y-9500D01*
X164925D02*X167175D01*
X167925Y-8750D01*
X167175Y-8000D02*X167925Y-8750D01*
X164925Y-8000D02*X167175D01*
X164175Y-7250D02*X164925Y-8000D01*
X164175Y-7250D02*X164925Y-6500D01*
X167175D01*
X167925Y-7250D01*
X164175Y-8750D02*X164925Y-9500D01*
X173175Y-7250D02*Y-11750D01*
X172425Y-6500D02*X173175Y-7250D01*
X173925Y-6500D01*
X175425D01*
X176175Y-7250D01*
Y-8750D01*
X175425Y-9500D02*X176175Y-8750D01*
X173925Y-9500D02*X175425D01*
X173175Y-8750D02*X173925Y-9500D01*
X180225Y-6500D02*X180975Y-7250D01*
X178725Y-6500D02*X180225D01*
X177975Y-7250D02*X178725Y-6500D01*
X177975Y-7250D02*Y-8750D01*
X178725Y-9500D01*
X180975Y-6500D02*Y-8750D01*
X181725Y-9500D01*
X178725D02*X180225D01*
X180975Y-8750D01*
X184275Y-3500D02*Y-8750D01*
X185025Y-9500D01*
X183525Y-5750D02*X185025D01*
X186525Y-3500D02*Y-9500D01*
Y-7250D02*X187275Y-6500D01*
X188775D01*
X189525Y-7250D01*
Y-9500D01*
X200750Y298500D02*Y292500D01*
X203000Y298500D02*X203750Y297750D01*
Y293250D01*
X203000Y292500D02*X203750Y293250D01*
X200000Y292500D02*X203000D01*
X200000Y298500D02*X203000D01*
X207800Y295500D02*X208550Y294750D01*
X206300Y295500D02*X207800D01*
X205550Y294750D02*X206300Y295500D01*
X205550Y294750D02*Y293250D01*
X206300Y292500D01*
X208550Y295500D02*Y293250D01*
X209300Y292500D01*
X206300D02*X207800D01*
X208550Y293250D01*
X211850Y298500D02*Y293250D01*
X212600Y292500D01*
X211100Y296250D02*X212600D01*
X214850Y292500D02*X217100D01*
X214100Y293250D02*X214850Y292500D01*
X214100Y294750D02*Y293250D01*
Y294750D02*X214850Y295500D01*
X216350D01*
X217100Y294750D01*
X214100Y294000D02*X217100D01*
Y294750D02*Y294000D01*
X218900Y296250D02*X219650D01*
X218900Y294750D02*X219650D01*
X224150Y298500D02*Y292500D01*
X226400Y294750D01*
X228650Y292500D01*
Y298500D02*Y292500D01*
X231200D02*X233450D01*
X230450Y293250D02*X231200Y292500D01*
X230450Y294750D02*Y293250D01*
Y294750D02*X231200Y295500D01*
X232700D01*
X233450Y294750D01*
X230450Y294000D02*X233450D01*
Y294750D02*Y294000D01*
X238250Y298500D02*Y292500D01*
X237500D02*X238250Y293250D01*
X236000Y292500D02*X237500D01*
X235250Y293250D02*X236000Y292500D01*
X235250Y294750D02*Y293250D01*
Y294750D02*X236000Y295500D01*
X237500D01*
X238250Y294750D01*
X242750Y297750D02*X243500Y298500D01*
X245000D01*
X245750Y297750D01*
Y293250D01*
X245000Y292500D02*X245750Y293250D01*
X243500Y292500D02*X245000D01*
X242750Y293250D02*X243500Y292500D01*
Y295500D02*X245750D01*
X247550Y293250D02*X248300Y292500D01*
X247550Y297750D02*Y293250D01*
Y297750D02*X248300Y298500D01*
X249800D01*
X250550Y297750D01*
Y293250D01*
X249800Y292500D02*X250550Y293250D01*
X248300Y292500D02*X249800D01*
X247550Y294000D02*X250550Y297000D01*
X255050Y298500D02*Y292500D01*
Y298500D02*X257300Y296250D01*
X259550Y298500D01*
Y292500D01*
X263600Y295500D02*X264350Y294750D01*
X262100Y295500D02*X263600D01*
X261350Y294750D02*X262100Y295500D01*
X261350Y294750D02*Y293250D01*
X262100Y292500D01*
X264350Y295500D02*Y293250D01*
X265100Y292500D01*
X262100D02*X263600D01*
X264350Y293250D01*
X267650Y294750D02*Y292500D01*
Y294750D02*X268400Y295500D01*
X269900D01*
X266900D02*X267650Y294750D01*
X274400Y297750D02*X275150Y298500D01*
X277400D01*
X278150Y297750D01*
Y296250D01*
X274400Y292500D02*X278150Y296250D01*
X274400Y292500D02*X278150D01*
X279950Y293250D02*X280700Y292500D01*
X279950Y297750D02*Y293250D01*
Y297750D02*X280700Y298500D01*
X282200D01*
X282950Y297750D01*
Y293250D01*
X282200Y292500D02*X282950Y293250D01*
X280700Y292500D02*X282200D01*
X279950Y294000D02*X282950Y297000D01*
X285500Y292500D02*X287000D01*
X286250Y298500D02*Y292500D01*
X284750Y297000D02*X286250Y298500D01*
X291050D02*X291800Y297750D01*
X289550Y298500D02*X291050D01*
X288800Y297750D02*X289550Y298500D01*
X288800Y297750D02*Y293250D01*
X289550Y292500D01*
X291050Y295500D02*X291800Y294750D01*
X288800Y295500D02*X291050D01*
X289550Y292500D02*X291050D01*
X291800Y293250D01*
Y294750D02*Y293250D01*
X296300D02*X297050Y292500D01*
X296300Y297750D02*Y293250D01*
Y297750D02*X297050Y298500D01*
X298550D01*
X299300Y297750D01*
Y293250D01*
X298550Y292500D02*X299300Y293250D01*
X297050Y292500D02*X298550D01*
X296300Y294000D02*X299300Y297000D01*
X301100Y292500D02*X304850Y296250D01*
Y298500D02*Y296250D01*
X301100Y298500D02*X304850D01*
X306650Y296250D02*X307400D01*
X306650Y294750D02*X307400D01*
X309200Y298500D02*X312200D01*
X309200D02*Y295500D01*
X309950Y296250D01*
X311450D01*
X312200Y295500D01*
Y293250D01*
X311450Y292500D02*X312200Y293250D01*
X309950Y292500D02*X311450D01*
X309200Y293250D02*X309950Y292500D01*
X314000Y293250D02*X314750Y292500D01*
X314000Y294750D02*Y293250D01*
Y294750D02*X314750Y295500D01*
X316250D01*
X317000Y294750D01*
Y293250D01*
X316250Y292500D02*X317000Y293250D01*
X314750Y292500D02*X316250D01*
X314000Y296250D02*X314750Y295500D01*
X314000Y297750D02*Y296250D01*
Y297750D02*X314750Y298500D01*
X316250D01*
X317000Y297750D01*
Y296250D01*
X316250Y295500D02*X317000Y296250D01*
X318800D02*X319550D01*
X318800Y294750D02*X319550D01*
X321350Y298500D02*X324350D01*
X321350D02*Y295500D01*
X322100Y296250D01*
X323600D01*
X324350Y295500D01*
Y293250D01*
X323600Y292500D02*X324350Y293250D01*
X322100Y292500D02*X323600D01*
X321350Y293250D02*X322100Y292500D01*
X328400Y298500D02*X329150Y297750D01*
X326900Y298500D02*X328400D01*
X326150Y297750D02*X326900Y298500D01*
X326150Y297750D02*Y293250D01*
X326900Y292500D01*
X328400Y295500D02*X329150Y294750D01*
X326150Y295500D02*X328400D01*
X326900Y292500D02*X328400D01*
X329150Y293250D01*
Y294750D02*Y293250D01*
X334400Y298500D02*Y292500D01*
X333650Y298500D02*X336650D01*
X337400Y297750D01*
Y296250D01*
X336650Y295500D02*X337400Y296250D01*
X334400Y295500D02*X336650D01*
X339200Y298500D02*Y292500D01*
Y298500D02*X341450Y296250D01*
X343700Y298500D01*
Y292500D01*
X351200Y298500D02*X351950Y297750D01*
X348950Y298500D02*X351200D01*
X348200Y297750D02*X348950Y298500D01*
X348200Y297750D02*Y293250D01*
X348950Y292500D01*
X351200D01*
X351950Y293250D01*
Y294750D02*Y293250D01*
X351200Y295500D02*X351950Y294750D01*
X349700Y295500D02*X351200D01*
X353750Y298500D02*Y292500D01*
Y298500D02*X356000Y296250D01*
X358250Y298500D01*
Y292500D01*
X360050Y298500D02*X363050D01*
X361550D02*Y292500D01*
X367550Y298500D02*Y293250D01*
X368300Y292500D01*
X369800D01*
X370550Y293250D01*
Y298500D02*Y293250D01*
X372350Y298500D02*X375350D01*
X373850D02*Y292500D01*
X377900D02*X380150D01*
X377150Y293250D02*X377900Y292500D01*
X377150Y297750D02*Y293250D01*
Y297750D02*X377900Y298500D01*
X380150D01*
X200000Y312750D02*Y307500D01*
Y312750D02*X200750Y313500D01*
X203000D01*
X203750Y312750D01*
Y307500D01*
X200000Y310500D02*X203750D01*
X205550D02*Y308250D01*
X206300Y307500D01*
X207800D01*
X208550Y308250D01*
Y310500D02*Y308250D01*
X211100Y313500D02*Y308250D01*
X211850Y307500D01*
X210350Y311250D02*X211850D01*
X213350Y313500D02*Y307500D01*
Y309750D02*X214100Y310500D01*
X215600D01*
X216350Y309750D01*
Y307500D01*
X218150Y309750D02*Y308250D01*
Y309750D02*X218900Y310500D01*
X220400D01*
X221150Y309750D01*
Y308250D01*
X220400Y307500D02*X221150Y308250D01*
X218900Y307500D02*X220400D01*
X218150Y308250D02*X218900Y307500D01*
X223700Y309750D02*Y307500D01*
Y309750D02*X224450Y310500D01*
X225950D01*
X222950D02*X223700Y309750D01*
X227750Y311250D02*X228500D01*
X227750Y309750D02*X228500D01*
X233000Y313500D02*Y307500D01*
Y313500D02*Y312750D01*
X236750Y309000D01*
Y313500D02*Y307500D01*
X240800Y310500D02*X241550Y309750D01*
X239300Y310500D02*X240800D01*
X238550Y309750D02*X239300Y310500D01*
X238550Y309750D02*Y308250D01*
X239300Y307500D01*
X241550Y310500D02*Y308250D01*
X242300Y307500D01*
X239300D02*X240800D01*
X241550Y308250D01*
X244850Y313500D02*Y308250D01*
X245600Y307500D01*
X244100Y311250D02*X245600D01*
X247100Y313500D02*Y307500D01*
Y309750D02*X247850Y310500D01*
X249350D01*
X250100Y309750D01*
Y307500D01*
X254150Y310500D02*X254900Y309750D01*
X252650Y310500D02*X254150D01*
X251900Y309750D02*X252650Y310500D01*
X251900Y309750D02*Y308250D01*
X252650Y307500D01*
X254900Y310500D02*Y308250D01*
X255650Y307500D01*
X252650D02*X254150D01*
X254900Y308250D01*
X258200Y309750D02*Y307500D01*
Y309750D02*X258950Y310500D01*
X259700D01*
X260450Y309750D01*
Y307500D01*
X257450Y310500D02*X258200Y309750D01*
X265700Y313500D02*Y307500D01*
X267950Y313500D02*X268700Y312750D01*
Y308250D01*
X267950Y307500D02*X268700Y308250D01*
X264950Y307500D02*X267950D01*
X264950Y313500D02*X267950D01*
X270500Y307500D02*X271250D01*
X275750Y313500D02*Y307500D01*
X279500Y313500D02*Y307500D01*
X275750Y310500D02*X279500D01*
X281300Y309750D02*Y308250D01*
Y309750D02*X282050Y310500D01*
X283550D01*
X284300Y309750D01*
Y308250D01*
X283550Y307500D02*X284300Y308250D01*
X282050Y307500D02*X283550D01*
X281300Y308250D02*X282050Y307500D01*
X286100Y313500D02*Y308250D01*
X286850Y307500D01*
X289100Y309750D02*Y307500D01*
Y309750D02*X289850Y310500D01*
X290600D01*
X291350Y309750D01*
Y307500D01*
Y309750D02*X292100Y310500D01*
X292850D01*
X293600Y309750D01*
Y307500D01*
X288350Y310500D02*X289100Y309750D01*
X296150Y307500D02*X298400D01*
X295400Y308250D02*X296150Y307500D01*
X295400Y309750D02*Y308250D01*
Y309750D02*X296150Y310500D01*
X297650D01*
X298400Y309750D01*
X295400Y309000D02*X298400D01*
Y309750D02*Y309000D01*
X300950Y307500D02*X303200D01*
X303950Y308250D01*
X303200Y309000D02*X303950Y308250D01*
X300950Y309000D02*X303200D01*
X300200Y309750D02*X300950Y309000D01*
X300200Y309750D02*X300950Y310500D01*
X303200D01*
X303950Y309750D01*
X300200Y308250D02*X300950Y307500D01*
X200000Y328500D02*X203000D01*
X201500D02*Y322500D01*
X204800Y327000D02*Y326250D01*
Y324750D02*Y322500D01*
X207050Y328500D02*Y323250D01*
X207800Y322500D01*
X206300Y326250D02*X207800D01*
X209300Y328500D02*Y323250D01*
X210050Y322500D01*
X212300D02*X214550D01*
X211550Y323250D02*X212300Y322500D01*
X211550Y324750D02*Y323250D01*
Y324750D02*X212300Y325500D01*
X213800D01*
X214550Y324750D01*
X211550Y324000D02*X214550D01*
Y324750D02*Y324000D01*
X216350Y326250D02*X217100D01*
X216350Y324750D02*X217100D01*
X221600Y323250D02*X222350Y322500D01*
X221600Y327750D02*X222350Y328500D01*
X221600Y327750D02*Y323250D01*
X224150Y325500D02*Y323250D01*
X224900Y322500D01*
X226400D01*
X227150Y323250D01*
Y325500D02*Y323250D01*
X229700Y324750D02*Y322500D01*
Y324750D02*X230450Y325500D01*
X231200D01*
X231950Y324750D01*
Y322500D01*
X228950Y325500D02*X229700Y324750D01*
X233750Y328500D02*Y322500D01*
Y324750D02*X236000Y322500D01*
X233750Y324750D02*X235250Y326250D01*
X238550Y324750D02*Y322500D01*
Y324750D02*X239300Y325500D01*
X240050D01*
X240800Y324750D01*
Y322500D01*
X237800Y325500D02*X238550Y324750D01*
X242600D02*Y323250D01*
Y324750D02*X243350Y325500D01*
X244850D01*
X245600Y324750D01*
Y323250D01*
X244850Y322500D02*X245600Y323250D01*
X243350Y322500D02*X244850D01*
X242600Y323250D02*X243350Y322500D01*
X247400Y325500D02*Y323250D01*
X248150Y322500D01*
X248900D01*
X249650Y323250D01*
Y325500D02*Y323250D01*
X250400Y322500D01*
X251150D01*
X251900Y323250D01*
Y325500D02*Y323250D01*
X254450Y324750D02*Y322500D01*
Y324750D02*X255200Y325500D01*
X255950D01*
X256700Y324750D01*
Y322500D01*
X253700Y325500D02*X254450Y324750D01*
X258500Y328500D02*X259250Y327750D01*
Y323250D01*
X258500Y322500D02*X259250Y323250D01*
X263750Y325500D02*X266750D01*
X271250Y328500D02*Y322500D01*
Y328500D02*X274250D01*
X271250Y325500D02*X273500D01*
X278300D02*X279050Y324750D01*
X276800Y325500D02*X278300D01*
X276050Y324750D02*X276800Y325500D01*
X276050Y324750D02*Y323250D01*
X276800Y322500D01*
X279050Y325500D02*Y323250D01*
X279800Y322500D01*
X276800D02*X278300D01*
X279050Y323250D01*
X281600Y328500D02*Y322500D01*
Y323250D02*X282350Y322500D01*
X283850D01*
X284600Y323250D01*
Y324750D02*Y323250D01*
X283850Y325500D02*X284600Y324750D01*
X282350Y325500D02*X283850D01*
X281600Y324750D02*X282350Y325500D01*
X287150Y324750D02*Y322500D01*
Y324750D02*X287900Y325500D01*
X289400D01*
X286400D02*X287150Y324750D01*
X291200Y327000D02*Y326250D01*
Y324750D02*Y322500D01*
X293450Y325500D02*X295700D01*
X292700Y324750D02*X293450Y325500D01*
X292700Y324750D02*Y323250D01*
X293450Y322500D01*
X295700D01*
X299750Y325500D02*X300500Y324750D01*
X298250Y325500D02*X299750D01*
X297500Y324750D02*X298250Y325500D01*
X297500Y324750D02*Y323250D01*
X298250Y322500D01*
X300500Y325500D02*Y323250D01*
X301250Y322500D01*
X298250D02*X299750D01*
X300500Y323250D01*
X303800Y328500D02*Y323250D01*
X304550Y322500D01*
X303050Y326250D02*X304550D01*
X306050Y327000D02*Y326250D01*
Y324750D02*Y322500D01*
X307550Y324750D02*Y323250D01*
Y324750D02*X308300Y325500D01*
X309800D01*
X310550Y324750D01*
Y323250D01*
X309800Y322500D02*X310550Y323250D01*
X308300Y322500D02*X309800D01*
X307550Y323250D02*X308300Y322500D01*
X313100Y324750D02*Y322500D01*
Y324750D02*X313850Y325500D01*
X314600D01*
X315350Y324750D01*
Y322500D01*
X312350Y325500D02*X313100Y324750D01*
X320600Y328500D02*Y322500D01*
X322850Y328500D02*X323600Y327750D01*
Y323250D01*
X322850Y322500D02*X323600Y323250D01*
X319850Y322500D02*X322850D01*
X319850Y328500D02*X322850D01*
X326150Y324750D02*Y322500D01*
Y324750D02*X326900Y325500D01*
X328400D01*
X325400D02*X326150Y324750D01*
X332450Y325500D02*X333200Y324750D01*
X330950Y325500D02*X332450D01*
X330200Y324750D02*X330950Y325500D01*
X330200Y324750D02*Y323250D01*
X330950Y322500D01*
X333200Y325500D02*Y323250D01*
X333950Y322500D01*
X330950D02*X332450D01*
X333200Y323250D01*
X335750Y325500D02*Y323250D01*
X336500Y322500D01*
X337250D01*
X338000Y323250D01*
Y325500D02*Y323250D01*
X338750Y322500D01*
X339500D01*
X340250Y323250D01*
Y325500D02*Y323250D01*
X342050Y327000D02*Y326250D01*
Y324750D02*Y322500D01*
X344300Y324750D02*Y322500D01*
Y324750D02*X345050Y325500D01*
X345800D01*
X346550Y324750D01*
Y322500D01*
X343550Y325500D02*X344300Y324750D01*
X350600Y325500D02*X351350Y324750D01*
X349100Y325500D02*X350600D01*
X348350Y324750D02*X349100Y325500D01*
X348350Y324750D02*Y323250D01*
X349100Y322500D01*
X350600D01*
X351350Y323250D01*
X348350Y321000D02*X349100Y320250D01*
X350600D01*
X351350Y321000D01*
Y325500D02*Y321000D01*
M02*
