G04 start of page 10 for group -4015 idx -4015 *
G04 Title: (unknown), toppaste *
G04 Creator: pcb 20140316 *
G04 CreationDate: Wed 30 Mar 2016 07:58:56 PM GMT UTC *
G04 For: ndholmes *
G04 Format: Gerber/RS-274X *
G04 PCB-Dimensions (mil): 2100.00 2700.00 *
G04 PCB-Coordinate-Origin: lower left *
%MOIN*%
%FSLAX25Y25*%
%LNTOPPASTE*%
%ADD73R,0.0100X0.0100*%
%ADD72R,0.0167X0.0167*%
%ADD71R,0.0500X0.0500*%
%ADD70R,0.0240X0.0240*%
%ADD69R,0.0512X0.0512*%
G54D69*X34607Y100457D02*X35393D01*
X34607Y107543D02*X35393D01*
X91107Y61457D02*X91893D01*
X91107Y68543D02*X91893D01*
X46607Y100543D02*X47393D01*
X46607Y93457D02*X47393D01*
X171607Y61457D02*X172393D01*
X171607Y68543D02*X172393D01*
X116607Y61457D02*X117393D01*
X116607Y68543D02*X117393D01*
X36107Y61457D02*X36893D01*
X36107Y68543D02*X36893D01*
G54D70*X124000Y118800D02*Y117200D01*
X120100Y118800D02*Y117200D01*
X116200Y118800D02*Y117200D01*
Y110600D02*Y109000D01*
X120100Y110600D02*Y109000D01*
X124000Y110600D02*Y109000D01*
G54D69*X106607Y100457D02*X107393D01*
X106607Y107543D02*X107393D01*
X123607Y100543D02*X124393D01*
X123607Y93457D02*X124393D01*
G54D71*X78587Y106000D02*X85240D01*
X92760Y116000D02*X99413D01*
X78587Y126000D02*X85240D01*
X92760Y136000D02*X99413D01*
G54D72*X116776Y171087D02*Y169217D01*
X119925Y171087D02*Y169217D01*
X123075Y171087D02*Y169217D01*
X126224Y171087D02*Y169217D01*
Y177783D02*Y175913D01*
X123075Y177783D02*Y175913D01*
X119925Y177783D02*Y175913D01*
X116776Y177783D02*Y175913D01*
X116717Y142075D02*X118587D01*
X116717Y138925D02*X118587D01*
X123413D02*X125283D01*
X123413Y142075D02*X125283D01*
G54D71*X143000Y147413D02*Y140760D01*
X153000Y133240D02*Y126587D01*
X163000Y147413D02*Y140760D01*
X173000Y133240D02*Y126587D01*
X129500Y79413D02*Y72760D01*
X139500Y65240D02*Y58587D01*
X149500Y79413D02*Y72760D01*
X159500Y65240D02*Y58587D01*
X49500Y79499D02*Y72846D01*
X59500Y65326D02*Y58673D01*
X69500Y79499D02*Y72846D01*
X79500Y65326D02*Y58673D01*
X129016Y223000D02*X138504D01*
X129016Y213000D02*X138504D01*
X129016Y203000D02*X138504D01*
X146496D02*X155984D01*
X146496Y213000D02*X155984D01*
X146496Y223000D02*X155984D01*
X148000Y170504D02*Y161016D01*
X158000Y170504D02*Y161016D01*
X168000Y170504D02*Y161016D01*
Y187984D02*Y178496D01*
X158000Y187984D02*Y178496D01*
X148000Y187984D02*Y178496D01*
G54D73*X60063Y89000D02*Y88000D01*
X62031Y89000D02*Y88000D01*
X64000Y89000D02*Y88000D01*
X65969Y89000D02*Y88000D01*
X67937Y89000D02*Y88000D01*
Y106000D02*Y105000D01*
X65969Y106000D02*Y105000D01*
X64000Y106000D02*Y105000D01*
X62031Y106000D02*Y105000D01*
X60063Y106000D02*Y105000D01*
X140063Y89000D02*Y88000D01*
X142031Y89000D02*Y88000D01*
X144000Y89000D02*Y88000D01*
X145969Y89000D02*Y88000D01*
X147937Y89000D02*Y88000D01*
Y106000D02*Y105000D01*
X145969Y106000D02*Y105000D01*
X144000Y106000D02*Y105000D01*
X142031Y106000D02*Y105000D01*
X140063Y106000D02*Y105000D01*
M02*
