G04 start of page 7 for group -4062 idx -4062 *
G04 Title: (unknown), soldermask *
G04 Creator: pcb 20140316 *
G04 CreationDate: Wed 30 Mar 2016 07:58:56 PM GMT UTC *
G04 For: ndholmes *
G04 Format: Gerber/RS-274X *
G04 PCB-Dimensions (mil): 2100.00 2700.00 *
G04 PCB-Coordinate-Origin: lower left *
%MOIN*%
%FSLAX25Y25*%
%LNBOTTOMMASK*%
%ADD65C,0.0760*%
%ADD64C,0.0860*%
%ADD63C,0.0001*%
%ADD62C,0.0660*%
%ADD61C,0.1560*%
G54D61*X30000Y10000D03*
G54D62*X10000Y70000D03*
Y60000D03*
Y50000D03*
Y40000D03*
Y30000D03*
Y20000D03*
G54D63*G36*
X70200Y40800D02*Y32200D01*
X78800D01*
Y40800D01*
X70200D01*
G37*
G36*
X30200D02*Y32200D01*
X38800D01*
Y40800D01*
X30200D01*
G37*
G54D64*X54500Y36500D03*
X94500D03*
G54D61*X200000Y210000D03*
G54D62*Y70000D03*
Y80000D03*
Y90000D03*
Y106000D03*
Y116000D03*
Y126000D03*
Y136000D03*
Y146000D03*
Y156000D03*
Y166000D03*
Y186000D03*
Y196000D03*
G54D63*G36*
X188100Y252700D02*Y244100D01*
X196700D01*
Y252700D01*
X188100D01*
G37*
G54D64*X172400Y248400D03*
G54D61*X140000Y10000D03*
G54D63*G36*
X110200Y40800D02*Y32200D01*
X118800D01*
Y40800D01*
X110200D01*
G37*
G54D64*X134500Y36500D03*
G54D62*X200000Y176000D03*
G54D63*G36*
X196700Y23300D02*Y16700D01*
X203300D01*
Y23300D01*
X196700D01*
G37*
G54D62*X200000Y30000D03*
Y40000D03*
Y50000D03*
Y60000D03*
G54D63*G36*
X150200Y40800D02*Y32200D01*
X158800D01*
Y40800D01*
X150200D01*
G37*
G54D64*X174500Y36500D03*
G54D61*X10000Y215000D03*
G54D63*G36*
X6700Y163300D02*Y156700D01*
X13300D01*
Y163300D01*
X6700D01*
G37*
G54D62*X10000Y150000D03*
Y140000D03*
Y130000D03*
Y120000D03*
Y110000D03*
Y100000D03*
Y90000D03*
G54D65*X102500Y203000D03*
X97500Y213000D03*
X92500Y203000D03*
X87500Y213000D03*
X82500Y203000D03*
X77500Y213000D03*
G54D61*X70000Y238000D03*
X110000D03*
M02*
