G04 start of page 3 for group 1 idx 1 *
G04 Title: (unknown), solder *
G04 Creator: pcb 20140316 *
G04 CreationDate: Wed 30 Mar 2016 07:58:56 PM GMT UTC *
G04 For: ndholmes *
G04 Format: Gerber/RS-274X *
G04 PCB-Dimensions (mil): 2100.00 2700.00 *
G04 PCB-Coordinate-Origin: lower left *
%MOIN*%
%FSLAX25Y25*%
%LNBOTTOM*%
%ADD43C,0.1280*%
%ADD42C,0.0300*%
%ADD41C,0.0480*%
%ADD40C,0.0380*%
%ADD39C,0.1285*%
%ADD38C,0.0200*%
%ADD37C,0.0700*%
%ADD36C,0.0800*%
%ADD35C,0.0600*%
%ADD34C,0.1500*%
%ADD33C,0.0400*%
%ADD32C,0.0100*%
%ADD31C,0.0001*%
G54D31*G36*
X200000Y45486D02*X200706Y45542D01*
X201395Y45707D01*
X202049Y45978D01*
X202653Y46348D01*
X203192Y46808D01*
X203652Y47347D01*
X204022Y47951D01*
X204293Y48605D01*
X204458Y49294D01*
X204500Y50000D01*
X204458Y50706D01*
X204293Y51395D01*
X204022Y52049D01*
X203652Y52653D01*
X203192Y53192D01*
X202653Y53652D01*
X202049Y54022D01*
X201395Y54293D01*
X200706Y54458D01*
X200000Y54514D01*
Y55486D01*
X200706Y55542D01*
X201395Y55707D01*
X202049Y55978D01*
X202653Y56348D01*
X203192Y56808D01*
X203652Y57347D01*
X204022Y57951D01*
X204293Y58605D01*
X204458Y59294D01*
X204500Y60000D01*
X204458Y60706D01*
X204293Y61395D01*
X204022Y62049D01*
X203652Y62653D01*
X203192Y63192D01*
X202653Y63652D01*
X202049Y64022D01*
X201395Y64293D01*
X200706Y64458D01*
X200000Y64514D01*
Y65486D01*
X200706Y65542D01*
X201395Y65707D01*
X202049Y65978D01*
X202653Y66348D01*
X203192Y66808D01*
X203652Y67347D01*
X204022Y67951D01*
X204293Y68605D01*
X204458Y69294D01*
X204500Y70000D01*
X204458Y70706D01*
X204293Y71395D01*
X204022Y72049D01*
X203652Y72653D01*
X203192Y73192D01*
X202653Y73652D01*
X202049Y74022D01*
X201395Y74293D01*
X200706Y74458D01*
X200000Y74514D01*
Y75486D01*
X200706Y75542D01*
X201395Y75707D01*
X202049Y75978D01*
X202653Y76348D01*
X203192Y76808D01*
X203652Y77347D01*
X204022Y77951D01*
X204293Y78605D01*
X204458Y79294D01*
X204500Y80000D01*
X204458Y80706D01*
X204293Y81395D01*
X204022Y82049D01*
X203652Y82653D01*
X203192Y83192D01*
X202653Y83652D01*
X202049Y84022D01*
X201395Y84293D01*
X200706Y84458D01*
X200000Y84514D01*
Y85486D01*
X200706Y85542D01*
X201395Y85707D01*
X202049Y85978D01*
X202653Y86348D01*
X203192Y86808D01*
X203652Y87347D01*
X204022Y87951D01*
X204293Y88605D01*
X204458Y89294D01*
X204500Y90000D01*
X204458Y90706D01*
X204293Y91395D01*
X204022Y92049D01*
X203652Y92653D01*
X203192Y93192D01*
X202653Y93652D01*
X202049Y94022D01*
X201395Y94293D01*
X200706Y94458D01*
X200000Y94514D01*
Y101486D01*
X200706Y101542D01*
X201395Y101707D01*
X202049Y101978D01*
X202653Y102348D01*
X203192Y102808D01*
X203652Y103347D01*
X204022Y103951D01*
X204293Y104605D01*
X204458Y105294D01*
X204500Y106000D01*
X204458Y106706D01*
X204293Y107395D01*
X204022Y108049D01*
X203652Y108653D01*
X203192Y109192D01*
X202653Y109652D01*
X202049Y110022D01*
X201395Y110293D01*
X200706Y110458D01*
X200000Y110514D01*
Y111486D01*
X200706Y111542D01*
X201395Y111707D01*
X202049Y111978D01*
X202653Y112348D01*
X203192Y112808D01*
X203652Y113347D01*
X204022Y113951D01*
X204042Y114000D01*
X207000D01*
Y14000D01*
X200000D01*
Y15507D01*
X203235Y15514D01*
X203465Y15569D01*
X203683Y15659D01*
X203884Y15783D01*
X204064Y15936D01*
X204217Y16116D01*
X204341Y16317D01*
X204431Y16535D01*
X204486Y16765D01*
X204500Y17000D01*
X204486Y23235D01*
X204431Y23465D01*
X204341Y23683D01*
X204217Y23884D01*
X204064Y24064D01*
X203884Y24217D01*
X203683Y24341D01*
X203465Y24431D01*
X203235Y24486D01*
X203000Y24500D01*
X200000Y24493D01*
Y25486D01*
X200706Y25542D01*
X201395Y25707D01*
X202049Y25978D01*
X202653Y26348D01*
X203192Y26808D01*
X203652Y27347D01*
X204022Y27951D01*
X204293Y28605D01*
X204458Y29294D01*
X204500Y30000D01*
X204458Y30706D01*
X204293Y31395D01*
X204022Y32049D01*
X203652Y32653D01*
X203192Y33192D01*
X202653Y33652D01*
X202049Y34022D01*
X201395Y34293D01*
X200706Y34458D01*
X200000Y34514D01*
Y35486D01*
X200706Y35542D01*
X201395Y35707D01*
X202049Y35978D01*
X202653Y36348D01*
X203192Y36808D01*
X203652Y37347D01*
X204022Y37951D01*
X204293Y38605D01*
X204458Y39294D01*
X204500Y40000D01*
X204458Y40706D01*
X204293Y41395D01*
X204022Y42049D01*
X203652Y42653D01*
X203192Y43192D01*
X202653Y43652D01*
X202049Y44022D01*
X201395Y44293D01*
X200706Y44458D01*
X200000Y44514D01*
Y45486D01*
G37*
G36*
Y110514D02*X199294Y110458D01*
X198605Y110293D01*
X197951Y110022D01*
X197347Y109652D01*
X196808Y109192D01*
X196348Y108653D01*
X195978Y108049D01*
X195707Y107395D01*
X195542Y106706D01*
X195500Y106176D01*
Y114000D01*
X195958D01*
X195978Y113951D01*
X196348Y113347D01*
X196808Y112808D01*
X197347Y112348D01*
X197951Y111978D01*
X198605Y111707D01*
X199294Y111542D01*
X200000Y111486D01*
Y110514D01*
G37*
G36*
Y94514D02*X199294Y94458D01*
X198605Y94293D01*
X197951Y94022D01*
X197347Y93652D01*
X196808Y93192D01*
X196348Y92653D01*
X195978Y92049D01*
X195707Y91395D01*
X195542Y90706D01*
X195500Y90176D01*
Y105824D01*
X195542Y105294D01*
X195707Y104605D01*
X195978Y103951D01*
X196348Y103347D01*
X196808Y102808D01*
X197347Y102348D01*
X197951Y101978D01*
X198605Y101707D01*
X199294Y101542D01*
X200000Y101486D01*
Y94514D01*
G37*
G36*
Y84514D02*X199294Y84458D01*
X198605Y84293D01*
X197951Y84022D01*
X197347Y83652D01*
X196808Y83192D01*
X196348Y82653D01*
X195978Y82049D01*
X195707Y81395D01*
X195542Y80706D01*
X195500Y80176D01*
Y89824D01*
X195542Y89294D01*
X195707Y88605D01*
X195978Y87951D01*
X196348Y87347D01*
X196808Y86808D01*
X197347Y86348D01*
X197951Y85978D01*
X198605Y85707D01*
X199294Y85542D01*
X200000Y85486D01*
Y84514D01*
G37*
G36*
Y74514D02*X199294Y74458D01*
X198605Y74293D01*
X197951Y74022D01*
X197347Y73652D01*
X196808Y73192D01*
X196348Y72653D01*
X196014Y72108D01*
X195500Y72621D01*
Y79824D01*
X195542Y79294D01*
X195707Y78605D01*
X195978Y77951D01*
X196348Y77347D01*
X196808Y76808D01*
X197347Y76348D01*
X197951Y75978D01*
X198605Y75707D01*
X199294Y75542D01*
X200000Y75486D01*
Y74514D01*
G37*
G36*
Y64514D02*X199294Y64458D01*
X198605Y64293D01*
X197951Y64022D01*
X197347Y63652D01*
X196808Y63192D01*
X196348Y62653D01*
X195978Y62049D01*
X195751Y61500D01*
X192621D01*
X191500Y62621D01*
Y114000D01*
X192500D01*
Y72059D01*
X192495Y72000D01*
X192514Y71765D01*
X192569Y71535D01*
X192659Y71317D01*
X192783Y71116D01*
X192783Y71115D01*
X192936Y70936D01*
X192981Y70898D01*
X194898Y68981D01*
X194936Y68936D01*
X195115Y68783D01*
X195116Y68783D01*
X195317Y68659D01*
X195535Y68569D01*
X195743Y68519D01*
X195978Y67951D01*
X196348Y67347D01*
X196808Y66808D01*
X197347Y66348D01*
X197951Y65978D01*
X198605Y65707D01*
X199294Y65542D01*
X200000Y65486D01*
Y64514D01*
G37*
G36*
Y54514D02*X199294Y54458D01*
X198605Y54293D01*
X197951Y54022D01*
X197347Y53652D01*
X196808Y53192D01*
X196348Y52653D01*
X195978Y52049D01*
X195751Y51500D01*
X190621D01*
X188500Y53621D01*
Y61941D01*
X188514Y61765D01*
X188569Y61535D01*
X188659Y61317D01*
X188783Y61116D01*
X188783Y61115D01*
X188936Y60936D01*
X188981Y60898D01*
X190898Y58981D01*
X190936Y58936D01*
X191116Y58783D01*
X191317Y58659D01*
X191535Y58569D01*
X191765Y58514D01*
X192000Y58495D01*
X192059Y58500D01*
X195751D01*
X195978Y57951D01*
X196348Y57347D01*
X196808Y56808D01*
X197347Y56348D01*
X197951Y55978D01*
X198605Y55707D01*
X199294Y55542D01*
X200000Y55486D01*
Y54514D01*
G37*
G36*
X174492Y114000D02*X185500D01*
Y53059D01*
X185495Y53000D01*
X185514Y52765D01*
X185569Y52535D01*
X185659Y52317D01*
X185783Y52116D01*
X185936Y51936D01*
X185981Y51898D01*
X188898Y48981D01*
X188936Y48936D01*
X189116Y48783D01*
X189317Y48659D01*
X189535Y48569D01*
X189765Y48514D01*
X190000Y48495D01*
X190059Y48500D01*
X195751D01*
X195978Y47951D01*
X196348Y47347D01*
X196808Y46808D01*
X197347Y46348D01*
X197951Y45978D01*
X198605Y45707D01*
X199294Y45542D01*
X200000Y45486D01*
Y44514D01*
X199294Y44458D01*
X198605Y44293D01*
X197951Y44022D01*
X197347Y43652D01*
X196808Y43192D01*
X196348Y42653D01*
X195978Y42049D01*
X195707Y41395D01*
X195542Y40706D01*
X195486Y40000D01*
X195542Y39294D01*
X195707Y38605D01*
X195978Y37951D01*
X196348Y37347D01*
X196808Y36808D01*
X197347Y36348D01*
X197951Y35978D01*
X198605Y35707D01*
X199294Y35542D01*
X200000Y35486D01*
Y34514D01*
X199294Y34458D01*
X198605Y34293D01*
X197951Y34022D01*
X197347Y33652D01*
X196808Y33192D01*
X196348Y32653D01*
X195978Y32049D01*
X195707Y31395D01*
X195542Y30706D01*
X195486Y30000D01*
X195542Y29294D01*
X195707Y28605D01*
X195978Y27951D01*
X196348Y27347D01*
X196808Y26808D01*
X197347Y26348D01*
X197951Y25978D01*
X198605Y25707D01*
X199294Y25542D01*
X200000Y25486D01*
Y24493D01*
X196765Y24486D01*
X196535Y24431D01*
X196317Y24341D01*
X196116Y24217D01*
X195936Y24064D01*
X195783Y23884D01*
X195659Y23683D01*
X195569Y23465D01*
X195514Y23235D01*
X195500Y23000D01*
X195514Y16765D01*
X195569Y16535D01*
X195659Y16317D01*
X195783Y16116D01*
X195936Y15936D01*
X196116Y15783D01*
X196317Y15659D01*
X196535Y15569D01*
X196765Y15514D01*
X197000Y15500D01*
X200000Y15507D01*
Y14000D01*
X174492D01*
Y30984D01*
X174500Y30983D01*
X175363Y31051D01*
X176205Y31253D01*
X177005Y31584D01*
X177743Y32037D01*
X178401Y32599D01*
X178963Y33257D01*
X179416Y33995D01*
X179747Y34795D01*
X179949Y35637D01*
X180000Y36500D01*
X179949Y37363D01*
X179747Y38205D01*
X179416Y39005D01*
X178963Y39743D01*
X178401Y40401D01*
X177743Y40963D01*
X177005Y41416D01*
X176205Y41747D01*
X175363Y41949D01*
X174500Y42017D01*
X174492Y42016D01*
Y114000D01*
G37*
G36*
X154500D02*X174492D01*
Y42016D01*
X173637Y41949D01*
X172795Y41747D01*
X171995Y41416D01*
X171257Y40963D01*
X170599Y40401D01*
X170037Y39743D01*
X169584Y39005D01*
X169253Y38205D01*
X169051Y37363D01*
X168983Y36500D01*
X169051Y35637D01*
X169253Y34795D01*
X169584Y33995D01*
X170037Y33257D01*
X170599Y32599D01*
X171257Y32037D01*
X171995Y31584D01*
X172795Y31253D01*
X173637Y31051D01*
X174492Y30984D01*
Y14000D01*
X154500D01*
Y31007D01*
X158735Y31014D01*
X158965Y31069D01*
X159183Y31159D01*
X159384Y31283D01*
X159564Y31436D01*
X159717Y31616D01*
X159841Y31817D01*
X159931Y32035D01*
X159986Y32265D01*
X160000Y32500D01*
X159986Y40735D01*
X159931Y40965D01*
X159841Y41183D01*
X159717Y41384D01*
X159564Y41564D01*
X159384Y41717D01*
X159183Y41841D01*
X158965Y41931D01*
X158735Y41986D01*
X158500Y42000D01*
X154500Y41993D01*
Y114000D01*
G37*
G36*
X134492Y110387D02*X136898Y107981D01*
X136936Y107936D01*
X137116Y107783D01*
X137317Y107659D01*
X137535Y107569D01*
X137765Y107514D01*
X138000Y107495D01*
X138059Y107500D01*
X143941D01*
X144000Y107495D01*
X144235Y107514D01*
X144235Y107514D01*
X144465Y107569D01*
X144683Y107659D01*
X144884Y107783D01*
X145064Y107936D01*
X145102Y107981D01*
X147019Y109898D01*
X147064Y109936D01*
X147217Y110115D01*
X147217Y110116D01*
X147341Y110317D01*
X147431Y110535D01*
X147486Y110765D01*
X147505Y111000D01*
X147500Y111059D01*
Y111401D01*
X147769Y111565D01*
X148128Y111872D01*
X148435Y112231D01*
X148681Y112634D01*
X148862Y113070D01*
X148972Y113529D01*
X149000Y114000D01*
X154500D01*
Y41993D01*
X150265Y41986D01*
X150035Y41931D01*
X149817Y41841D01*
X149616Y41717D01*
X149436Y41564D01*
X149283Y41384D01*
X149159Y41183D01*
X149069Y40965D01*
X149014Y40735D01*
X149000Y40500D01*
X149014Y32265D01*
X149069Y32035D01*
X149159Y31817D01*
X149283Y31616D01*
X149436Y31436D01*
X149616Y31283D01*
X149817Y31159D01*
X150035Y31069D01*
X150265Y31014D01*
X150500Y31000D01*
X154500Y31007D01*
Y14000D01*
X147518D01*
X146898Y15012D01*
X146029Y16029D01*
X145012Y16898D01*
X143871Y17597D01*
X142635Y18109D01*
X141334Y18421D01*
X140000Y18526D01*
X138666Y18421D01*
X137365Y18109D01*
X136129Y17597D01*
X134988Y16898D01*
X134492Y16473D01*
Y30984D01*
X134500Y30983D01*
X135363Y31051D01*
X136205Y31253D01*
X137005Y31584D01*
X137743Y32037D01*
X138401Y32599D01*
X138963Y33257D01*
X139416Y33995D01*
X139747Y34795D01*
X139949Y35637D01*
X140000Y36500D01*
X139949Y37363D01*
X139747Y38205D01*
X139416Y39005D01*
X138963Y39743D01*
X138401Y40401D01*
X137743Y40963D01*
X137005Y41416D01*
X136205Y41747D01*
X135363Y41949D01*
X134500Y42017D01*
X134492Y42016D01*
Y110387D01*
G37*
G36*
X114500Y112500D02*X132379D01*
X134492Y110387D01*
Y42016D01*
X133637Y41949D01*
X132795Y41747D01*
X131995Y41416D01*
X131257Y40963D01*
X130599Y40401D01*
X130037Y39743D01*
X129584Y39005D01*
X129253Y38205D01*
X129051Y37363D01*
X128983Y36500D01*
X129051Y35637D01*
X129253Y34795D01*
X129584Y33995D01*
X130037Y33257D01*
X130599Y32599D01*
X131257Y32037D01*
X131995Y31584D01*
X132795Y31253D01*
X133637Y31051D01*
X134492Y30984D01*
Y16473D01*
X133971Y16029D01*
X133102Y15012D01*
X132482Y14000D01*
X114500D01*
Y31007D01*
X118735Y31014D01*
X118965Y31069D01*
X119183Y31159D01*
X119384Y31283D01*
X119564Y31436D01*
X119717Y31616D01*
X119841Y31817D01*
X119931Y32035D01*
X119986Y32265D01*
X120000Y32500D01*
X119986Y40735D01*
X119931Y40965D01*
X119841Y41183D01*
X119717Y41384D01*
X119564Y41564D01*
X119384Y41717D01*
X119183Y41841D01*
X118965Y41931D01*
X118735Y41986D01*
X118500Y42000D01*
X114500Y41993D01*
Y112500D01*
G37*
G36*
X94492Y110500D02*X108941D01*
X109000Y110495D01*
X109235Y110514D01*
X109235Y110514D01*
X109465Y110569D01*
X109683Y110659D01*
X109884Y110783D01*
X110064Y110936D01*
X110102Y110981D01*
X111621Y112500D01*
X114500D01*
Y41993D01*
X110265Y41986D01*
X110035Y41931D01*
X109817Y41841D01*
X109616Y41717D01*
X109436Y41564D01*
X109283Y41384D01*
X109159Y41183D01*
X109069Y40965D01*
X109014Y40735D01*
X109000Y40500D01*
X109014Y32265D01*
X109069Y32035D01*
X109159Y31817D01*
X109283Y31616D01*
X109436Y31436D01*
X109616Y31283D01*
X109817Y31159D01*
X110035Y31069D01*
X110265Y31014D01*
X110500Y31000D01*
X114500Y31007D01*
Y14000D01*
X94492D01*
Y30984D01*
X94500Y30983D01*
X95363Y31051D01*
X96205Y31253D01*
X97005Y31584D01*
X97743Y32037D01*
X98401Y32599D01*
X98963Y33257D01*
X99416Y33995D01*
X99747Y34795D01*
X99949Y35637D01*
X100000Y36500D01*
X99949Y37363D01*
X99747Y38205D01*
X99416Y39005D01*
X98963Y39743D01*
X98401Y40401D01*
X97743Y40963D01*
X97005Y41416D01*
X96205Y41747D01*
X95363Y41949D01*
X94500Y42017D01*
X94492Y42016D01*
Y110500D01*
G37*
G36*
X74500Y110500D02*X77000D01*
X77000Y110500D01*
X94492D01*
Y42016D01*
X93637Y41949D01*
X92795Y41747D01*
X91995Y41416D01*
X91257Y40963D01*
X90599Y40401D01*
X90037Y39743D01*
X89584Y39005D01*
X89253Y38205D01*
X89051Y37363D01*
X88983Y36500D01*
X89051Y35637D01*
X89253Y34795D01*
X89584Y33995D01*
X90037Y33257D01*
X90599Y32599D01*
X91257Y32037D01*
X91995Y31584D01*
X92795Y31253D01*
X93637Y31051D01*
X94492Y30984D01*
Y14000D01*
X74500D01*
Y31007D01*
X78735Y31014D01*
X78965Y31069D01*
X79183Y31159D01*
X79384Y31283D01*
X79564Y31436D01*
X79717Y31616D01*
X79841Y31817D01*
X79931Y32035D01*
X79986Y32265D01*
X80000Y32500D01*
X79986Y40735D01*
X79931Y40965D01*
X79841Y41183D01*
X79717Y41384D01*
X79564Y41564D01*
X79384Y41717D01*
X79183Y41841D01*
X78965Y41931D01*
X78735Y41986D01*
X78500Y42000D01*
X74500Y41993D01*
Y110500D01*
G37*
G36*
X54492Y114000D02*X67763D01*
X67565Y113769D01*
X67319Y113366D01*
X67138Y112930D01*
X67028Y112471D01*
X66991Y112000D01*
X67028Y111529D01*
X67138Y111070D01*
X67319Y110634D01*
X67565Y110231D01*
X67872Y109872D01*
X68231Y109565D01*
X68634Y109319D01*
X69070Y109138D01*
X69529Y109028D01*
X70000Y108991D01*
X70471Y109028D01*
X70930Y109138D01*
X71366Y109319D01*
X71769Y109565D01*
X72128Y109872D01*
X72435Y110231D01*
X72599Y110500D01*
X74500D01*
Y41993D01*
X70265Y41986D01*
X70035Y41931D01*
X69817Y41841D01*
X69616Y41717D01*
X69436Y41564D01*
X69283Y41384D01*
X69159Y41183D01*
X69069Y40965D01*
X69014Y40735D01*
X69000Y40500D01*
X69014Y32265D01*
X69069Y32035D01*
X69159Y31817D01*
X69283Y31616D01*
X69436Y31436D01*
X69616Y31283D01*
X69817Y31159D01*
X70035Y31069D01*
X70265Y31014D01*
X70500Y31000D01*
X74500Y31007D01*
Y14000D01*
X54492D01*
Y30984D01*
X54500Y30983D01*
X55363Y31051D01*
X56205Y31253D01*
X57005Y31584D01*
X57743Y32037D01*
X58401Y32599D01*
X58963Y33257D01*
X59416Y33995D01*
X59747Y34795D01*
X59949Y35637D01*
X60000Y36500D01*
X59949Y37363D01*
X59747Y38205D01*
X59416Y39005D01*
X58963Y39743D01*
X58401Y40401D01*
X57743Y40963D01*
X57005Y41416D01*
X56205Y41747D01*
X55363Y41949D01*
X54500Y42017D01*
X54492Y42016D01*
Y114000D01*
G37*
G36*
X34500D02*X54492D01*
Y42016D01*
X53637Y41949D01*
X52795Y41747D01*
X51995Y41416D01*
X51257Y40963D01*
X50599Y40401D01*
X50037Y39743D01*
X49584Y39005D01*
X49253Y38205D01*
X49051Y37363D01*
X48983Y36500D01*
X49051Y35637D01*
X49253Y34795D01*
X49584Y33995D01*
X50037Y33257D01*
X50599Y32599D01*
X51257Y32037D01*
X51995Y31584D01*
X52795Y31253D01*
X53637Y31051D01*
X54492Y30984D01*
Y14000D01*
X37518D01*
X36898Y15012D01*
X36029Y16029D01*
X35012Y16898D01*
X34500Y17211D01*
Y31007D01*
X38735Y31014D01*
X38965Y31069D01*
X39183Y31159D01*
X39384Y31283D01*
X39564Y31436D01*
X39717Y31616D01*
X39841Y31817D01*
X39931Y32035D01*
X39986Y32265D01*
X40000Y32500D01*
X39986Y40735D01*
X39931Y40965D01*
X39841Y41183D01*
X39717Y41384D01*
X39564Y41564D01*
X39384Y41717D01*
X39183Y41841D01*
X38965Y41931D01*
X38735Y41986D01*
X38500Y42000D01*
X34500Y41993D01*
Y114000D01*
G37*
G36*
X13613D02*X34500D01*
Y41993D01*
X30265Y41986D01*
X30035Y41931D01*
X29817Y41841D01*
X29616Y41717D01*
X29436Y41564D01*
X29283Y41384D01*
X29159Y41183D01*
X29069Y40965D01*
X29014Y40735D01*
X29000Y40500D01*
X29014Y32265D01*
X29069Y32035D01*
X29159Y31817D01*
X29283Y31616D01*
X29436Y31436D01*
X29616Y31283D01*
X29817Y31159D01*
X30035Y31069D01*
X30265Y31014D01*
X30500Y31000D01*
X34500Y31007D01*
Y17211D01*
X33871Y17597D01*
X32635Y18109D01*
X31334Y18421D01*
X30000Y18526D01*
X28666Y18421D01*
X27365Y18109D01*
X26129Y17597D01*
X24988Y16898D01*
X23971Y16029D01*
X23102Y15012D01*
X22482Y14000D01*
X13613D01*
Y17302D01*
X13652Y17347D01*
X14022Y17951D01*
X14293Y18605D01*
X14458Y19294D01*
X14500Y20000D01*
X14458Y20706D01*
X14293Y21395D01*
X14022Y22049D01*
X13652Y22653D01*
X13613Y22698D01*
Y27302D01*
X13652Y27347D01*
X14022Y27951D01*
X14293Y28605D01*
X14458Y29294D01*
X14500Y30000D01*
X14458Y30706D01*
X14293Y31395D01*
X14022Y32049D01*
X13652Y32653D01*
X13613Y32698D01*
Y37302D01*
X13652Y37347D01*
X14022Y37951D01*
X14293Y38605D01*
X14458Y39294D01*
X14500Y40000D01*
X14458Y40706D01*
X14293Y41395D01*
X14022Y42049D01*
X13652Y42653D01*
X13613Y42698D01*
Y47302D01*
X13652Y47347D01*
X14022Y47951D01*
X14293Y48605D01*
X14458Y49294D01*
X14500Y50000D01*
X14458Y50706D01*
X14293Y51395D01*
X14022Y52049D01*
X13652Y52653D01*
X13613Y52698D01*
Y57302D01*
X13652Y57347D01*
X14022Y57951D01*
X14293Y58605D01*
X14458Y59294D01*
X14500Y60000D01*
X14458Y60706D01*
X14293Y61395D01*
X14022Y62049D01*
X13652Y62653D01*
X13613Y62698D01*
Y67302D01*
X13652Y67347D01*
X14022Y67951D01*
X14293Y68605D01*
X14458Y69294D01*
X14500Y70000D01*
X14458Y70706D01*
X14293Y71395D01*
X14022Y72049D01*
X13652Y72653D01*
X13613Y72698D01*
Y87302D01*
X13652Y87347D01*
X14022Y87951D01*
X14293Y88605D01*
X14458Y89294D01*
X14500Y90000D01*
X14458Y90706D01*
X14293Y91395D01*
X14022Y92049D01*
X13652Y92653D01*
X13613Y92698D01*
Y97853D01*
X13656Y97860D01*
X13768Y97897D01*
X13873Y97952D01*
X13968Y98022D01*
X14051Y98106D01*
X14119Y98202D01*
X14170Y98308D01*
X14318Y98716D01*
X14422Y99137D01*
X14484Y99567D01*
X14505Y100000D01*
X14484Y100433D01*
X14422Y100863D01*
X14318Y101284D01*
X14175Y101694D01*
X14122Y101800D01*
X14053Y101896D01*
X13970Y101981D01*
X13875Y102051D01*
X13769Y102106D01*
X13657Y102143D01*
X13613Y102151D01*
Y107853D01*
X13656Y107860D01*
X13768Y107897D01*
X13873Y107952D01*
X13968Y108022D01*
X14051Y108106D01*
X14119Y108202D01*
X14170Y108308D01*
X14318Y108716D01*
X14422Y109137D01*
X14484Y109567D01*
X14505Y110000D01*
X14484Y110433D01*
X14422Y110863D01*
X14318Y111284D01*
X14175Y111694D01*
X14122Y111800D01*
X14053Y111896D01*
X13970Y111981D01*
X13875Y112051D01*
X13769Y112106D01*
X13657Y112143D01*
X13613Y112151D01*
Y114000D01*
G37*
G36*
Y72698D02*X13192Y73192D01*
X12653Y73652D01*
X12049Y74022D01*
X11395Y74293D01*
X10706Y74458D01*
X10000Y74514D01*
X9993Y74513D01*
Y85487D01*
X10000Y85486D01*
X10706Y85542D01*
X11395Y85707D01*
X12049Y85978D01*
X12653Y86348D01*
X13192Y86808D01*
X13613Y87302D01*
Y72698D01*
G37*
G36*
Y62698D02*X13192Y63192D01*
X12653Y63652D01*
X12049Y64022D01*
X11395Y64293D01*
X10706Y64458D01*
X10000Y64514D01*
X9993Y64513D01*
Y65487D01*
X10000Y65486D01*
X10706Y65542D01*
X11395Y65707D01*
X12049Y65978D01*
X12653Y66348D01*
X13192Y66808D01*
X13613Y67302D01*
Y62698D01*
G37*
G36*
Y52698D02*X13192Y53192D01*
X12653Y53652D01*
X12049Y54022D01*
X11395Y54293D01*
X10706Y54458D01*
X10000Y54514D01*
X9993Y54513D01*
Y55487D01*
X10000Y55486D01*
X10706Y55542D01*
X11395Y55707D01*
X12049Y55978D01*
X12653Y56348D01*
X13192Y56808D01*
X13613Y57302D01*
Y52698D01*
G37*
G36*
Y42698D02*X13192Y43192D01*
X12653Y43652D01*
X12049Y44022D01*
X11395Y44293D01*
X10706Y44458D01*
X10000Y44514D01*
X9993Y44513D01*
Y45487D01*
X10000Y45486D01*
X10706Y45542D01*
X11395Y45707D01*
X12049Y45978D01*
X12653Y46348D01*
X13192Y46808D01*
X13613Y47302D01*
Y42698D01*
G37*
G36*
Y32698D02*X13192Y33192D01*
X12653Y33652D01*
X12049Y34022D01*
X11395Y34293D01*
X10706Y34458D01*
X10000Y34514D01*
X9993Y34513D01*
Y35487D01*
X10000Y35486D01*
X10706Y35542D01*
X11395Y35707D01*
X12049Y35978D01*
X12653Y36348D01*
X13192Y36808D01*
X13613Y37302D01*
Y32698D01*
G37*
G36*
Y22698D02*X13192Y23192D01*
X12653Y23652D01*
X12049Y24022D01*
X11395Y24293D01*
X10706Y24458D01*
X10000Y24514D01*
X9993Y24513D01*
Y25487D01*
X10000Y25486D01*
X10706Y25542D01*
X11395Y25707D01*
X12049Y25978D01*
X12653Y26348D01*
X13192Y26808D01*
X13613Y27302D01*
Y22698D01*
G37*
G36*
Y14000D02*X9993D01*
Y15487D01*
X10000Y15486D01*
X10706Y15542D01*
X11395Y15707D01*
X12049Y15978D01*
X12653Y16348D01*
X13192Y16808D01*
X13613Y17302D01*
Y14000D01*
G37*
G36*
X9993Y113000D02*X10000Y113000D01*
X10289Y112986D01*
X10575Y112944D01*
X10855Y112876D01*
X11128Y112780D01*
X11239Y112742D01*
X11356Y112725D01*
X11474Y112725D01*
X11591Y112745D01*
X11703Y112782D01*
X11807Y112836D01*
X11902Y112906D01*
X11985Y112991D01*
X12054Y113087D01*
X12107Y113192D01*
X12143Y113305D01*
X12160Y113421D01*
X12159Y113539D01*
X12140Y113656D01*
X12103Y113768D01*
X12048Y113873D01*
X11978Y113968D01*
X11945Y114000D01*
X13613D01*
Y112151D01*
X13540Y112163D01*
X13421Y112164D01*
X13304Y112146D01*
X13191Y112110D01*
X13085Y112057D01*
X12988Y111988D01*
X12904Y111905D01*
X12833Y111809D01*
X12779Y111704D01*
X12741Y111592D01*
X12722Y111475D01*
X12721Y111356D01*
X12739Y111239D01*
X12777Y111126D01*
X12876Y110855D01*
X12944Y110575D01*
X12986Y110289D01*
X13000Y110000D01*
X12986Y109711D01*
X12944Y109425D01*
X12876Y109145D01*
X12780Y108872D01*
X12742Y108761D01*
X12725Y108644D01*
X12725Y108526D01*
X12745Y108409D01*
X12782Y108297D01*
X12836Y108193D01*
X12906Y108098D01*
X12991Y108015D01*
X13087Y107946D01*
X13192Y107893D01*
X13305Y107857D01*
X13421Y107840D01*
X13539Y107841D01*
X13613Y107853D01*
Y102151D01*
X13540Y102163D01*
X13421Y102164D01*
X13304Y102146D01*
X13191Y102110D01*
X13085Y102057D01*
X12988Y101988D01*
X12904Y101905D01*
X12833Y101809D01*
X12779Y101704D01*
X12741Y101592D01*
X12722Y101475D01*
X12721Y101356D01*
X12739Y101239D01*
X12777Y101126D01*
X12876Y100855D01*
X12944Y100575D01*
X12986Y100289D01*
X13000Y100000D01*
X12986Y99711D01*
X12944Y99425D01*
X12876Y99145D01*
X12780Y98872D01*
X12742Y98761D01*
X12725Y98644D01*
X12725Y98526D01*
X12745Y98409D01*
X12782Y98297D01*
X12836Y98193D01*
X12906Y98098D01*
X12991Y98015D01*
X13087Y97946D01*
X13192Y97893D01*
X13305Y97857D01*
X13421Y97840D01*
X13539Y97841D01*
X13613Y97853D01*
Y92698D01*
X13192Y93192D01*
X12653Y93652D01*
X12049Y94022D01*
X11395Y94293D01*
X10706Y94458D01*
X10000Y94514D01*
X9993Y94513D01*
Y95495D01*
X10000Y95495D01*
X10433Y95516D01*
X10863Y95578D01*
X11284Y95682D01*
X11694Y95825D01*
X11800Y95878D01*
X11896Y95947D01*
X11981Y96030D01*
X12051Y96125D01*
X12106Y96231D01*
X12143Y96343D01*
X12163Y96460D01*
X12164Y96579D01*
X12146Y96696D01*
X12110Y96809D01*
X12057Y96915D01*
X11988Y97012D01*
X11905Y97096D01*
X11809Y97167D01*
X11704Y97221D01*
X11592Y97259D01*
X11475Y97278D01*
X11356Y97279D01*
X11239Y97261D01*
X11126Y97223D01*
X10855Y97124D01*
X10575Y97056D01*
X10289Y97014D01*
X10000Y97000D01*
X9993Y97000D01*
Y103000D01*
X10000Y103000D01*
X10289Y102986D01*
X10575Y102944D01*
X10855Y102876D01*
X11128Y102780D01*
X11239Y102742D01*
X11356Y102725D01*
X11474Y102725D01*
X11591Y102745D01*
X11703Y102782D01*
X11807Y102836D01*
X11902Y102906D01*
X11985Y102991D01*
X12054Y103087D01*
X12107Y103192D01*
X12143Y103305D01*
X12160Y103421D01*
X12159Y103539D01*
X12140Y103656D01*
X12103Y103768D01*
X12048Y103873D01*
X11978Y103968D01*
X11894Y104051D01*
X11798Y104119D01*
X11692Y104170D01*
X11284Y104318D01*
X10863Y104422D01*
X10433Y104484D01*
X10000Y104505D01*
X9993Y104505D01*
Y105495D01*
X10000Y105495D01*
X10433Y105516D01*
X10863Y105578D01*
X11284Y105682D01*
X11694Y105825D01*
X11800Y105878D01*
X11896Y105947D01*
X11981Y106030D01*
X12051Y106125D01*
X12106Y106231D01*
X12143Y106343D01*
X12163Y106460D01*
X12164Y106579D01*
X12146Y106696D01*
X12110Y106809D01*
X12057Y106915D01*
X11988Y107012D01*
X11905Y107096D01*
X11809Y107167D01*
X11704Y107221D01*
X11592Y107259D01*
X11475Y107278D01*
X11356Y107279D01*
X11239Y107261D01*
X11126Y107223D01*
X10855Y107124D01*
X10575Y107056D01*
X10289Y107014D01*
X10000Y107000D01*
X9993Y107000D01*
Y113000D01*
G37*
G36*
X6387Y17302D02*X6808Y16808D01*
X7347Y16348D01*
X7951Y15978D01*
X8605Y15707D01*
X9294Y15542D01*
X9993Y15487D01*
Y14000D01*
X6387D01*
Y17302D01*
G37*
G36*
Y27302D02*X6808Y26808D01*
X7347Y26348D01*
X7951Y25978D01*
X8605Y25707D01*
X9294Y25542D01*
X9993Y25487D01*
Y24513D01*
X9294Y24458D01*
X8605Y24293D01*
X7951Y24022D01*
X7347Y23652D01*
X6808Y23192D01*
X6387Y22698D01*
Y27302D01*
G37*
G36*
Y37302D02*X6808Y36808D01*
X7347Y36348D01*
X7951Y35978D01*
X8605Y35707D01*
X9294Y35542D01*
X9993Y35487D01*
Y34513D01*
X9294Y34458D01*
X8605Y34293D01*
X7951Y34022D01*
X7347Y33652D01*
X6808Y33192D01*
X6387Y32698D01*
Y37302D01*
G37*
G36*
Y47302D02*X6808Y46808D01*
X7347Y46348D01*
X7951Y45978D01*
X8605Y45707D01*
X9294Y45542D01*
X9993Y45487D01*
Y44513D01*
X9294Y44458D01*
X8605Y44293D01*
X7951Y44022D01*
X7347Y43652D01*
X6808Y43192D01*
X6387Y42698D01*
Y47302D01*
G37*
G36*
Y57302D02*X6808Y56808D01*
X7347Y56348D01*
X7951Y55978D01*
X8605Y55707D01*
X9294Y55542D01*
X9993Y55487D01*
Y54513D01*
X9294Y54458D01*
X8605Y54293D01*
X7951Y54022D01*
X7347Y53652D01*
X6808Y53192D01*
X6387Y52698D01*
Y57302D01*
G37*
G36*
Y67302D02*X6808Y66808D01*
X7347Y66348D01*
X7951Y65978D01*
X8605Y65707D01*
X9294Y65542D01*
X9993Y65487D01*
Y64513D01*
X9294Y64458D01*
X8605Y64293D01*
X7951Y64022D01*
X7347Y63652D01*
X6808Y63192D01*
X6387Y62698D01*
Y67302D01*
G37*
G36*
Y87302D02*X6808Y86808D01*
X7347Y86348D01*
X7951Y85978D01*
X8605Y85707D01*
X9294Y85542D01*
X9993Y85487D01*
Y74513D01*
X9294Y74458D01*
X8605Y74293D01*
X7951Y74022D01*
X7347Y73652D01*
X6808Y73192D01*
X6387Y72698D01*
Y87302D01*
G37*
G36*
Y114000D02*X8050D01*
X8019Y113970D01*
X7949Y113875D01*
X7894Y113769D01*
X7857Y113657D01*
X7837Y113540D01*
X7836Y113421D01*
X7854Y113304D01*
X7890Y113191D01*
X7943Y113085D01*
X8012Y112988D01*
X8095Y112904D01*
X8191Y112833D01*
X8296Y112779D01*
X8408Y112741D01*
X8525Y112722D01*
X8644Y112721D01*
X8761Y112739D01*
X8874Y112777D01*
X9145Y112876D01*
X9425Y112944D01*
X9711Y112986D01*
X9993Y113000D01*
Y107000D01*
X9711Y107014D01*
X9425Y107056D01*
X9145Y107124D01*
X8872Y107220D01*
X8761Y107258D01*
X8644Y107275D01*
X8526Y107275D01*
X8409Y107255D01*
X8297Y107218D01*
X8193Y107164D01*
X8098Y107094D01*
X8015Y107009D01*
X7946Y106913D01*
X7893Y106808D01*
X7857Y106695D01*
X7840Y106579D01*
X7841Y106461D01*
X7860Y106344D01*
X7897Y106232D01*
X7952Y106127D01*
X8022Y106032D01*
X8106Y105949D01*
X8202Y105881D01*
X8308Y105830D01*
X8716Y105682D01*
X9137Y105578D01*
X9567Y105516D01*
X9993Y105495D01*
Y104505D01*
X9567Y104484D01*
X9137Y104422D01*
X8716Y104318D01*
X8306Y104175D01*
X8200Y104122D01*
X8104Y104053D01*
X8019Y103970D01*
X7949Y103875D01*
X7894Y103769D01*
X7857Y103657D01*
X7837Y103540D01*
X7836Y103421D01*
X7854Y103304D01*
X7890Y103191D01*
X7943Y103085D01*
X8012Y102988D01*
X8095Y102904D01*
X8191Y102833D01*
X8296Y102779D01*
X8408Y102741D01*
X8525Y102722D01*
X8644Y102721D01*
X8761Y102739D01*
X8874Y102777D01*
X9145Y102876D01*
X9425Y102944D01*
X9711Y102986D01*
X9993Y103000D01*
Y97000D01*
X9711Y97014D01*
X9425Y97056D01*
X9145Y97124D01*
X8872Y97220D01*
X8761Y97258D01*
X8644Y97275D01*
X8526Y97275D01*
X8409Y97255D01*
X8297Y97218D01*
X8193Y97164D01*
X8098Y97094D01*
X8015Y97009D01*
X7946Y96913D01*
X7893Y96808D01*
X7857Y96695D01*
X7840Y96579D01*
X7841Y96461D01*
X7860Y96344D01*
X7897Y96232D01*
X7952Y96127D01*
X8022Y96032D01*
X8106Y95949D01*
X8202Y95881D01*
X8308Y95830D01*
X8716Y95682D01*
X9137Y95578D01*
X9567Y95516D01*
X9993Y95495D01*
Y94513D01*
X9294Y94458D01*
X8605Y94293D01*
X7951Y94022D01*
X7347Y93652D01*
X6808Y93192D01*
X6387Y92698D01*
Y97849D01*
X6460Y97837D01*
X6579Y97836D01*
X6696Y97854D01*
X6809Y97890D01*
X6915Y97943D01*
X7012Y98012D01*
X7096Y98095D01*
X7167Y98191D01*
X7221Y98296D01*
X7259Y98408D01*
X7278Y98525D01*
X7279Y98644D01*
X7261Y98761D01*
X7223Y98874D01*
X7124Y99145D01*
X7056Y99425D01*
X7014Y99711D01*
X7000Y100000D01*
X7014Y100289D01*
X7056Y100575D01*
X7124Y100855D01*
X7220Y101128D01*
X7258Y101239D01*
X7275Y101356D01*
X7275Y101474D01*
X7255Y101591D01*
X7218Y101703D01*
X7164Y101807D01*
X7094Y101902D01*
X7009Y101985D01*
X6913Y102054D01*
X6808Y102107D01*
X6695Y102143D01*
X6579Y102160D01*
X6461Y102159D01*
X6387Y102147D01*
Y107849D01*
X6460Y107837D01*
X6579Y107836D01*
X6696Y107854D01*
X6809Y107890D01*
X6915Y107943D01*
X7012Y108012D01*
X7096Y108095D01*
X7167Y108191D01*
X7221Y108296D01*
X7259Y108408D01*
X7278Y108525D01*
X7279Y108644D01*
X7261Y108761D01*
X7223Y108874D01*
X7124Y109145D01*
X7056Y109425D01*
X7014Y109711D01*
X7000Y110000D01*
X7014Y110289D01*
X7056Y110575D01*
X7124Y110855D01*
X7220Y111128D01*
X7258Y111239D01*
X7275Y111356D01*
X7275Y111474D01*
X7255Y111591D01*
X7218Y111703D01*
X7164Y111807D01*
X7094Y111902D01*
X7009Y111985D01*
X6913Y112054D01*
X6808Y112107D01*
X6695Y112143D01*
X6579Y112160D01*
X6461Y112159D01*
X6387Y112147D01*
Y114000D01*
G37*
G36*
X4000D02*X6387D01*
Y112147D01*
X6344Y112140D01*
X6232Y112103D01*
X6127Y112048D01*
X6032Y111978D01*
X5949Y111894D01*
X5881Y111798D01*
X5830Y111692D01*
X5682Y111284D01*
X5578Y110863D01*
X5516Y110433D01*
X5495Y110000D01*
X5516Y109567D01*
X5578Y109137D01*
X5682Y108716D01*
X5825Y108306D01*
X5878Y108200D01*
X5947Y108104D01*
X6030Y108019D01*
X6125Y107949D01*
X6231Y107894D01*
X6343Y107857D01*
X6387Y107849D01*
Y102147D01*
X6344Y102140D01*
X6232Y102103D01*
X6127Y102048D01*
X6032Y101978D01*
X5949Y101894D01*
X5881Y101798D01*
X5830Y101692D01*
X5682Y101284D01*
X5578Y100863D01*
X5516Y100433D01*
X5495Y100000D01*
X5516Y99567D01*
X5578Y99137D01*
X5682Y98716D01*
X5825Y98306D01*
X5878Y98200D01*
X5947Y98104D01*
X6030Y98019D01*
X6125Y97949D01*
X6231Y97894D01*
X6343Y97857D01*
X6387Y97849D01*
Y92698D01*
X6348Y92653D01*
X5978Y92049D01*
X5707Y91395D01*
X5542Y90706D01*
X5486Y90000D01*
X5542Y89294D01*
X5707Y88605D01*
X5978Y87951D01*
X6348Y87347D01*
X6387Y87302D01*
Y72698D01*
X6348Y72653D01*
X5978Y72049D01*
X5707Y71395D01*
X5542Y70706D01*
X5486Y70000D01*
X5542Y69294D01*
X5707Y68605D01*
X5978Y67951D01*
X6348Y67347D01*
X6387Y67302D01*
Y62698D01*
X6348Y62653D01*
X5978Y62049D01*
X5707Y61395D01*
X5542Y60706D01*
X5486Y60000D01*
X5542Y59294D01*
X5707Y58605D01*
X5978Y57951D01*
X6348Y57347D01*
X6387Y57302D01*
Y52698D01*
X6348Y52653D01*
X5978Y52049D01*
X5707Y51395D01*
X5542Y50706D01*
X5486Y50000D01*
X5542Y49294D01*
X5707Y48605D01*
X5978Y47951D01*
X6348Y47347D01*
X6387Y47302D01*
Y42698D01*
X6348Y42653D01*
X5978Y42049D01*
X5707Y41395D01*
X5542Y40706D01*
X5486Y40000D01*
X5542Y39294D01*
X5707Y38605D01*
X5978Y37951D01*
X6348Y37347D01*
X6387Y37302D01*
Y32698D01*
X6348Y32653D01*
X5978Y32049D01*
X5707Y31395D01*
X5542Y30706D01*
X5486Y30000D01*
X5542Y29294D01*
X5707Y28605D01*
X5978Y27951D01*
X6348Y27347D01*
X6387Y27302D01*
Y22698D01*
X6348Y22653D01*
X5978Y22049D01*
X5707Y21395D01*
X5542Y20706D01*
X5486Y20000D01*
X5542Y19294D01*
X5707Y18605D01*
X5978Y17951D01*
X6348Y17347D01*
X6387Y17302D01*
Y14000D01*
X4000D01*
Y114000D01*
G37*
G36*
X50000Y86000D02*X35000D01*
Y117000D01*
X39882D01*
X40000Y116991D01*
X40118Y117000D01*
X44882D01*
X45000Y116991D01*
X45471Y117028D01*
X45471Y117028D01*
X45930Y117138D01*
X46366Y117319D01*
X46769Y117565D01*
X47128Y117872D01*
X47435Y118231D01*
X47681Y118634D01*
X47862Y119070D01*
X47972Y119529D01*
X48009Y120000D01*
X47972Y120471D01*
X47862Y120930D01*
X47681Y121366D01*
X47435Y121769D01*
X47128Y122128D01*
X46769Y122435D01*
X46366Y122681D01*
X45930Y122862D01*
X45471Y122972D01*
X45471Y122972D01*
X45000Y123009D01*
X44882Y123000D01*
X40118D01*
X40000Y123009D01*
X39882Y123000D01*
X35000D01*
Y266000D01*
X50000D01*
Y86000D01*
G37*
G36*
X35000D02*X13613D01*
Y87302D01*
X13652Y87347D01*
X14022Y87951D01*
X14293Y88605D01*
X14458Y89294D01*
X14500Y90000D01*
X14458Y90706D01*
X14293Y91395D01*
X14022Y92049D01*
X13652Y92653D01*
X13613Y92698D01*
Y97853D01*
X13656Y97860D01*
X13768Y97897D01*
X13873Y97952D01*
X13968Y98022D01*
X14051Y98106D01*
X14119Y98202D01*
X14170Y98308D01*
X14318Y98716D01*
X14422Y99137D01*
X14484Y99567D01*
X14505Y100000D01*
X14484Y100433D01*
X14422Y100863D01*
X14318Y101284D01*
X14175Y101694D01*
X14122Y101800D01*
X14053Y101896D01*
X13970Y101981D01*
X13875Y102051D01*
X13769Y102106D01*
X13657Y102143D01*
X13613Y102151D01*
Y107853D01*
X13656Y107860D01*
X13768Y107897D01*
X13873Y107952D01*
X13968Y108022D01*
X14051Y108106D01*
X14119Y108202D01*
X14170Y108308D01*
X14318Y108716D01*
X14422Y109137D01*
X14484Y109567D01*
X14505Y110000D01*
X14484Y110433D01*
X14422Y110863D01*
X14318Y111284D01*
X14175Y111694D01*
X14122Y111800D01*
X14053Y111896D01*
X13970Y111981D01*
X13875Y112051D01*
X13769Y112106D01*
X13657Y112143D01*
X13613Y112151D01*
Y117302D01*
X13652Y117347D01*
X14022Y117951D01*
X14293Y118605D01*
X14458Y119294D01*
X14500Y120000D01*
X14458Y120706D01*
X14293Y121395D01*
X14022Y122049D01*
X13652Y122653D01*
X13613Y122698D01*
Y127302D01*
X13652Y127347D01*
X14022Y127951D01*
X14293Y128605D01*
X14458Y129294D01*
X14500Y130000D01*
X14458Y130706D01*
X14293Y131395D01*
X14022Y132049D01*
X13652Y132653D01*
X13613Y132698D01*
Y137302D01*
X13652Y137347D01*
X14022Y137951D01*
X14293Y138605D01*
X14458Y139294D01*
X14500Y140000D01*
X14458Y140706D01*
X14293Y141395D01*
X14022Y142049D01*
X13652Y142653D01*
X13613Y142698D01*
Y147302D01*
X13652Y147347D01*
X14022Y147951D01*
X14293Y148605D01*
X14458Y149294D01*
X14500Y150000D01*
X14458Y150706D01*
X14293Y151395D01*
X14022Y152049D01*
X13652Y152653D01*
X13613Y152698D01*
Y155630D01*
X13683Y155659D01*
X13884Y155783D01*
X14064Y155936D01*
X14217Y156116D01*
X14341Y156317D01*
X14431Y156535D01*
X14486Y156765D01*
X14500Y157000D01*
X14486Y163235D01*
X14431Y163465D01*
X14341Y163683D01*
X14217Y163884D01*
X14064Y164064D01*
X13884Y164217D01*
X13683Y164341D01*
X13613Y164370D01*
Y207296D01*
X13871Y207403D01*
X15012Y208102D01*
X16029Y208971D01*
X16898Y209988D01*
X17597Y211129D01*
X18109Y212365D01*
X18421Y213666D01*
X18500Y215000D01*
X18421Y216334D01*
X18109Y217635D01*
X17597Y218871D01*
X16898Y220012D01*
X16029Y221029D01*
X15012Y221898D01*
X13871Y222597D01*
X13613Y222704D01*
Y266000D01*
X35000D01*
Y123000D01*
X30118D01*
X30000Y123009D01*
X29882Y123000D01*
X25118D01*
X25000Y123009D01*
X24529Y122972D01*
X24070Y122862D01*
X23634Y122681D01*
X23231Y122435D01*
X22872Y122128D01*
X22565Y121769D01*
X22319Y121366D01*
X22138Y120930D01*
X22028Y120471D01*
X21991Y120000D01*
X22028Y119529D01*
X22138Y119070D01*
X22319Y118634D01*
X22565Y118231D01*
X22872Y117872D01*
X23231Y117565D01*
X23634Y117319D01*
X24070Y117138D01*
X24529Y117028D01*
X25000Y116991D01*
X25118Y117000D01*
X29882D01*
X30000Y116991D01*
X30118Y117000D01*
X35000D01*
Y86000D01*
G37*
G36*
X13613Y222704D02*X12635Y223109D01*
X11334Y223421D01*
X10000Y223526D01*
Y266000D01*
X13613D01*
Y222704D01*
G37*
G36*
Y164370D02*X13465Y164431D01*
X13235Y164486D01*
X13000Y164500D01*
X10000Y164493D01*
Y206474D01*
X11334Y206579D01*
X12635Y206891D01*
X13613Y207296D01*
Y164370D01*
G37*
G36*
Y152698D02*X13192Y153192D01*
X12653Y153652D01*
X12049Y154022D01*
X11395Y154293D01*
X10706Y154458D01*
X10000Y154514D01*
Y155507D01*
X13235Y155514D01*
X13465Y155569D01*
X13613Y155630D01*
Y152698D01*
G37*
G36*
Y142698D02*X13192Y143192D01*
X12653Y143652D01*
X12049Y144022D01*
X11395Y144293D01*
X10706Y144458D01*
X10000Y144514D01*
Y145486D01*
X10706Y145542D01*
X11395Y145707D01*
X12049Y145978D01*
X12653Y146348D01*
X13192Y146808D01*
X13613Y147302D01*
Y142698D01*
G37*
G36*
Y132698D02*X13192Y133192D01*
X12653Y133652D01*
X12049Y134022D01*
X11395Y134293D01*
X10706Y134458D01*
X10000Y134514D01*
Y135486D01*
X10706Y135542D01*
X11395Y135707D01*
X12049Y135978D01*
X12653Y136348D01*
X13192Y136808D01*
X13613Y137302D01*
Y132698D01*
G37*
G36*
Y122698D02*X13192Y123192D01*
X12653Y123652D01*
X12049Y124022D01*
X11395Y124293D01*
X10706Y124458D01*
X10000Y124514D01*
Y125486D01*
X10706Y125542D01*
X11395Y125707D01*
X12049Y125978D01*
X12653Y126348D01*
X13192Y126808D01*
X13613Y127302D01*
Y122698D01*
G37*
G36*
Y92698D02*X13192Y93192D01*
X12653Y93652D01*
X12049Y94022D01*
X11395Y94293D01*
X10706Y94458D01*
X10000Y94514D01*
Y95495D01*
X10433Y95516D01*
X10863Y95578D01*
X11284Y95682D01*
X11694Y95825D01*
X11800Y95878D01*
X11896Y95947D01*
X11981Y96030D01*
X12051Y96125D01*
X12106Y96231D01*
X12143Y96343D01*
X12163Y96460D01*
X12164Y96579D01*
X12146Y96696D01*
X12110Y96809D01*
X12057Y96915D01*
X11988Y97012D01*
X11905Y97096D01*
X11809Y97167D01*
X11704Y97221D01*
X11592Y97259D01*
X11475Y97278D01*
X11356Y97279D01*
X11239Y97261D01*
X11126Y97223D01*
X10855Y97124D01*
X10575Y97056D01*
X10289Y97014D01*
X10000Y97000D01*
Y103000D01*
X10289Y102986D01*
X10575Y102944D01*
X10855Y102876D01*
X11128Y102780D01*
X11239Y102742D01*
X11356Y102725D01*
X11474Y102725D01*
X11591Y102745D01*
X11703Y102782D01*
X11807Y102836D01*
X11902Y102906D01*
X11985Y102991D01*
X12054Y103087D01*
X12107Y103192D01*
X12143Y103305D01*
X12160Y103421D01*
X12159Y103539D01*
X12140Y103656D01*
X12103Y103768D01*
X12048Y103873D01*
X11978Y103968D01*
X11894Y104051D01*
X11798Y104119D01*
X11692Y104170D01*
X11284Y104318D01*
X10863Y104422D01*
X10433Y104484D01*
X10000Y104505D01*
Y105495D01*
X10433Y105516D01*
X10863Y105578D01*
X11284Y105682D01*
X11694Y105825D01*
X11800Y105878D01*
X11896Y105947D01*
X11981Y106030D01*
X12051Y106125D01*
X12106Y106231D01*
X12143Y106343D01*
X12163Y106460D01*
X12164Y106579D01*
X12146Y106696D01*
X12110Y106809D01*
X12057Y106915D01*
X11988Y107012D01*
X11905Y107096D01*
X11809Y107167D01*
X11704Y107221D01*
X11592Y107259D01*
X11475Y107278D01*
X11356Y107279D01*
X11239Y107261D01*
X11126Y107223D01*
X10855Y107124D01*
X10575Y107056D01*
X10289Y107014D01*
X10000Y107000D01*
Y113000D01*
X10289Y112986D01*
X10575Y112944D01*
X10855Y112876D01*
X11128Y112780D01*
X11239Y112742D01*
X11356Y112725D01*
X11474Y112725D01*
X11591Y112745D01*
X11703Y112782D01*
X11807Y112836D01*
X11902Y112906D01*
X11985Y112991D01*
X12054Y113087D01*
X12107Y113192D01*
X12143Y113305D01*
X12160Y113421D01*
X12159Y113539D01*
X12140Y113656D01*
X12103Y113768D01*
X12048Y113873D01*
X11978Y113968D01*
X11894Y114051D01*
X11798Y114119D01*
X11692Y114170D01*
X11284Y114318D01*
X10863Y114422D01*
X10433Y114484D01*
X10000Y114505D01*
Y115486D01*
X10706Y115542D01*
X11395Y115707D01*
X12049Y115978D01*
X12653Y116348D01*
X13192Y116808D01*
X13613Y117302D01*
Y112151D01*
X13540Y112163D01*
X13421Y112164D01*
X13304Y112146D01*
X13191Y112110D01*
X13085Y112057D01*
X12988Y111988D01*
X12904Y111905D01*
X12833Y111809D01*
X12779Y111704D01*
X12741Y111592D01*
X12722Y111475D01*
X12721Y111356D01*
X12739Y111239D01*
X12777Y111126D01*
X12876Y110855D01*
X12944Y110575D01*
X12986Y110289D01*
X13000Y110000D01*
X12986Y109711D01*
X12944Y109425D01*
X12876Y109145D01*
X12780Y108872D01*
X12742Y108761D01*
X12725Y108644D01*
X12725Y108526D01*
X12745Y108409D01*
X12782Y108297D01*
X12836Y108193D01*
X12906Y108098D01*
X12991Y108015D01*
X13087Y107946D01*
X13192Y107893D01*
X13305Y107857D01*
X13421Y107840D01*
X13539Y107841D01*
X13613Y107853D01*
Y102151D01*
X13540Y102163D01*
X13421Y102164D01*
X13304Y102146D01*
X13191Y102110D01*
X13085Y102057D01*
X12988Y101988D01*
X12904Y101905D01*
X12833Y101809D01*
X12779Y101704D01*
X12741Y101592D01*
X12722Y101475D01*
X12721Y101356D01*
X12739Y101239D01*
X12777Y101126D01*
X12876Y100855D01*
X12944Y100575D01*
X12986Y100289D01*
X13000Y100000D01*
X12986Y99711D01*
X12944Y99425D01*
X12876Y99145D01*
X12780Y98872D01*
X12742Y98761D01*
X12725Y98644D01*
X12725Y98526D01*
X12745Y98409D01*
X12782Y98297D01*
X12836Y98193D01*
X12906Y98098D01*
X12991Y98015D01*
X13087Y97946D01*
X13192Y97893D01*
X13305Y97857D01*
X13421Y97840D01*
X13539Y97841D01*
X13613Y97853D01*
Y92698D01*
G37*
G36*
Y86000D02*X12085D01*
X12653Y86348D01*
X13192Y86808D01*
X13613Y87302D01*
Y86000D01*
G37*
G36*
X10000Y223526D02*X8666Y223421D01*
X7365Y223109D01*
X6129Y222597D01*
X4988Y221898D01*
X4000Y221054D01*
Y266000D01*
X10000D01*
Y223526D01*
G37*
G36*
X6387Y127302D02*X6808Y126808D01*
X7347Y126348D01*
X7951Y125978D01*
X8605Y125707D01*
X9294Y125542D01*
X10000Y125486D01*
Y124514D01*
X9294Y124458D01*
X8605Y124293D01*
X7951Y124022D01*
X7347Y123652D01*
X6808Y123192D01*
X6387Y122698D01*
Y127302D01*
G37*
G36*
Y137302D02*X6808Y136808D01*
X7347Y136348D01*
X7951Y135978D01*
X8605Y135707D01*
X9294Y135542D01*
X10000Y135486D01*
Y134514D01*
X9294Y134458D01*
X8605Y134293D01*
X7951Y134022D01*
X7347Y133652D01*
X6808Y133192D01*
X6387Y132698D01*
Y137302D01*
G37*
G36*
Y147302D02*X6808Y146808D01*
X7347Y146348D01*
X7951Y145978D01*
X8605Y145707D01*
X9294Y145542D01*
X10000Y145486D01*
Y144514D01*
X9294Y144458D01*
X8605Y144293D01*
X7951Y144022D01*
X7347Y143652D01*
X6808Y143192D01*
X6387Y142698D01*
Y147302D01*
G37*
G36*
Y155630D02*X6535Y155569D01*
X6765Y155514D01*
X7000Y155500D01*
X10000Y155507D01*
Y154514D01*
X9294Y154458D01*
X8605Y154293D01*
X7951Y154022D01*
X7347Y153652D01*
X6808Y153192D01*
X6387Y152698D01*
Y155630D01*
G37*
G36*
Y207296D02*X7365Y206891D01*
X8666Y206579D01*
X10000Y206474D01*
Y164493D01*
X6765Y164486D01*
X6535Y164431D01*
X6387Y164370D01*
Y207296D01*
G37*
G36*
Y87302D02*X6808Y86808D01*
X7347Y86348D01*
X7915Y86000D01*
X6387D01*
Y87302D01*
G37*
G36*
X10000Y94514D02*X9294Y94458D01*
X8605Y94293D01*
X7951Y94022D01*
X7347Y93652D01*
X6808Y93192D01*
X6387Y92698D01*
Y97849D01*
X6460Y97837D01*
X6579Y97836D01*
X6696Y97854D01*
X6809Y97890D01*
X6915Y97943D01*
X7012Y98012D01*
X7096Y98095D01*
X7167Y98191D01*
X7221Y98296D01*
X7259Y98408D01*
X7278Y98525D01*
X7279Y98644D01*
X7261Y98761D01*
X7223Y98874D01*
X7124Y99145D01*
X7056Y99425D01*
X7014Y99711D01*
X7000Y100000D01*
X7014Y100289D01*
X7056Y100575D01*
X7124Y100855D01*
X7220Y101128D01*
X7258Y101239D01*
X7275Y101356D01*
X7275Y101474D01*
X7255Y101591D01*
X7218Y101703D01*
X7164Y101807D01*
X7094Y101902D01*
X7009Y101985D01*
X6913Y102054D01*
X6808Y102107D01*
X6695Y102143D01*
X6579Y102160D01*
X6461Y102159D01*
X6387Y102147D01*
Y107849D01*
X6460Y107837D01*
X6579Y107836D01*
X6696Y107854D01*
X6809Y107890D01*
X6915Y107943D01*
X7012Y108012D01*
X7096Y108095D01*
X7167Y108191D01*
X7221Y108296D01*
X7259Y108408D01*
X7278Y108525D01*
X7279Y108644D01*
X7261Y108761D01*
X7223Y108874D01*
X7124Y109145D01*
X7056Y109425D01*
X7014Y109711D01*
X7000Y110000D01*
X7014Y110289D01*
X7056Y110575D01*
X7124Y110855D01*
X7220Y111128D01*
X7258Y111239D01*
X7275Y111356D01*
X7275Y111474D01*
X7255Y111591D01*
X7218Y111703D01*
X7164Y111807D01*
X7094Y111902D01*
X7009Y111985D01*
X6913Y112054D01*
X6808Y112107D01*
X6695Y112143D01*
X6579Y112160D01*
X6461Y112159D01*
X6387Y112147D01*
Y117302D01*
X6808Y116808D01*
X7347Y116348D01*
X7951Y115978D01*
X8605Y115707D01*
X9294Y115542D01*
X10000Y115486D01*
Y114505D01*
X9567Y114484D01*
X9137Y114422D01*
X8716Y114318D01*
X8306Y114175D01*
X8200Y114122D01*
X8104Y114053D01*
X8019Y113970D01*
X7949Y113875D01*
X7894Y113769D01*
X7857Y113657D01*
X7837Y113540D01*
X7836Y113421D01*
X7854Y113304D01*
X7890Y113191D01*
X7943Y113085D01*
X8012Y112988D01*
X8095Y112904D01*
X8191Y112833D01*
X8296Y112779D01*
X8408Y112741D01*
X8525Y112722D01*
X8644Y112721D01*
X8761Y112739D01*
X8874Y112777D01*
X9145Y112876D01*
X9425Y112944D01*
X9711Y112986D01*
X10000Y113000D01*
Y107000D01*
X9711Y107014D01*
X9425Y107056D01*
X9145Y107124D01*
X8872Y107220D01*
X8761Y107258D01*
X8644Y107275D01*
X8526Y107275D01*
X8409Y107255D01*
X8297Y107218D01*
X8193Y107164D01*
X8098Y107094D01*
X8015Y107009D01*
X7946Y106913D01*
X7893Y106808D01*
X7857Y106695D01*
X7840Y106579D01*
X7841Y106461D01*
X7860Y106344D01*
X7897Y106232D01*
X7952Y106127D01*
X8022Y106032D01*
X8106Y105949D01*
X8202Y105881D01*
X8308Y105830D01*
X8716Y105682D01*
X9137Y105578D01*
X9567Y105516D01*
X10000Y105495D01*
X10000D01*
Y104505D01*
X9567Y104484D01*
X9137Y104422D01*
X8716Y104318D01*
X8306Y104175D01*
X8200Y104122D01*
X8104Y104053D01*
X8019Y103970D01*
X7949Y103875D01*
X7894Y103769D01*
X7857Y103657D01*
X7837Y103540D01*
X7836Y103421D01*
X7854Y103304D01*
X7890Y103191D01*
X7943Y103085D01*
X8012Y102988D01*
X8095Y102904D01*
X8191Y102833D01*
X8296Y102779D01*
X8408Y102741D01*
X8525Y102722D01*
X8644Y102721D01*
X8761Y102739D01*
X8874Y102777D01*
X9145Y102876D01*
X9425Y102944D01*
X9711Y102986D01*
X10000Y103000D01*
Y97000D01*
X9711Y97014D01*
X9425Y97056D01*
X9145Y97124D01*
X8872Y97220D01*
X8761Y97258D01*
X8644Y97275D01*
X8526Y97275D01*
X8409Y97255D01*
X8297Y97218D01*
X8193Y97164D01*
X8098Y97094D01*
X8015Y97009D01*
X7946Y96913D01*
X7893Y96808D01*
X7857Y96695D01*
X7840Y96579D01*
X7841Y96461D01*
X7860Y96344D01*
X7897Y96232D01*
X7952Y96127D01*
X8022Y96032D01*
X8106Y95949D01*
X8202Y95881D01*
X8308Y95830D01*
X8716Y95682D01*
X9137Y95578D01*
X9567Y95516D01*
X10000Y95495D01*
X10000D01*
Y94514D01*
G37*
G36*
X6387Y92698D02*X6348Y92653D01*
X5978Y92049D01*
X5707Y91395D01*
X5542Y90706D01*
X5486Y90000D01*
X5542Y89294D01*
X5707Y88605D01*
X5978Y87951D01*
X6348Y87347D01*
X6387Y87302D01*
Y86000D01*
X4000D01*
Y208946D01*
X4988Y208102D01*
X6129Y207403D01*
X6387Y207296D01*
Y164370D01*
X6317Y164341D01*
X6116Y164217D01*
X5936Y164064D01*
X5783Y163884D01*
X5659Y163683D01*
X5569Y163465D01*
X5514Y163235D01*
X5500Y163000D01*
X5514Y156765D01*
X5569Y156535D01*
X5659Y156317D01*
X5783Y156116D01*
X5936Y155936D01*
X6116Y155783D01*
X6317Y155659D01*
X6387Y155630D01*
Y152698D01*
X6348Y152653D01*
X5978Y152049D01*
X5707Y151395D01*
X5542Y150706D01*
X5486Y150000D01*
X5542Y149294D01*
X5707Y148605D01*
X5978Y147951D01*
X6348Y147347D01*
X6387Y147302D01*
Y142698D01*
X6348Y142653D01*
X5978Y142049D01*
X5707Y141395D01*
X5542Y140706D01*
X5486Y140000D01*
X5542Y139294D01*
X5707Y138605D01*
X5978Y137951D01*
X6348Y137347D01*
X6387Y137302D01*
Y132698D01*
X6348Y132653D01*
X5978Y132049D01*
X5707Y131395D01*
X5542Y130706D01*
X5486Y130000D01*
X5542Y129294D01*
X5707Y128605D01*
X5978Y127951D01*
X6348Y127347D01*
X6387Y127302D01*
Y122698D01*
X6348Y122653D01*
X5978Y122049D01*
X5707Y121395D01*
X5542Y120706D01*
X5486Y120000D01*
X5542Y119294D01*
X5707Y118605D01*
X5978Y117951D01*
X6348Y117347D01*
X6387Y117302D01*
Y112147D01*
X6344Y112140D01*
X6232Y112103D01*
X6127Y112048D01*
X6032Y111978D01*
X5949Y111894D01*
X5881Y111798D01*
X5830Y111692D01*
X5682Y111284D01*
X5578Y110863D01*
X5516Y110433D01*
X5495Y110000D01*
X5516Y109567D01*
X5578Y109137D01*
X5682Y108716D01*
X5825Y108306D01*
X5878Y108200D01*
X5947Y108104D01*
X6030Y108019D01*
X6125Y107949D01*
X6231Y107894D01*
X6343Y107857D01*
X6387Y107849D01*
Y102147D01*
X6344Y102140D01*
X6232Y102103D01*
X6127Y102048D01*
X6032Y101978D01*
X5949Y101894D01*
X5881Y101798D01*
X5830Y101692D01*
X5682Y101284D01*
X5578Y100863D01*
X5516Y100433D01*
X5495Y100000D01*
X5516Y99567D01*
X5578Y99137D01*
X5682Y98716D01*
X5825Y98306D01*
X5878Y98200D01*
X5947Y98104D01*
X6030Y98019D01*
X6125Y97949D01*
X6231Y97894D01*
X6343Y97857D01*
X6387Y97849D01*
Y92698D01*
G37*
G36*
X176893Y266000D02*X182500D01*
Y235500D01*
X176893D01*
Y245545D01*
X176978Y245581D01*
X177079Y245643D01*
X177169Y245719D01*
X177245Y245809D01*
X177305Y245911D01*
X177522Y246380D01*
X177689Y246869D01*
X177809Y247372D01*
X177882Y247884D01*
X177906Y248400D01*
X177882Y248916D01*
X177809Y249428D01*
X177689Y249931D01*
X177522Y250420D01*
X177310Y250892D01*
X177249Y250993D01*
X177172Y251084D01*
X177082Y251161D01*
X176980Y251223D01*
X176893Y251260D01*
Y266000D01*
G37*
G36*
X172402D02*X176893D01*
Y251260D01*
X176871Y251269D01*
X176755Y251297D01*
X176637Y251306D01*
X176519Y251297D01*
X176403Y251270D01*
X176293Y251224D01*
X176192Y251162D01*
X176102Y251086D01*
X176024Y250995D01*
X175962Y250894D01*
X175916Y250785D01*
X175889Y250669D01*
X175879Y250551D01*
X175888Y250432D01*
X175916Y250317D01*
X175963Y250208D01*
X176121Y249868D01*
X176242Y249512D01*
X176330Y249147D01*
X176382Y248775D01*
X176400Y248400D01*
X176382Y248025D01*
X176330Y247653D01*
X176242Y247288D01*
X176121Y246932D01*
X175967Y246590D01*
X175920Y246482D01*
X175893Y246367D01*
X175883Y246249D01*
X175893Y246132D01*
X175921Y246017D01*
X175966Y245908D01*
X176028Y245807D01*
X176105Y245718D01*
X176195Y245641D01*
X176295Y245580D01*
X176404Y245535D01*
X176519Y245507D01*
X176637Y245498D01*
X176755Y245508D01*
X176869Y245535D01*
X176893Y245545D01*
Y235500D01*
X172402D01*
Y242894D01*
X172916Y242918D01*
X173428Y242991D01*
X173931Y243111D01*
X174420Y243278D01*
X174892Y243490D01*
X174993Y243551D01*
X175084Y243628D01*
X175161Y243718D01*
X175223Y243820D01*
X175269Y243929D01*
X175297Y244045D01*
X175306Y244163D01*
X175297Y244281D01*
X175270Y244397D01*
X175224Y244507D01*
X175162Y244608D01*
X175086Y244698D01*
X174995Y244776D01*
X174894Y244838D01*
X174785Y244884D01*
X174669Y244911D01*
X174551Y244921D01*
X174432Y244912D01*
X174317Y244884D01*
X174208Y244837D01*
X173868Y244679D01*
X173512Y244558D01*
X173147Y244470D01*
X172775Y244418D01*
X172402Y244400D01*
Y252400D01*
X172775Y252382D01*
X173147Y252330D01*
X173512Y252242D01*
X173868Y252121D01*
X174210Y251967D01*
X174318Y251920D01*
X174433Y251893D01*
X174551Y251883D01*
X174668Y251893D01*
X174783Y251921D01*
X174892Y251966D01*
X174993Y252028D01*
X175082Y252105D01*
X175159Y252195D01*
X175220Y252295D01*
X175265Y252404D01*
X175293Y252519D01*
X175302Y252637D01*
X175292Y252755D01*
X175265Y252869D01*
X175219Y252978D01*
X175157Y253079D01*
X175081Y253169D01*
X174991Y253245D01*
X174889Y253305D01*
X174420Y253522D01*
X173931Y253689D01*
X173428Y253809D01*
X172916Y253882D01*
X172402Y253906D01*
Y266000D01*
G37*
G36*
X167907D02*X172402D01*
Y253906D01*
X172400Y253906D01*
X171884Y253882D01*
X171372Y253809D01*
X170869Y253689D01*
X170380Y253522D01*
X169908Y253310D01*
X169807Y253249D01*
X169716Y253172D01*
X169639Y253082D01*
X169577Y252980D01*
X169531Y252871D01*
X169503Y252755D01*
X169494Y252637D01*
X169503Y252519D01*
X169530Y252403D01*
X169576Y252293D01*
X169638Y252192D01*
X169714Y252102D01*
X169805Y252024D01*
X169906Y251962D01*
X170015Y251916D01*
X170131Y251889D01*
X170249Y251879D01*
X170368Y251888D01*
X170483Y251916D01*
X170592Y251963D01*
X170932Y252121D01*
X171288Y252242D01*
X171653Y252330D01*
X172025Y252382D01*
X172400Y252400D01*
X172402Y252400D01*
Y244400D01*
X172400Y244400D01*
X172025Y244418D01*
X171653Y244470D01*
X171288Y244558D01*
X170932Y244679D01*
X170590Y244833D01*
X170482Y244880D01*
X170367Y244907D01*
X170249Y244917D01*
X170132Y244907D01*
X170017Y244879D01*
X169908Y244834D01*
X169807Y244772D01*
X169718Y244695D01*
X169641Y244605D01*
X169580Y244505D01*
X169535Y244396D01*
X169507Y244281D01*
X169498Y244163D01*
X169508Y244045D01*
X169535Y243931D01*
X169581Y243822D01*
X169643Y243721D01*
X169719Y243631D01*
X169809Y243555D01*
X169911Y243495D01*
X170380Y243278D01*
X170869Y243111D01*
X171372Y242991D01*
X171884Y242918D01*
X172400Y242894D01*
X172402Y242894D01*
Y235500D01*
X167907D01*
Y245540D01*
X167929Y245531D01*
X168045Y245503D01*
X168163Y245494D01*
X168281Y245503D01*
X168397Y245530D01*
X168507Y245576D01*
X168608Y245638D01*
X168698Y245714D01*
X168776Y245805D01*
X168838Y245906D01*
X168884Y246015D01*
X168911Y246131D01*
X168921Y246249D01*
X168912Y246368D01*
X168884Y246483D01*
X168837Y246592D01*
X168679Y246932D01*
X168558Y247288D01*
X168470Y247653D01*
X168418Y248025D01*
X168400Y248400D01*
X168418Y248775D01*
X168470Y249147D01*
X168558Y249512D01*
X168679Y249868D01*
X168833Y250210D01*
X168880Y250318D01*
X168907Y250433D01*
X168917Y250551D01*
X168907Y250668D01*
X168879Y250783D01*
X168834Y250892D01*
X168772Y250993D01*
X168695Y251082D01*
X168605Y251159D01*
X168505Y251220D01*
X168396Y251265D01*
X168281Y251293D01*
X168163Y251302D01*
X168045Y251292D01*
X167931Y251265D01*
X167907Y251255D01*
Y266000D01*
G37*
G36*
X4000D02*X167907D01*
Y251255D01*
X167822Y251219D01*
X167721Y251157D01*
X167631Y251081D01*
X167555Y250991D01*
X167495Y250889D01*
X167278Y250420D01*
X167111Y249931D01*
X166991Y249428D01*
X166918Y248916D01*
X166894Y248400D01*
X166918Y247884D01*
X166991Y247372D01*
X167111Y246869D01*
X167278Y246380D01*
X167490Y245908D01*
X167551Y245807D01*
X167628Y245716D01*
X167718Y245639D01*
X167820Y245577D01*
X167907Y245540D01*
Y235500D01*
X118141D01*
X118421Y236666D01*
X118500Y238000D01*
X118421Y239334D01*
X118109Y240635D01*
X117597Y241871D01*
X116898Y243012D01*
X116029Y244029D01*
X115012Y244898D01*
X113871Y245597D01*
X112635Y246109D01*
X111334Y246421D01*
X110000Y246526D01*
X108666Y246421D01*
X107365Y246109D01*
X106129Y245597D01*
X104988Y244898D01*
X103971Y244029D01*
X103102Y243012D01*
X102403Y241871D01*
X101891Y240635D01*
X101579Y239334D01*
X101474Y238000D01*
X101579Y236666D01*
X101859Y235500D01*
X78141D01*
X78421Y236666D01*
X78500Y238000D01*
X78421Y239334D01*
X78109Y240635D01*
X77597Y241871D01*
X76898Y243012D01*
X76029Y244029D01*
X75012Y244898D01*
X73871Y245597D01*
X72635Y246109D01*
X71334Y246421D01*
X70000Y246526D01*
X68666Y246421D01*
X67365Y246109D01*
X66129Y245597D01*
X64988Y244898D01*
X63971Y244029D01*
X63102Y243012D01*
X62403Y241871D01*
X61891Y240635D01*
X61579Y239334D01*
X61474Y238000D01*
X61579Y236666D01*
X61859Y235500D01*
X4000D01*
Y266000D01*
G37*
G54D32*X70000Y118000D02*X80000D01*
X77000D02*X139000D01*
G54D33*X25000Y120000D02*X45000D01*
G54D32*X81000Y123000D02*X114000D01*
X82000D02*X70000D01*
Y112000D02*X77000D01*
X75000D02*X109000D01*
X111000Y114000D01*
X133000D01*
X187000Y53000D02*Y164000D01*
X190000Y62000D02*Y167000D01*
X194000Y72000D02*Y167000D01*
X190000Y161000D02*Y195000D01*
X189500D01*
X187000Y160000D02*Y187500D01*
X200000Y60000D02*X196000D01*
Y50000D02*X190000D01*
X187000Y53000D01*
X192000Y60000D02*X190000Y62000D01*
X192000Y60000D02*X198000D01*
X194000Y50000D02*X201000D01*
X200000Y70000D02*X196000D01*
X194000Y72000D01*
Y166000D02*Y200500D01*
X171500Y223000D01*
X189500Y195000D02*X171500Y213000D01*
X187000Y187500D02*X171500Y203000D01*
X139000Y118000D02*X140000Y117000D01*
Y114000D01*
X138000Y109000D02*X144000D01*
X146000Y111000D01*
Y114000D01*
X133000D02*X138000Y109000D01*
X114000Y123000D02*X116000Y125000D01*
X129500Y136000D02*X140500D01*
X146500Y130000D01*
X121000Y149000D02*Y134500D01*
X131500Y124000D01*
Y118000D01*
X182500Y176500D02*X141000D01*
X182500Y166000D02*X141000D01*
X146000Y114000D02*X151500Y119500D01*
X163500D01*
X167500Y123500D01*
Y130000D01*
X154000Y145500D02*X156500Y143000D01*
X130000Y145500D02*X154000D01*
X104500Y156000D02*X153000D01*
X163000Y193000D02*X115000D01*
X110500Y197500D01*
X97500Y213000D02*Y163000D01*
X104500Y156000D01*
X110500Y197500D02*Y216000D01*
X106000Y220500D01*
X87500D01*
X82500Y215500D01*
Y203000D01*
X119500Y197000D02*Y206500D01*
X122500Y209500D01*
X114500Y211500D02*X122500Y219500D01*
X114500Y199000D02*Y211500D01*
G54D34*X30000Y10000D03*
G54D35*X10000Y70000D03*
Y60000D03*
Y50000D03*
Y40000D03*
Y30000D03*
Y20000D03*
G54D31*G36*
X70500Y40500D02*Y32500D01*
X78500D01*
Y40500D01*
X70500D01*
G37*
G36*
X30500D02*Y32500D01*
X38500D01*
Y40500D01*
X30500D01*
G37*
G54D36*X54500Y36500D03*
X94500D03*
G54D34*X200000Y210000D03*
G54D35*Y70000D03*
Y80000D03*
Y90000D03*
Y106000D03*
Y116000D03*
Y126000D03*
Y136000D03*
Y146000D03*
Y156000D03*
Y166000D03*
Y186000D03*
Y196000D03*
G54D31*G36*
X188400Y252400D02*Y244400D01*
X196400D01*
Y252400D01*
X188400D01*
G37*
G54D36*X172400Y248400D03*
G54D34*X140000Y10000D03*
G54D31*G36*
X110500Y40500D02*Y32500D01*
X118500D01*
Y40500D01*
X110500D01*
G37*
G54D36*X134500Y36500D03*
G54D35*X200000Y176000D03*
G54D31*G36*
X197000Y23000D02*Y17000D01*
X203000D01*
Y23000D01*
X197000D01*
G37*
G54D35*X200000Y30000D03*
Y40000D03*
Y50000D03*
Y60000D03*
G54D31*G36*
X150500Y40500D02*Y32500D01*
X158500D01*
Y40500D01*
X150500D01*
G37*
G54D36*X174500Y36500D03*
G54D34*X10000Y215000D03*
G54D31*G36*
X7000Y163000D02*Y157000D01*
X13000D01*
Y163000D01*
X7000D01*
G37*
G54D35*X10000Y150000D03*
Y140000D03*
Y130000D03*
Y120000D03*
Y110000D03*
Y100000D03*
Y90000D03*
G54D37*X102500Y203000D03*
X97500Y213000D03*
X92500Y203000D03*
X87500Y213000D03*
X82500Y203000D03*
X77500Y213000D03*
G54D34*X70000Y238000D03*
X110000D03*
G54D33*X146000Y114000D03*
X140000D03*
X167500Y130000D03*
X146500D03*
X116000Y125000D03*
X182500Y176500D03*
X141000D03*
X182500Y166000D03*
X141000D03*
X129500Y136000D03*
Y145000D03*
X122500Y209500D03*
Y219500D03*
X119500Y197000D03*
X114500Y199000D03*
X121000Y149000D03*
X156500Y143000D03*
X171500Y223000D03*
Y213000D03*
Y203000D03*
X153000Y156000D03*
X163000Y193000D03*
X64000Y94000D03*
X59000D03*
X54000D03*
X70000Y112000D03*
Y118000D03*
X65000Y112000D03*
X94000Y108000D03*
X87000Y118000D03*
X100000Y108000D03*
X70000Y123000D03*
X30000Y120000D03*
X25000D03*
X40000D03*
X45000D03*
X47000Y195500D03*
Y190500D03*
Y185500D03*
Y200500D03*
Y205500D03*
G54D38*G54D39*G54D40*G54D41*G54D39*G54D40*G54D41*G54D39*G54D41*G54D40*G54D41*G54D39*G54D40*G54D42*G54D43*M02*
