M48
INCH
T50C0.020
T49C0.128
T48C0.030
T47C0.048
T46C0.038
T45C0.129
%
T50
X002500Y012000
X003000Y012000
X004000Y012000
X004500Y012000
X004700Y020550
X004700Y020050
X004700Y019550
X004700Y019050
X004700Y018550
X005400Y009400
X005900Y009400
X006400Y009400
X006500Y011200
X007000Y012300
X007000Y011800
X007000Y011200
X008700Y011800
X009400Y010800
X010000Y010800
X011450Y019900
X011600Y012500
X011950Y019700
X012100Y014900
X012250Y021950
X012250Y020950
X012950Y014500
X012950Y013600
X014000Y011400
X014100Y017650
X014100Y016600
X014600Y011400
X014650Y013000
X015300Y015600
X015650Y014300
X016300Y019300
X016750Y013000
X017150Y022300
X017150Y021300
X017150Y020300
X018250Y017650
X018250Y016600
T48
X007750Y021300
X008250Y020300
X008750Y021300
X009250Y020300
X009750Y021300
X010250Y020300
T46
X001000Y016000
X001000Y015000
X001000Y014000
X001000Y013000
X001000Y012000
X001000Y011000
X001000Y010000
X001000Y009000
X001000Y007000
X001000Y006000
X001000Y005000
X001000Y004000
X001000Y003000
X001000Y002000
X020000Y019600
X020000Y018600
X020000Y017600
X020000Y016600
X020000Y015600
X020000Y014600
X020000Y013600
X020000Y012600
X020000Y011600
X020000Y010600
X020000Y009000
X020000Y008000
X020000Y007000
X020000Y006000
X020000Y005000
X020000Y004000
X020000Y003000
X020000Y002000
T47
X003450Y003650
X005450Y003650
X007450Y003650
X009450Y003650
X011450Y003650
X013450Y003650
X015450Y003650
X017240Y024840
X017450Y003650
X019240Y024840
T49
X007000Y023800
X011000Y023800
T45
X001000Y021500
X003000Y001000
X014000Y001000
X020000Y021000
M30
